P1
# CREATOR: GIMP PNM Filter Version 1.1
200 200
0000000000000000000000000000000000000000000000000000000000000000000000
0000000000000000000000000000000000000000000000000000000000000000000000
0000000000000000000000000000000000000000000000000000000000000000000000
0000000000000000000000000000000000000000000000000000000000000000000000
0000000000000000000000000000000000000000000000000000000000000000000000
0000000000000000000000000000000000000000000000000000000000000000000000
0000000000000000000000000000000000000000000000000000000000000000000000
0000000000000000000000000000000000000000000000000000000000000000000000
0000000000000000000000000000000000000000000000000000000000000000000000
0000000000000000000000000000000000000000000000000000000000000000000000
0000000000000000000000000000000000000000000000000000000000000000000000
0000000000000000000000000000000000000000000000000000000000000000000000
0000000000000000000000000000000000000000000000000000000000000000000000
0000000000000000000000000000000000000000000000000000000000000000000000
0000000000000000000000000000000000000000000000000000000000000000000000
0000000000000000000000000000000000000000000000000000000000000000000000
0000000000000000000000000000000000000000000000000000000000000000000000
0000000000000000000000000000000000000000000000000000000000000000000000
0000000000000000000000000000000000000000000000000000000000000000000000
0000000000000000000000000000000000000000000000000000000000000000000000
0000000000000000000000000000000000000000000000000000000000000000000000
0000000000000000000000000000000000000000000000000000000000000000000000
0000000000000000000000000000000000000000000000000000000000000000000000
0000000000000000000000000000000000000000000000000000000000000000000000
0000000000000000000000000000000000000000000000000000000000000000000000
0000000000000000000000000000000000000000000000000000000000000000000000
0000000000000000000000000000000000000000000000000000000000000000000000
0000000000000000000000000000000000000000000000000000000000000000000000
0000000000000000000000000000000000000000000000000000000000000000000000
0000000000000000000000000000000000000000000000000000000000000000000000
0000000000000000000000000000000000000000000000000000000000000000000000
0000000000000000000000000000000000000000000000000000000000000000000000
0000000000000000000000000000000000000000000000000000000000000000000000
0000000000000000000000000000000000000000000000000000000000000000000000
0000000000000000000000000000000000000000000000000000000000000000000000
0000000000000000000000000000000000000000000000000000000000000000000000
0000000000000000000000000000000000000000000000000000000000000000000000
0000000000000000000000000000000000000000000000000000000000000000000000
0000000000000000000000000000000000000000000000000000000000000000000000
0000000000000000000000000000000000000000000000000000000000000000000000
0000000000000000000000000000000000000000000000000000000000000000000000
0000000000000000000000000000000000000000000000000000000000000000000000
0000000000000000000000000000000000000000000000000000000000000000000000
0000000000000000000000000000000000000000000000000000000000000000000000
0000000000000000000000000000000000000000000000000000000000000000000000
0000000000000000000000000000000000000000000000000000000000000000001111
1111111111111111111111100001110000000011111111111100000000000000011111
1111111111111111111111000000000000000000000000000000000000000000000000
0000000000000000000000000000000000000000000000000000000011111111111111
1111111111111000011100000000111111111111000000000000000111111111111111
1111111111110000000000000000000000000000000000000000000000000000000000
0000000000000000000000000000000000000000000000111111111111111111111111
1110000111000000001111111111110000000000000001111111111111111111111111
1100000000000000000000000000000000000000000000000000000000000000000000
0000000000000000000000000000000000001110000000000000000000011110000111
1111111100001111111100000000000000011110000000000000000000011100000000
0000000000000000000000000000000000000000000000000000000000000000000000
0000000000000000000000000011100000000000000000000111100001111111111100
0011111111000000000000000111100000000000000000000111000000000000000000
0000000000000000000000000000000000000000000000000000000000000000000000
0000000000000000111000000000000000000001111000011111111111000011111111
0000000000000001111000000000000000000001110000000000000000000000000000
0000000000000000000000000000000000000000000000000000000000000000000000
0000001110000000000000000000011110000111111111110000111111110000000000
0000011110000000000000000000011100000000000000000000000000000000000000
0000000000000000000000000000000000000000000000000000000000000000001110
0001111111111110000111100000000000111111111111111100000000111000011110
0001111111111110000111000000000000000000000000000000000000000000000000
0000000000000000000000000000000000000000000000000000000011100001111111
1111100001111000000000001111111111111111000000001110000111100001111111
1111100001110000000000000000000000000000000000000000000000000000000000
0000000000000000000000000000000000000000000000111000011111111111100001
1110000000000011111111111111110000000011100001111000011111111111100001
1100000000000000000000000000000000000000000000000000000000000000000000
0000000000000000000000000000000000001110000111111111111000011110000000
0000111111111111111100000000111000011110000111111111111000011100000000
0000000000000000000000000000000000000000000000000000000000000000000000
0000000000000000000000000011100001111111111110000111100000000000111100
0000001111000000001110000111100001111111111110000111000000000000000000
0000000000000000000000000000000000000000000000000000000000000000000000
0000000000000000111000011111111111100001111000000000001111000000001111
0000000011100001111000011111111111100001110000000000000000000000000000
0000000000000000000000011000000000000000000000000000000000000000000000
0000001110000111111111111000011110000000000011110000000011110000000011
1000011110000111111111111000011100000000000000000000000000000000000000
0000000000001111000000000000000000000000000000000000000000000000001110
0001111111111110000111100000000000111100000000111100000000111000011110
0001111111111110000111000000000000000000000000000000000000000000000000
0011110000000000000000000000000000000000000000000000000011100001111111
1111100001111000011111111111111100000000111100000000000111100001111111
1111100001110000000000000000000000000000000000000000000000000011110000
0000000000000000000000000000000000000000000000111000011111111111100001
1110000111111111111111000000001111000000000001111000011111111111100001
1100000000000000000000000000000000000010000000000000011000000000000001
0000000000000000000000000000000000001110000111111111111000011110000111
1111111111110000000011110000000000011110000111111111111000011100000000
0000000000000000000000000011110000000000011111100000000000111100000000
0000000000000000000000000011100001111111111110000111100001111111111111
1100000000111100000000000111100001111111111110000111000000000000000000
0000000000000000111100000000001111111100000000001111000000000000000000
0000000000000000111000000000000000000001111000011100000000111100001111
1111000011100001111000000000000000000001110000000000000000000000000000
0000001111000000000011111111000000000011110000000000000000000000000000
0000001110000000000000000000011110000111000000001111000011111111000011
1000011110000000000000000000011100000000000000000000000000000000000111
1111000001111111111000001111111000000000000000000000000000000000001110
0000000000000000000111100001110000000011110000111111110000111000011110
0000000000000000000111000000000000000000000000000000000000111111100001
1111111110000111111100000000000000000000000000000000000011100000000000
0000000001111000011100000000111100001111111100001110000111100000000000
0000000001110000000000000000000000000000000000011111111100011111111110
0011111111100000000000000000000000000000000000111111111111111111111111
1110000111000011110000111100001111000011100001111111111111111111111111
1100000000000000000000000000000000000111111111100111111111100111111111
1000000000000000000000000000000000001111111111111111111111111110000111
0000111100001111000011110000111000011111111111111111111111111100000000
0000000000000000000000000001111111111111111111111111111111111000000000
0000000000000000000000000011111111111111111111111111100001110000111100
0011110000111100001110000111111111111111111111111111000000000000000000
0000000000000000011111111111111111111111111111111110000000000000000000
0000000000000000111111111111111111111111111000011100001111000011110000
1111000011100001111111111111111111111111110000000000000000000000000000
0000000111111111100011111111001111111111100000000000000000000000000000
0000000000000000000000000000000000000111000011111111111100000000000011
1000000000000000000000000000000000000000000000000000000000000000000011
1111111100111111110011111111110000000000000000000000000000000000000000
0000000000000000000000000001110000111111111111000000000000111000000000
0000000000000000000000000000000000000000000001110000000000111111111111
1111111111111111111100000000001110000000000000000000000000000000000000
0000000000000000011100001111111111110000000000001110000000000000000000
0000000000000000000000000000000000011110111110001111111111111111111111
1111111111000111110111100000000000000000000000000000000000000000000000
0000000111000011111111111100000000000011100000000000000000000000000000
0000000000000000000000001111111111111111111111110000111100001111111111
1111111111111100000000000000000000001111111111100000000111111110000111
1111111100000000000000001111111111111111111111100000000111111100000000
0000000000000001111111111111100111111100001111000011111110011111111111
1110000000000000000000000011111111111000000001111111100001111111111100
0000000000000011111111111111111111111000000001111111000000000000000000
0000000011111111111001111111100011110001111111100111111111110000000000
0000000000000000111111111110000000011111111000011111111111000000000000
0000111111111111111111111110000000011111110000000000000000000000000011
1111111111111011111000111100011111011111111111111100000000000000000000
0000000000000111111110000111100001111000111111110000000011110000111111
1000011111111000011110000111111100000000000000000000000000111111111111
1100011111001111001111100011111111111111000000000000000000000000000000
0001111111100001111000011110001111111100000000111100001111111000011111
1110000111100001111111000000000000000000000000001111111111111000011111
1111110111111000011111111111110000000000000000000000000000000001111111
1000011110000111100011111111000000001111000011111110000111111110000111
1000011111110000000000000000000000000001111111111111000011111010110111
1100001111111111111000000000000000000000000000000000011111111000011110
0001111000111111110000000011110000111111100001111111100001111000011111
1100000000000000000000000000001111111111111100111011010011111100111111
1111111100000000000000000000000000000000000000000000000000011111111111
0000000011110000000000001111111000011110000000011111111000011100000000
0000000000000000000001111111111111110110000011101110111111111111111000
0000000000000000000000000000000000000000000000000111111111110000000011
1100000000000011111110000111100000000111111110000111000000000000000000
0000000000001101111111111110100010101110111111111111101100000000000000
0000000000000000000000000000000000000001111111111100000000111100000000
0000111111100001111000000001111111100001110000000000000000000000000000
0011001100111111100001111101111111111100110011000000000000000000000000
0000000000000000000000000000011111111111000000001111000000000000111111
1000011110000000011111111000011100000000000000000000000000111111001100
0011100000100100101011111100001100111111000000000000000000000000001110
0001111111100000000000000001111111000000000000000011110000111111100001
1111111111100000000000000000000000000000000000111111111111000001110000
1001011011101110000011111111111100000000000000000000000011100001111111
1000000000000000011111110000000000000000111100001111111000011111111111
1000000000000000000000000000000000011111111111110000010000011100011101
1101000000111111111111100000000000000000000000111000011111111000000000
0000000111111100000000000000001111000011111110000111111111111000000000
0000000000000000000001110111111111111111111111000111111011000111111111
1111111111111011100000000000000000001110000111111110000000000000000111
1111000000000000000011110000111111100001111111111110000000000000000000
0000000000111111111111111111111111100011011011011000011111111111111111
1111111100000000000000000011111110000000000000000111111111111111000011
1111110000000011110000000111111110000000000000000111000000000000000000
1111111111111111111111111000110111110100000011111111111111111111111100
0000000000000000111111100000000000000001111111111111110000111111110000
0000111100000001111111100000000000000001110000000000000000000111011111
1111111111111111000111010111000011111111111111111111101110000000000000
0000001111111000000000000000011111111111111100001111111100000000111100
0000011111111000000000000000011100000000000000000000000111111111111100
0000100000001110110000001000001111111111111000000000000000000000001111
1110000000000000000111111111111111000011111111000000001111000000011111
1110000000000000000111000000000000000000000000111111111111000001110000
0011110000001110000011111111111100000000000000000000000000011111111000
0111111110000111100011110000000011110000111111111110000111111110000000
0000011111110000000000000000000000000011111100110000111100000001011000
0011111000110011111100000000000000000000000000000111111110000111111110
0001111000111100000000111100001111111111100001111111100000000000011111
1100000000000000000000000000000011001100111111100000111100001101111100
1100110000000000000000000000000000000001111111100001111111100001111000
1111000000001111000011111111111000011111111000000000000111111100000000
0000000000000000000000111111111111111100001011010001111111111110110000
0000000000000000000000000000011111111000011111111000011110001111000000
0011110000111111111110000111111110000000000001111111000000000000000000
0000000000011111111111111101100001000001101111111111111110000000000000
0000000000000000111111111110000000000001111000000000000000000011110000
1111111100000000000000000001111111100001110000000000000000000000000000
1111111111111100111110100101111100111111111111110000000000000000000000
0000001111111111100000000000011110000000000000000000111100001111111100
0000000000000000011111111000011100000000000000000000000000011111111111
1100001111101111011111000011111111111110000000000000000000000000001111
1111111000000000000111100000000000000000001111000011111111000000000000
0000000111111110000111000000000000000000000000001111111111111000011111
1110110111111000011111111111110000000000000000000000000011111111111000
0000000001111000000000000000000011110000111111110000000000000000000111
1111100001110000000000000000000000000011111111111111000111110011110011
1110001111111111111100000000000000000000000000000000011111111111111110
0000000000111111111111111100000000111100000001111000000000000000000000
0000000000000000000000000000111111111111111011111100111100011111011111
1111111111000000000000000000000000000000000111111111111111100000000000
1111111111111111000000001111000000011110000000000000000000000000000000
0000000000000000001111111111100111111110001111000111111110011111111111
0000000000000000000000000000000001111111111111111000000000001111111111
1111110000000011110000000111100000000000000000000000000000000000000000
0000011111111111111001111111000011110000111111100111111111111110000000
0000000000000000000000011111111111111110000000000011111111111111110000
0000111100000001111000000000000000000000000000000000000000000000111111
1111111111111111110000111100001111111111111111111111110000000000000000
0000001111111000011110000111111110000000111100000000000000000000111111
1111111111111111100000000111100000000000000000000000000111101111100011
1111111111111111111111111111110001111101111000000000000000000000001111
1110000111100001111111100000001111000000000000000000001111111111111111
1111111000000001111000000000000000000000000001110000000000111111111111
1111111111111111111100000000001110000000000000000000000011111110000111
1000011111111000000011110000000000000000000011111111111111111111111000
0000011110000000000000000000000000000000000000001111111111001111111100
1111111111000000000000000000000000000000000000000000000000000000000000
0000000111000011110000000000000000111111100000000000011110000111100001
1100000000000000000000000000000000000111111111100011111111000111111111
1000000000000000000000000000000000000000000000000000000000000000000111
0000111100000000000000001111111000000000000111100001111000011100000000
0000000000000000000000000001111111111111111111111111111111111000000000
0000000000000000000000000000000000000000000000000000000001110000111100
0000000000000011111110000000000001111000011110000111000000000000000000
0000000000000000011111111111111111111111111111111110000000000000000000
0000000000000000000000000000000000000000000000011100001111000000000000
0000111111100000000000011110000111100001110000000000000000000000000000
0000000111111111100111111111100111111111100000000000000000000000000000
0000001111111111111111111111111110000000000011111111000000000000000011
1000011110000111111110000000011100000000000000000000000000000000000111
1111110001111111111000111111111000000000000000000000000000000000001111
1111111111111111111111100000000000111111110000000000000000111000011110
0001111111100000000111000000000000000000000000000000000000111111100001
1111111110000111111100000000000000000000000000000000000011111111111111
1111111111111000000000001111111100000000000000001110000111100001111111
1000000001110000000000000000000000000000000000011111110000011111111110
0000111111100000000000000000000000000000000000111111111111111111111111
1110000000000011111111000000000000000011100001111000011111111000000001
1100000000000000000000000000000000001111000000000011111111000000000011
1100000000000000000000000000000000001110000000000000000000011110000111
0000000000000000000011111111111000000000000111100000000111111100000000
0000000000000000000000000011110000000000111111110000000000111100000000
0000000000000000000000000011100000000000000000000111100001110000000000
0000000000111111111110000000000001111000000001111111000000000000000000
0000000000000000111100000000000111111000000000001111000000000000000000
0000000000000000111000000000000000000001111000011100000000000000000000
1111111111100000000000011110000000011111110000000000000000000000000000
0000000010000000000000011000000000000001000000000000000000000000000000
0000001110000000000000000000011110000111000000000000000000001111111111
1000000000000111100000000111111100000000000000000000000000000000000000
0000000000001111000000000000000000000000000000000000000000000000001110
0001111111111110000111100000001111111111111111111111111111111111111111
1111111111100000000111000000000000000000000000000000000000000000000000
0011110000000000000000000000000000000000000000000000000011100001111111
1111100001111000000011111111111111111111111111111111111111111111111111
1000000001110000000000000000000000000000000000000000000000000011110000
0000000000000000000000000000000000000000000000111000011111111111100001
1110000000111111111111111111111111111111111111111111111111111000000001
1100000000000000000000000000000000000000000000000000011000000000000000
0000000000000000000000000000000000001110000111111111111000011110000000
1111111111111111111111111111111111111111111111111110000000011100000000
0000000000000000000000000000000000000000000000000000000000000000000000
0000000000000000000000000011100001111111111110000111100000000000111100
0011111111000011110001111000000001111111111111111000000000000000000000
0000000000000000000000000000000000000000000000000000000000000000000000
0000000000000000111000011111111111100001111000000000001111000011111111
0000111100011110000000011111111111111110000000000000000000000000000000
0000000000000000000000000000000000000000000000000000000000000000000000
0000001110000111111111111000011110000000000011110000111111110000111100
0111100000000111111111111111100000000000000000000000000000000000000000
0000000000000000000000000000000000000000000000000000000000000000001110
0001111111111110000111100000000000111100001111111100001111000111100000
0001111111111111111000000000000000000000000000000000000000000000000000
0000000000000000000000000000000000000000000000000000000011100001111111
1111100001111000011111111111000011110000111111110000000000000001111000
0000011111110000000000000000000000000000000000000000000000000000000000
0000000000000000000000000000000000000000000000111000011111111111100001
1110000111111111110000111100001111111100000000000000011110000000011111
1100000000000000000000000000000000000000000000000000000000000000000000
0000000000000000000000000000000000001110000111111111111000011110000111
1111111100001111000011111111000000000000000111100000000111111100000000
0000000000000000000000000000000000000000000000000000000000000000000000
0000000000000000000000000011100001111111111110000111100001111111111100
0011110000111111110000000000000001111000000001111111000000000000000000
0000000000000000000000000000000000000000000000000000000000000000000000
0000000000000000111000000000000000000001111000011100000000111111110000
0000000011100000000111111110000000000000000000000000000000000000000000
0000000000000000000000000000000000000000000000000000000000000000000000
0000001110000000000000000000011110000111000000001111111100000000000011
1000000001111111100000000000000000000000000000000000000000000000000000
0000000000000000000000000000000000000000000000000000000000000000001110
0000000000000000000111100001110000000011111111000000000000111000000001
1111111000000000000000000000000000000000000000000000000000000000000000
0000000000000000000000000000000000000000000000000000000011100000000000
0000000001111000011100000000111111110000000000001110000000011111111000
0000000000000000000000000000000000000000000000000000000000000000000000
0000000000000000000000000000000000000000000000111111111111111111111111
1110000111111111110000111111111111000011100000000000000001111000000001
1100000000000000000000000000000000000000000000000000000000000000000000
0000000000000000000000000000000000001111111111111111111111111110000111
1111111100001111111111110000111000000000000000011110000000011100000000
0000000000000000000000000000000000000000000000000000000000000000000000
0000000000000000000000000011111111111111111111111111100001111111111100
0011111111111100001110000000000000000111100000000111000000000000000000
0000000000000000000000000000000000000000000000000000000000000000000000
0000000000000000000000000000000000000000000000000000000000000000000000
0000000000000000000000000000000000000000000000000000000000000000000000
0000000000000000000000000000000000000000000000000000000000000000000000
0000000000000000000000000000000000000000000000000000000000000000000000
0000000000000000000000000000000000000000000000000000000000000000000000
0000000000000000000000000000000000000000000000000000000000000000000000
0000000000000000000000000000000000000000000000000000000000000000000000
0000000000000000000000000000000000000000000000000000000000000000000000
0000000000000000000000000000000000000000000000000000000000000000000000
0000000000000000000000000000000000000000000000000000000000000000000000
0000000000000000000000000000000000000000000000000000000000000000000000
0000000000000000000000000000000000000000000000000000000000000000000000
0000000000000000000000000000000000000000000000000000000000000000000000
0000000000000000000000000000000000000000000000000000000000000000000000
0000000000000000000000000000000000000000000000000000000000000000000000
0000000000000000000000000000000000000000000000000000000000000000000000
0000000000000000000000000000000000000000000000000000000000000000000000
0000000000000000000000000000000000000000000000000000000000000000000000
0000000000000000000000000000000000000000000000000000000000000000000000
0000000000000000000000000000000000000000000000000000000000000000000000
0000000000000000000000000000000000000000000000000000000000000000000000
0000000000000000000000000000000000000000000000000000000000000000000000
0000000000000000000000000000000000000000000000000000000000000000000000
0000000000000000000000000000000000000000000000000000000000000000000000
0000000000000000000000000000000000000000000000000000000000000000000000
0000000000000000000000000000000000000000000000000000000000000000000000
0000000000000000000000000000000000000000000000000000000000000000000000
0000000000000000000000000000000000000000000000000000000000000000000000
0000000000000000000000000000000000000000000000000000000000000000000000
0000000000000000000000000000000000000000000000000000000000000000000000
0000000000000000000000000000000000000000000000000000000000000000000000
0000000000000000000000000000000000000000000000000000000000000000000000
0000000000000000000000000000000000000000000000000000000000000000000000
0000000000000000000000000000000000000000000000000000000000000000000000
0000000000000000000000000000000000000000000000000000000000000000000000
0000000000000000000000000000000000000000000000000000000000000000000000
0000000000000000000000000000000000000000000000000000000000000000000000
0000000000000000000000000000000000000000000000000000000000000000000000
0000000000000000000000000000000000000000000000000000000000000000000000
0000000000000000000000000000000000000000000000000000000000000000000000
0000000000000000000000000000000000000000000000000000000000000000000000
0000000000000000000000000000000000000000000000000000000000000000000000
0000000000000000000000000000000000000000000000000000000000000000000000
0000000000000000000000000000000000000000000000000000000000000000000000
0000000000000000000000000000000000000000000000000000000000000000000000
0000000000000000000000000000000000000000000000000000000000000000000000
0000000000000000000000000000000000000000000000000000000000000000000000
0000000000000000000000000000000000000000000000000000000000000000000000
0000000000000000000000000000000000000000000000000000000000000000000000
0000000000000000000000000000000000000000000000000000000000000000000000
0000000000000000000000000000000000000000000000000000000000000000000000
0000000000000000000000000000000000000000000000000000000000000000000000
0000000000000000000000000000000000000000000000000000000000000000000000
0000000000000000000000000000000000000000000000000000000000000000000000
0000000000000000000000000000000000000000000000000000000000000000000000
0000000000000000000000000000000000000000000000000000000000000000000000
0000000000000000000000000000000000000000000000000000000000000000000000
0000000000000000000000000000000000000000000000000000000000000000000000
0000000000000000000000000000000000000000000000000000000000000000000000
0000000000000000000000000000000000000000000000000000000000000000000000
0000000000000000000000000000000000000000000000000000000000000000000000
0000000000000000000000000000000000000000000000000000000000000000000000
0000000000000000000000000000000000000000000000000000000000000000000000
0000000000000000000000000000000000000000000000000000000000000000000000
0000000000000000000000000000000000000000000000000000000000000000000000
0000000000000000000000000000000000000000000000000000000000000000000000
0000000000000000000000000000000000000000000000000000000000000000000000
0000000000000000000000000000000000000000000000000000000000000000000000
0000000000000000000000000000000000000000000000000000000000000000000000
0000000000000000000000000000000000000000000000000000000000000000000000
0000000000000000000000000000000000000000000000000000000000000000000000
0000000000000000000000000000000000000000000000000000000000000000000000
0000000000000000000000000000000000000000000000000000000000000000000000
0000000000000000000000000000000000000000000000000000000000000000000000
0000000000000000000011111111111111111111111111111111101110110110110101
0101010101010101010100100100100010000100000000000000000000000000000000
0000000000010001000100100100101010101010101010101011011011011101111111
1111111100111111111111111101110110101010101110110110110101101101010101
0101001001010100100100101000101010101010101010101010101010101010101010
0010010100100100100100100101010101011010101010110101101010101010101110
1111111111101111110111111111111101011011010110101101010101010101010100
1001010010100010100000000000000000000000000000000000000001001000100010
0100101010101010101010101010110110110110110110111111111110101111111011
1111011111101101010101110110110110111010101101010101001010100101001000
1010000010101010100100100010001000100100101010000001000100100101001000
1001010010101010101010101010110110110101010101111011111111111101111101
1110111111101110110110101010101010101010101010010100001001000001010100
0000000000000010001000100000000000010101001000100100010101010100101010
1010101010110110110110111011111111110110111111111111111011110111110101
1101101101011010110110101010100101010101011001010101000000101010010101
0100000000000010010100100000000001001001010000010010101010101010101101
0110110110110110101010101111101111111011111111110111010111101011011011
1011010101010101010101001000101001000010001010100000001000000000100010
0000000000000010101010001000100010101001001001010101010101010101010101
0110111101111110101011111111101101101111111111011110111011010101101101
0101010101010101010010010100101000000001010000000010000100000100010010
0100000000010000100010010010101001010010101010101010101101110110101110
1010111110111011111111111111010110101101110101101110101101011010101010
1010101001010010100001010101000001010100000000001000010000000001001001
0010100010010010001001010010101010101011011010101010111010111111101100
1111111100000000000000000000000000000000000000000000000000000000000000
0000000000000000000000000000000000000000000000000000000000000000000000
0000000000000000000000000000000000000000000000000000011111101111111000
0000000000000000000000000000000000000000000000000000000000000000000000
0000000000000000000000000000000000000000000000000000000000000000000000
0000000000000000000000000000000000000000000101011011111110000000000000
0000000000000000000000000000000000000000000000000000000000000000000000
0000000000000000000000000000000000000000000000000000000000000000000000
0000000000000000000000000000000001111110111111100000000000000000000000
0000000000000000000000000000000000000000000000001110000000000000000000
0000000000000000000000000000000000000000000000000000000000000000000000
0000000000000000000000010101101101111000000000000000000000000000000000
0000000000000000000000000000000000000011100000000000000000000000000000
0000000000000000000000000000000000000000000000000000000000000000000000
0000000000000111011011111110000000000000000000000000000000000000000000
0000000000000000000000000000111000000000000000000000000000000000000000
0000000000000000000000000000000000000000000000000000000000000000000000
0001011100111111100000000000000000000000000000000000000000000000000000
0000000000000000001110000000000000000011100000000000000000000000000000
0000000000000000000000000000000000000000000000000000000000000001111110
1111111000000000000000000000000000000000000000000000000000000000000000
0000000000000000000000000000111000000000000000000000000000000000000000
0000000000000000000000000000000000000000000000000000010101101101111000
0000000000000000000000000000000000000000000000000000000000000000000000
0000000000000000001110000000000000000000000000000000000000000000000000
0000000000000000000000000000000000000000000111111011111110000011111110
0000111111100000001111111000000111001111000000111111100000111000001111
1110001111111111000001111111000001110011110000111111100000000000001111
1110000001110011110001111111111101010110111111100011111111100001111111
1100000111111111000001110111111000011111111100001110000111111111001111
1111110000111111111100011101111100011111111100000000000111111111000001
1101111100111111111111011101101111111001111000000000111100011110001111
0001111000011111001111001111000000000011100011110000000000111000000001
1110001111000111111111001111000000000000000011110001111000011111111101
1110001111100101110011011110111100000000011110000011110111100000111100
0111100001110011100000000000111000111000000000001110000000111100000111
1001111100000011100000000000000001111000001111000111110000011100000111
0001101110111111101110000000000111000000011101110000000111000111000001
1100111110000000001110001111100000000011100000001110000000111001111000
0000111110000000000000011100000001110001111000000111000001110001111010
1111111011100000000001110000000111011111111111110001110000011100011111
1100000011100001111111000000111000000011111111111110011100000000011111
1100000000000111000000011100011100000001110000011100010111101111111011
1000000000011100000001110111111111111100011100000111000011111111000011
1000001111111100001110000000111111111111100111000000000011111111000000
0001110000000111000111000000011110001111000111011011101110111000000000
0111000000011101110000000000000111000001110000000011111000111000000000
1111100011100000001110000000000001110000000000000011111000000001110000
0001110001110000000011111111100000110110111111101110000000000111000000
0111011100000000000001110000011100000000001110001110000000000011100011
1000000011100000000000011100000000000000001110000000011100000001110001
1100000000111111110000011111001111111011110000000001111000001111011110
0000000000011100000111000000000011100011100000000000111000111000000011
1100000000000111000000000000000011100000000111100000111100011100000000
1110000000000010111011111110011110000100001111000111100011110000110000
0111000001110001000001111000111000010000011110001111000000011110000110
0001110000000001000001111000111000111100011110000111000000001110000000
0001111010111111100111111111100001111111110000011111111110000111000001
1100111111111100001110001111111111000011111111000011111111110001110000
0000111111111100001110000111111111000001110000000011111111100001011110
1110111000011111110000001111111000000011111111000001110000011100011111
1110000011100001111111100000011111110000011111111000011100000000011111
1110000011100000111111100000011100000000011111111100011101101111111000
0000000000000000000000000000000000000000000000000000000000000000000000
0000000000000000000000000000000000000000000000000000000000000000000000
0000000000000000000000000000000000000111100011011011111110000000000000
0000000000000000000000000000000000000000000000000000000000000000000000
0000000000000000000000000000000000000000000000000000000000000000000000
0000000000000000000000000001111001111100111111100000000000000000000000
0000000000000000000000000000000000000000000000000000000000000000000000
0000000000000000000000000000000000000000000000000000000000000000000000
0000000000110000011110001011101111111000000000000000000000000000000000
0000000000000000000000000000000000000000000000000000000000000000000000
0000000000000000000000000000000000000000000000000000000000000000000000
1111111111000111101011111110000000000000000000000000000000000000000000
0000000000000000000000000000000000000000000000000000000000000000000000
0000000000000000000000000000000000000000000000000000000000001111111100
0001011110111011100000000000000000000000000000000000000000000000000000
0000000000000000000000000000000000000000000000000000000000000000000000
0000000000000000000000000000000000000000000000000000000000000001110110
1111111100000000000000000000000000000000000000000000000000000000000000
0000000000000000000000000000000000000000000000000000000000000000000000
0000000000000000000000000000000000000000000000000000101101101111111111
1111111111111111111110111011011011010101010101010101010010010010001000
0000000000000000000000000000000000000000000000000000000000010001001001
0010101010101010101010101101101101110111111111110011111111111111011101
1010101010111011011011010110110101010101010101010100101001010101010101
0100100100010000000000000010000100100101010101010001001001001010010010
1010101010110101101011010110101010101110111110111011111101111111111111
0101101101011010101010101010100100100100100100100100000000000000000001
0001010010010010001000000010000000001001001001001001010010101010101101
0110101101101110111101111111101111111111101111111011010101011101101011
1011011010110101010101010101010100100100101010101010101010000000000000
0000000000100100000101010010010010010101000101010010101010101011010101
1010110101110101011011111111111111011011111111111101110111010101101101
0101010101010100100100100100100100000000000000000100001001001000100010
0000010100000010001001001000101010101010101010101010101101101111011111
0111111100111111111111111111011011010101110111011011010101010101010101
0101010100100100100100101010101001001000010000000001000100001010000001
0100010010010010101001010010101010101011010101101101011010110110101110
1111101101101111111111101111110110101101101101101101010101010010100101
0101010010010000000000100000100001001000000000001000001001000010001000
1001001001001010101010101010101101101101011011011111011111000000000000
0000000000000000000000000000000000000000000000000000000000000000000000
0000000000000000000000000000000000000000000000000000000000000000000000
0000000000000000000000000000000000000000000000000000000000000000000000
0000000000000000000000000000000000000000000000000000000000000000000000
0000000000000000000000000000000000000000000000000000000000000000000000
0000000000000000000000000000000000000000000000000000000000000000000000
0000000000000000000000000000000000000000000000000000000000000000000000
0000000000000000000000000000000000000000000000000000000000000000000000
0000000000000000000000000000000000000000000000000000000000000000000000
0000000000000000000000000000000000000000000000000000000000000000000000
0000000000000000000000000000000000000000000000000000000000000000000000
0000000000000000000000000000000000000000000000000000000000000000000000
0000000000000000000000000000000000000000000000000000000000000000000000
0000000000000000000000000000000000000000000000000000000000000000000000
0000000000000000000000000000000000000000000000000000000000000000000000
0000000000000000000000000000000000000000000000000000000000000000000000
0000000000000000000000000000000000000000000000000000000000000000000000
0000000000000000000000000000000000000000000000000000000000000000000000
0000000000000000000000000000000000000000000000000000000000000000000000
0000000000000000000000000000000000000000000000000000000000000000000000
0000000000000000000000000000000000000000000000000000000000000000000000
0000000000000000000000000000000000000000000000000000000000000000000000
0000000000000000000000000000000000000000000000000000000000000000000000
0000000000000000000000000000000000000000000000000000000000000000000000
0000000000000000000000000000000000000000000000000000000000000000000000
0000000000000000000000000000000000000000000000000000000000000000000000
0000000000000000000000000000000000000000000000000000000000000000000000
0000000000000000000000000000000000000000000000000000000000000000000000
0000000000000000000000000000000000000000000000000000000000000000000000
0000000000000000000000000000000000000000000000000000000000000000000000
0000000000000000000000000000000000000000000000000000000000000000000000
0000000000000000000000000000000000000000000000000000000000000000000000
0000000000000000000000000000000000000000000000000000000000000000000000
0000000000000000000000000000000000000000000000000000000000000000000000
0000000000000000000000000000000000000000000000000000000000000000000000
0000000000000000000000000000000000000000000000000000000000000000000000
0000000000000000000000000000000000000000000000000000000000000000000000
0000000000000000000000000000000000000000000000000000000000000000000000
0000000000000000000000000000000000000000000000000000000000000000000000
0000000000000000000000000000000000000000000000000000000000000000000000
0000000000000000000000000000000000000000000000000000000000000000000000
0000000000000000000000000000000000000000000000000000000000000000000000
0000000000000000000000000000000000000000000000000000000000000000000000
0000000000000000000000000000000000000000000000000000000000000000000000
0000000000000000000000000000000000000000000000000000000000000000000000
0000000000000000000000000000000000000000000000000000000000000000000000
0000000000000000000000000000000000000000000000000000000000000000000000
0000000000000000000000000000000000000000000000000000000000000000000000
000000000000000000000000000000