P1
# CREATOR: GIMP PNM Filter Version 1.1
200 200
0000000000000000000000000000000000000000000000000000000000000000000000
0000000000000000000000000000000000000000000000000000000000000000000000
0000000000000000000000000000000000000000000000000000000000000000000000
0000000000000000000000000000000000000000000000000000000000000000000000
0000000000000000000000000000000000000000000000000000000000000000000000
0000000000000000000000000000000000000000000000000000000000000000000000
0000000000000000000000000000000000000000000000000000000000000000000000
0000000000000000000000000000000000000000000000000000000000000000000000
0000000000000000000000000000000000000000000000000000000000000000000000
0000000000000000000000000000000000000000000000000000000000000000000000
0000000000000000000000000000000000000000000000000000000000000000000000
0000000000000000000000000000000000000000000000000000000000000000000000
0000000000000000000000000000000000000000000000000000000000000000000000
0000000000000000000000000000000000000000000000000000000000000000000000
0000000000000000000000000000000000000000000000000000000000000000000000
0000000000000000000000000000000000000000000000000000000000000000000000
0000000000000000000000000000000000000000000000000000000000000000000000
0000000000000000000000000000000000000000000000000000000000000000000000
0000000000000000000000000000000000000000000000000000000000000000000000
0000000000000000000000000000000000000000000000000000000000000000000000
0000000000000000000000000000000000000000000000000000000000000000000000
0000000000000000000000000000000000000000000000000000000000000000000000
0000000000000000000000000000000000000000000000000000000000000000000000
0000000000000000000000000000000000000000000000000000000000000000000000
0000000000000000000000000000000000000000000000000000000000000000000000
0000000000000000000000000000000000000000000000000000000000000000000000
0000000000000000000000000000000000000000000000000000000000000000000000
0000000000000000000000000000000000000000000000000000000000000000000000
0000000000000000000000000000000000000000000000000000000000000000000000
0000000000000000000000000000000000000000000000000000000000000000000000
0000000000000000000000000000000000000000000000000000000000000000000000
0000000000000000000000000000000000000000000000000000000000000000000000
0000000000000000000000000000000000000000000000000000000000000000000000
0000000000000000000000000000000000000000000000000000000000000000000000
0000000000000000000000000000000000000000000000000000000000000000000000
0000000000000000000000000000000000000000000000000000000000000000000000
0000000000000000000000000000000000000000000000000000000000000000000000
0000000000000000000000000000000000000000000000000000000000000000000000
0000000000000000000000000000000000000000000000000000000000000000000000
0000000000000000000000000000000000000000000000000000000000000000000000
0000000000000000000000000000000000000000000000000000000000000000000000
0000000000000000000000000000000000000000000000000000000000000000000000
0000000000000000000000000000000000000000000000000000000000000000000000
0000000000000000000000000000000000000000000000000000000000000000000000
0000000000000000000000000000000000000000000000000000000100000000000000
0000000000000000100000000000000000100000000000000000000000000000000000
0000000000000000000000000000000000000000000000000000000000000000000000
0000000000000000000000000000000000000000000011111111111111100001111111
0000011111111111111100001111111111100000000000000000000000000000000000
0000000000000000000000000000000000000000000000000000000000000000000000
0000000000000000000000000000000000111111111111111000111111110000011111
1111111111000111111111111110000000000000000000000000000000000000000000
0000000000000000000000000000000000000000000000000000000000000000000000
0000000000000000000000001111111111111110000111111100000111111111111111
0001111111111111100000000000000000000000000000000000000000000000000000
0000000000000000000000000000000000000000000000000000000000000000000000
0000000000000011111111111111100011111111000001111111111111110001111111
1111111100000000000000000000000000000000000000000000000000000000000000
0000000000000000000000000000000000000000000000000000000000000000000000
0000000000001111000000000011110000000000000111100000000000000001111100
0000000000000000000000000000000000000000000000000000000000000000000000
0000000000000000000000000000000000000000000000000000000000000000000000
0011110000000000111100000000000001111000000000000000001111000000000000
0000000000000000000000000000000000000000000000000000000000000000000000
0000000000000000000000000000000000000000000000000000000000000011110000
0000001111000000000000011110000000000000000011110000000000000000000000
0000000000000000000000000000000000000000000000000000000000000000000000
0000000000000000000000000000000000000000000000000000111100000000001111
0000000000000111100000000000000000111100000000000000000000000000000000
0000000000000000000000000000000000000000000000000000000000000000000000
0000000000000000000000000000000000000000001111000000000011110000000000
0001111000000111100000001111000000000000000000000000000000000000000000
0000000000000000000000000000000000000000000000000000000000000000000000
0000000000000000000000000000000011110000000000111100000000000001111000
0001111000000011110000000000000000000000000000000000000000000000000000
0000000000000000000000000000000000000000000000000000000000000000000000
0000000000000000000000111100000000001111000000000000011110000001111000
0000111100000000000000000000000000000000000000000000000000000000000000
0000000000000000000000000000000000000000000000000000000000000000000000
0000000000001111000000000011110000000000000111100000011110000000111100
0000000000000000000000000000000000000000000000000000000000000000000000
0000000000000000000000000000000000000000000000000000000000000000000000
0011110000000000111100000000000001111000000111100000001111000000000000
0000000000000000000000000000000000000000000000000000000000000000000000
0000000000000000000000000000000000000000000000000000000000000011110000
0000001111000000000000011110000001111000000011110000000000000000000000
0000000000000000000000000000000000000000000000000000000000000000000000
0000000000000000000000000000000000000000000000000000111100000000001111
0000000000000111100000011110000000111100000000000000000000000000000000
0000000000000000000000000000000000000000000000000000000000000000000000
0000000000000000000000000000000000000000001111000000000011110000000000
0001111000000111100000001111000000000000000000000000000000000000000000
0000000000000000000000000000000000000000000000000000000000000000000000
0000000000000000000000000000000011110000000000111100000000000001111000
0001111000000011110000000000000000000000000000000000000000000000000000
0000000000000000000000000000000000000000000000000000000000000000000000
0000000000000000000000000000000000000000000000000000000000000000000000
0000000000000000000000000000000000000000000000000000000000000000000000
0000000000000000000000000000000000000000000000000000000000000000000000
0000000000000000000000000000000000000000000000000000000000000000000000
0000000000000000000000000000000000000000000000000000000000000000000000
0000000000000000000000000000000000000000000000000000000000000000000000
0000000000000000000000000000000000000000000000000000000000000000000000
0000000000000000000000000000000000000000000000000000000000000000000000
0000000000000000000000000000000000000000000000000000000000000000001111
0000000000000000000000000000000000000000000011110000000000000000000000
0000000000000000000000000000000000000000000000000000000000000000000000
0000000000000000000000000000000000000000000011111111111001110000000000
0000011111111110000000000000000000011100000000000000000000000000000000
0000000000000000000000000000000000000000000000000000000000000000000000
0000000000000000000000000000000000100011100110011100000000000000000111
0001111000000000000000000111000000000000000000000000000000000000000000
0000000000000000000000000000000000000000000000000000000000000000000000
0000000000000000000000001000111000100111000000000000000001110000111000
0000000000000001110000000000000000000000000000000000000000000000000000
0000000000000000000000000000000000000000000000000000000000000000000000
0000000000000010001110001001110111000001111000011100000111000011110000
0111111100000000000000000000000000000000000000000000000000000000000000
0000000000000000000000000000000000000000000000000000000000000000000000
0000000011100000011100111001110111000111000001110011101110000111011100
0000000000000000000000000000000000000000000000000000000000000000000000
0000000000000000000000000000000000000000000000000000000000000000000011
1000000111001110011101110001110000011100111001110011100111000000000000
0000000000000000000000000000000000000000000000000000000000000000000000
0000000000000000000000000000000000000000000000000000000000111000000111
0011100111011100011100000111001110011100111001110000000000000000000000
0000000000000000000000000000000000000000000000000000000000000000000000
0000000000000000000000000000000000000000000000001110000001110011100111
1111000111000001110011100111001110011100000000000000000000000000000000
0000000000000000000000000000000000000000000000000000000000000000000000
0000000000000000000000000000000000000011100000011100111001110000000111
0000011100111001110011100111000000000000000000000000000000000000000000
0000000000000000000000000000000000000000000000000000000000000000000000
0000000000000000000000000000111000000111001110011100000001110000111000
1110011100111001110000000000000000000000000000000000000000000000000000
0000000000000000000000000000000000000000000000000000000000000000000000
0000000000000000001110000001110011100011100000011100011110001110111000
1111011100000000000000000000000000000000000000000000000000000000000000
0000000000000000000000000000000000000000000000000000000000000000000000
0000001111111000111110111100111111011111111110000000111100000111111110
0000000000000000000000000000000000000000000000000000000000000000000000
0000000000000000000000000000000000000000000000000000000000000000000000
0000000000000000000000000000000000000000000000000000000000000000000000
0000000000000000000000000000000000000000000000000000000000000000000000
0000000000000000000000000000000000000000000000000000000000000000000000
0000000000000000000000000000000000000000000000000000000000000000000000
0000000000000000000000000000000000000000000000000000000000000000000000
0000000000000000000000000000000000000000000000000000000000000000000000
0000000000000000000000000000000000000000000000000000000000000000000000
0000000000000000000000000000000000000000000000000000000000000000000000
0000000000000000000000000000000000000000000000000000000000000000000000
0000000000000000000000000000000000000000000000000000000000000000000000
0000000000000000000000000000000000000000000000000000000000000000000000
0000000000000000000000000000000000000000000000000000000000000000000000
0000000000000000000000000000000000000000000000000000000000000000000000
0000000000000000000000000000000000000000000000000000000000000000000000
0000000000000000000000000000000000000000000000000000000000000000000000
0000000000000000000000000000000000000000000000000000000000000000000000
0000000000000000000000000000000000000000000000000000000000000000000000
0000000000000000000000000000000000000000000000000000000000000000000000
0000000000000000000000000000000000000000000000000000000000000000000000
0000000000000000000000000000000000000000000000000000000000000000000000
0000000000000000000000000000000000000000000000000000000000000000000000
0000000000000000000000000000000000000000000000000000000000000000000000
0000000000000000000000000000000000000000000000000000000000000000000000
0000000000000000000000000000000000000000000000000000000000000000000000
0000000000000000000000000000000000000000000000000000000000000000000000
0000000000000000000000000000000000000000000000000000000000000000000000
0000000000000000000000000000000000000000000000000000000000000000000000
0000000000000000000000000000000000000000000000000000000000000000000000
0000000000000000000000000000000000000000000000000000000000000000000000
0000000000000000000000000000000000000000000000000000000000000000000000
0000000000000000000000000000000000000000000000000000000000000000000000
0000000000000000000000000000000000000000000000000000000000000000000000
0000000000000000000000000000000000000000000000000000000000000000000000
0000000000000000000000000000000000000000000000000000000000000000000000
0000000000000000000000000000000000000000000000000000000000000000000000
0000000000000000000000000000000000000000000000000000000000000000000000
0000000000000000000000000000000000000000000000000000000000000000000000
0000000000000000000000000000000000000000000000000000000000000000000000
0000000000000000000000000000000000000000000000000000000000000000000000
0000000000000000000000000000000000000000000000000000000000000000000000
0000000000000000000000000000000000000000000000000000000000000000000000
0000000000000000000000000000000000000000000000000000000000000000000000
0000000000000000000000000000000000000000000000000000000000000000000000
0000000000000000000000000000000000000000000000000000000000000000000000
0000000000000000000000000000000000000000000000000000000000000000000000
0000000000000000000000000000000000000000000000000000000000000000000000
0000000000000000000000000000000000000000000000000000000000000000000000
0000000000000000000000000000000000000000000000000000000000000000000000
0000000000000000000000000000000000000000000000000000000000000000000000
0000000000000000000000000000000000000000000000000000000000000000000000
0000000000000000000000000000000000000000000000000000000000000000000000
0000000000000000000000000000000000000000000000000000000000000000000000
0000000000000000000000000000000000000000000000000000000000000000000000
0000000000000000000000000000000000000000000000000000000000000000000000
0000000000000000000000000000000000000000000000000000000000000000000000
0000000000000000000000000000000000000000000000000000000000000000000000
0000000000000000000000000000000000000000000000000000000000000000000000
0000000000000000000000000000000000000000000000000000000000000000000000
0000000000000000000000000000000000000000000000000000000000000000000000
0000000000000000000000000000000000000000000000000000000000000000000000
0000000000000000000000000000000000000000000000000000000000000000000000
0000000000000000000000000000000000000000000000000000000000000000000000
0000000000000000000000000000000000000000000000000000000000000000000000
0000000000000000000000000000000000000000000000000000000000000000000000
0000000000000000000000000000000000000000000000000000000000000000000000
0000000000000000000000000000000000000000000000000000000000000000000000
0000000000000000000000000000000000000000000000000000000000000000000000
0000000000000000000000000000000000000000000000000000000000000000000000
0000000000000000000000000000000000000000000000000000000000000000000000
0000000000000000000000000000000000000000000000000000000000000000000000
0000000000000000000000000000000000000000000000000000000000000000000000
0000000000000000000000000000000000000000000000000000000000000000000000
0000000000000000000000000000000000000000000000000000000000000000000000
0000000000000000000000000000000000000000000000000000000000000000000000
0000000000000000000000000000000000000000000000000000000000000000000000
0000000000000000000000000000000000000000000000000000000000000000000000
0000000000000000000000000000000000000000000000000000000000000000000000
0000000000000000000000000000000000000000000000000000000000000000000000
0000000000000000000000000000000000000000000000000000000000000000000000
0000000000000000000000000000000000000000000000000000000000000000000000
0000000000000000000000000000000000000000000000000000000000000000000000
0000000000000000000000000000000000000000000000000000000000000000000000
0000000000000000000000000000000000000000000000000000000000000000000000
0000000000000000000000000000000000000000000000000000000000000000000000
0000000000000000000000000000000000000000000000000000000000000000000000
0000000000000000000000000000000000000000000000000000000000000000000000
0000000000000000000000000000000000000000000000000000000000000000000000
0000000000000000000000000000000000000000000000000000000000000000000000
0000000000000000000000000000000000000000000000000000000000000000000000
0000000000000000000000000000000000000000000000000000000000000000000000
0000000000000000000000000000000000000000000000000000000000000000000000
0000000000000000000000000000000000000000000000000000000000000000000000
0000000000000000000000000000000000000000000000000000000000000000000000
0000000000000000000000000000000000000000000000000000000000000000000000
0000000000000000000000000000000000000000000000000000000000000000000000
0000000000000000000000000000000000000000000000000000000000000000000000
0000000000000000000000000000000000000000000000000000000000000000000000
0000000000000000000000000000000000000000000000000000000000000000000000
0000000000000000000000000000000000000000000000000000000000000000000000
0000000000000000000000000000000000000000000000000000000000000000000000
0000000000000000000000000000000000000000000000000000000000000000000000
0000000000000000000000000000000000000000000000000000000000000000000000
0000000000000000000000000000000000000000000000000000000000000000000000
0000000000000000000000000000000000000000000000000000000000000000000000
0000000000000000000000000000000000000000000000000000000000000000000000
0000000000000000000000000000000000000000000000000000000000000000000000
0000000000000000000000000000000000000000000000000000000000000000000000
0000000000000000000000000000000000000000000000000000000000000000000000
0000000000000000000000000000000000000000000000000000000000000000000000
0000000000000000000000000000000000000000000000000000000000000000000000
0000000000000000000000000000000000000000000000000000000000000000000000
0000000000000000000000000000000000000000000000000000000000000000000000
0000000000000000000000000000000000000000000000000000000000000000000000
0000000000000000000000000000000000000000000000000000000000000000000000
0000000000000000000000000000000000000000000000000000000000000000000000
0000000000000000000000000000000000000000000000000000000000000000000000
0000000000000000000000000000000000000000000000000000000000000000000000
0000000000000000000000000000000000000000000000000000000000000000000000
0000000000000000000000000000000000000000000000000000000000000000000000
0000000000000000000000000000000000000000000000000000000000000000000000
0000000000000000000000000000000000000000000000000000000000000000000000
0000000000000000000000000000000000000000000000000000000000000000000000
0000000000000000000000000000000000000000000000000000000000000000000000
0000000000000000000000000000000000000000000000000000000000000000000000
0000000000000000000000000000000000000000000000000000000000000000000000
0000000000000000000000000000000000000000000000000000000000000000000000
0000000000000000000000000000000000000000000000000000000000000000000000
0000000000000000000000000000000000000000000000000000000000000000000000
0000000000000000000000000000000000000000000000000000000000000000000000
0000000000000000000000000000000000000000000000000000000000000000000000
0000000000000000000000000000000000000000000000000000000000000000000000
0000000000000000000000000000000000000000000000000000000000000000000000
0000000000000000000000000000000000000000000000000000000000000000000000
0000000000000000000000000000000000000000000000000000000000000000000000
0000000000000000000000000000000000000000000000000000000000000000000000
0000000000000000000000000000000000000000000000000000000000000000000000
0000000000000000000000000000000000000000000000000000000000000000000000
0000000000000000000000000000000000000000000000000000000000000000000000
0000000000000000000000000000000000000000000000000000000000000000000000
0000000000000000000000000000000000000000000000000000000000000000000000
0000000000000000000000000000000000000000000000000000000000000000000000
0000000000000000000000000000000000000000000000000000000000000000000000
0000000000000000000000000000000000000000000000000000000000000000000000
0000000000000000000000000000000000000000000000000000000000000000000000
0000000000000000000000000000000000000000000000000000000000000000000000
0000000000000000000000000000000000000000000000000000000000000000000000
0000000000000000000000000000000000000000000000000000000000000000000000
0000000000000000000000000000000000000000000000000000000000000000000000
0000000000000000000000000000000000000000000000000000000000000000000000
0000000000000000000000000000000000000000000000000000000000000000000000
0000000000000000000000000000000000000000000000000000000000000000000000
0000000000000000000000000000000000000000000000000000000000000000000000
0000000000000000000000000000000000000000000000000000000000000000000000
0000000000000000000000000000000000000000000000000000000000000000000000
0000000000000000000000000000000000000000000000000000000000000000000000
0000000000000000000000000000000000000000000000000000000000000000000000
0000000000000000000000000000000000000000000000000000000000000000000000
0000000000000000000000000000000000000000000000000000000000000000000000
0000000000000000000000000000000000000000000000000000000000000000000000
0000000000000000000000000000000000000000000000000000000000000000000000
0000000000000000000000000000000000000000000000000000000000000000000000
0000000000000000000000000000000000000000000000000000000000000000000000
0000000000000000000000000000000000000000000000000000000000000000000000
0000000000000000000000000000000000000000000000000000000000000000000000
0000000000000000000000000000000000000000000000000000000000000000000000
0000000000000000000000000000000000000000000000000000000000000000000000
0000000000000000000000000000000000000000000000000000000000000000000000
0000000000000000000000000000000000000000000000000000000000000000000000
0000000000000000000000000000000000000000000000000000000000000000000000
0000000000000000000000000000000000000000000000000000000000000000000000
0000000000000000000000000000000000000000000000000000000000000000000000
0000000000000000000000000000000000000000000000000000000000000000000000
0000000000000000000000000000000000000000000000000000000000000000000000
0000000000000000000000000000000000000000000000000000000000000000000000
0000000000000000000000000000000000000000000000000000000000000000000000
0000000000000000000000000000000000000000000000000000000000000000000000
0000000000000000000000000000000000000000000000000000000000000000000000
0000000000000000000000000000000000000000000000000000000000000000000000
0000000000000000000000000000000000000000000000000000000000000000000000
0000000000000000000000000000000000000000000000000000000000000000000000
0000000000000000000000000000000000000000000000000000000000000000000000
0000000000000000000000000000000000000000000000000000000000000000000000
0000000000000000000000000000000000000000000000000000000000000000000000
0000000000000000000000000000000000000000000000000000000000000000000000
0000000000000000000000000000000000000000000000000000000000000000000000
0000000000000000000000000000000000000000000000000000000000000000000000
0000000000000000000000000000000000000000000000000000000000000000000000
0000000000000000000000000000000000000000000000000000000000000000000000
0000000000000000000000000000000000000000000000000000000000000000000000
0000000000000000000000000000000000000000000000000000000000000000000000
0000000000000000000000000000000000000000000000000000000000000000000000
0000000000000000000000000000000000000000000000000000000000000000000000
0000000000000000000000000000000000000000000000000000000000000000000000
0000000000000000000000000000000000000000000000000000000000000000000000
0000000000000000000000000000000000000000000000000000000000000000000000
0000000000000000000000000000000000000000000000000000000000000000000000
0000000000000000000000000000000000000000000000000000000000000000000000
0000000000000000000000000000000000000000000000000000000000000000000000
0000000000000000000000000000000000000000000000000000000000000000000000
0000000000000000000000000000000000000000000000000000000000000000000000
0000000000000000000000000000000000000000000000000000000000000000000000
0000000000000000000000000000000000000000000000000000000000000000000000
0000000000000000000000000000000000000000000000000000000000000000000000
0000000000000000000000000000000000000000000000000000000000000000000000
0000000000000000000000000000000000000000000000000000000000000000000000
0000000000000000000000000000000000000000000000000000000000000000000000
0000000000000000000000000000000000000000000000000000000000000000000000
0000000000000000000000000000000000000000000000000000000000000000000000
0000000000000000000000000000000000000000000000000000000000000000000000
0000000000000000000000000000000000000000000000000000000000000000000000
0000000000000000000000000000000000000000000000000000000000000000000000
0000000000000000000000000000000000000000000000000000000000000000000000
0000000000000000000000000000000000000000000000000000000000000000000000
0000000000000000000000000000000000000000000000000000000000000000000000
0000000000000000000000000000000000000000000000000000000000000000000000
0000000000000000000000000000000000000000000000000000000000000000000000
0000000000000000000000000000000000000000000000000000000000000000000000
0000000000000000000000000000000000000000000000000000000000000000000000
0000000000000000000000000000000000000000000000000000000000000000000000
0000000000000000000000000000000000000000000000000000000000000000000000
0000000000000000000000000000000000000000000000000000000000000000000000
0000000000000000000000000000000000000000000000000000000000000000000000
0000000000000000000000000000000000000000000000000000000000000000000000
0000000000000000000000000000000000000000000000000000000000000000000000
0000000000000000000000000000000000000000000000000000000000000000000000
0000000000000000000000000000000000000000000000000000000000000000000000
0000000000000000000000000000000000000000000000000000000000000000000000
0000000000000000000000000000000000000000000000000000000000000000000000
0000000000000000000000000000000000000000000000000000000000000000000000
0000000000000000000000000000000000000000000000000000000000000000000000
0000000000000000000000000000000000000000000000000000000000000000000000
0000000000000000000000000000000000000000000000000000000000000000000000
0000000000000000000000000000000000000000000000000000000000000000000000
0000000000000000000000000000000000000000000000000000000000000000000000
0000000000000000000000000000000000000000000000000000000000000000000000
0000000000000000000000000001111110000000000000000000000000000000111111
0000000000000000000000000110000000000000000001100110000000000000000000
0000000000000000000000000000000000000000000000000000000000000000000000
0000000000000000011000111000000000000000000000000000001111111000000000
0000000000000001100000000000000000011001100000000000000000000000000000
0000000000000000000000000000000000000000000000000000000000000000000000
0000001100000011000000000000000000000000000011001110000000000000000000
0000011000000000000000000110000000000000000000000000000000000000000000
0000000000000000000000000000000000000000000000000000000000000000001100
0000011100000000000000000000000000110001100000111000011011000011111000
0111100011011001100110011011100000111100000000000000000000000000000000
0000000000000000000000000000000000000000000000000000000011000000000111
0000000000000000000000001111110000011111100111110001111110001111100011
1110011001100111111100011111000000000000000000000000000000000000000000
0000000000000000000000000000000000000000000000110000000000111000000000
0000000000000011111110001110111001110000111001100110011100111000011001
1001110011001100111000000000000000000000000000000000001011101000000000
0000000000000000000000000000000000001100000000000111100000000000000000
0000110001110011000110011000001100111001111111001100000110011001100011
0011111110000000000000000000000000000000111111111111110000000000000000
0000000000000000000000000001000000000001111100000000000000000000110000
1100110001100110000011000110011111110011000001100110011000110011111110
0000000000000000000000000000111111111111111111100000000000000000000000
0000000000000000011000000000001111100000000000000000001100011100111011
1001100000111011100110001000110000011001100110001100110001000000000000
0000000000000000111111111111111111111100000000000000000000000000000000
0000000111111011000001111110000000000000000011111111000111110001100000
1111111001111110001100000110011001100011001111110000000000000000000000
0000111111111111011101111011110000000000000000000000000000000000000011
1111111111101111110000000000000000111111100001111100011000000111111000
1111100011000001100110011000110001111100000000000000000000000001111111
0111011111110111111110000000000000000000000000000000000000111111111111
1111011110000000000000000000000000000000000000000000000000000000000000
0000000000000000000000000000000000000000000000000001111111111111111111
1111101101110000000000000000000000000000000000000111111110111111100111
0000000000000011000000000000000110000000000000000000000000000110000000
0000000000011000000000000000000000000000111110111111111101101110111111
1110000000000000000000000000000000000001111111000000111110111100000000
0000110000000000000001100000000000000000000000000001100000000000000000
0110000000000000000000000000010111111110110111111111111110110111000000
0000000000000000000000000000001111100000001111100111100000000000111000
0000000000011000000000000000000000000000111000000000000000000111000000
0000000000000000001111111111111111110111011101111111111000000000000000
0000000000000000000001111000000011111100011100000000001101110000111100
0110111000001111000110110000111110001111000011110001101110000011110001
1011000011110111011111011111111111111011101111000000000000000000000000
0000000000111100000011111111100111110000000011111110001111100111111100
0111110001111100011111100011111001111100011111110001111100011111000111
1111111111111111011101110111101111010000000000000000000000000000000000
1110100001111111101100011110000000111001100010011001110111001100111001
1100001110011000100110011000000111001100110011100111000011111111111110
1111111111101111111111111110000000000000000000000000000000011100100001
0111110001100011110000001100011000111110011000110011111110011000001100
1110001111100111110001100011001111111001100000111101101101111101111011
1111101111011111110000000000000000000000000000001110000010011111110000
1110011110000011000110011111100110001100111111100110000011000110011111
1000111110011000110011111110011000011111111111111111111111111111110111
1111111100000000000000000000000000000111010000001111111000000010000111
0000110001100110111001100111001100010001100000111011100110111000001110
0110001100110001000110000111111111111110111011111101111111111011011111
0000000000000000000000000011110001001011111100000000111000111100110001
1001111110011111100011111100011000001111111001111110011111100110001100
1111110001100001011111111111111111110111110111111111111101110000000000
0000000000000000111010000001111110000000000011001111101100011001111110
0111110000011111000110000001111110011111100111110001100011000111110001
1000011110110110111111111111111111110110110111111100000000000000000000
0000011101000100111111000000000000011000111100000000000000000000000000
0000000000000000000000000000000000000000000000000000000000000000111111
1111111110110111101111111111111111011011000000000000000000000000111010
0100010111110000000000000001100011100000000000000000000000000000000000
0000000000000000000000000000000000000000000000000000000111111111111111
1111111111011011111101111111110000000000000000000000011101010000111111
1000000000000000100111011100000000000000000000000000000000000000000000
0000000000000000000000000000000000000000000001111111111011111111111111
1111110111101110111100000000000000000000001111000001001011110000001100
0001110010111101110000000000000000000000000000000000000000000000000000
0000000000000000000000000000000000011110111111111111011111111111011111
1111111101100000000000000000000111111000000111111100000100101011000010
0011111110000000000000000000000000000000000000000000000000000000000000
0000000000000000000000000111111011111101111111011011111111111111111111
1100000000000000000011110100010011011110000001110001100001001100111111
0000000000000000000000000000000000000000000000000000000000000000000000
0000000000000011111111111111111111111111111111101110110111101100000000
0000000001111000000001011111100001111000010001100110000011111000000000
0000000000000000000000000000000000000000000000000000000000000000000000
0000011111111101111111101111111011111111111111111110000000000000000001
1100010000111011110000000000001101100011000000001111100000000000000000
0000000000000000000000000000000000000000000000000000000000000000111111
1111111101111111111111101111011111111111100000000000000000111010000010
0111111100000000100000111011000000010001111100000000000000000000000000
0000000000000000000000000000000000000000000000000000011110110111111111
0111101101111111111111111101111000000000000000011110100010011111111000
0000000100000001100000001100000111100000000000000000000000000000000000
0000000000000000000000000000000000000000000111111111110111111111111111
1111111111011011111111000000000000001111000000011111111100000000011001
0011000000000010000000011100000000000000000000000000000000000000000000
0000000000000000000000000000000000111111111111111111111111111111101111
1111111011110000000000000111100100000111111110000000000100111100000000
0001000000000011100000000000000000000000000000000000000000000000000000
0000000000000000000000001111110111110111011111111011011111111111111111
1100000000000011100000000011111110000000001100010101000000000001101010
0000011100000000000000000000000000000000000000000000000000000000000000
0000000000000000111111111111111101101111111111111111101111111110000000
0001111001000011101111100000000100101000110100000000100100110100001110
0000000000000000000000000000000000000000000000000000000000000000000000
0000111111111111111111111111111111110110111111111111000000000011111111
0100011111111011000000001010000110011000001011000110100001100000000000
0000000000000000000000000000000000000000000000000000000000000000110111
1101110111111111111111101111111111111101111000000001111111111101111111
1110011110001001010011011001000101111110101001110000000000000000000000
0000000000000000000000000000000000000000000000000000011111101111111110
1110110110111111111111101101111110000000011111111111111011111000000001
1000011010011101000000000000111111111100000000000000000000000000000000
0000000000000000000000000000000000000000000111111111111111111111111111
1111101111011111111111110000000011111111100111011110001001001100110100
0100011000100000000000000000000000000000000000000000000000000000000000
0000000000000000000000000000000001110110111011111111111111110111111111
1111111111011100000000111111111110011111110000000000110010000100000000
0000000000000000000000000000000000000000000000000000000000000000000000
0000000000000000000000011111110111110110110111011111111101111111111011
1111000000000111111111100000110010010000000011000011101000000000000000
0000000000000000000000000000000000000000000000000000000000000000000000
0000000000000111111010111111111111111111111111111110110101110111000000
0001111111111100000010000000000000011000010111000000000000000000000000
0000000000000000000000000000000000000000000000000000000000000000000000
0001101111010010111111111111010101010101101010101111110000000000111111
1111000000111001000000000011000110000000000000000000000000000000000000
0000000000000000000000000000000000000000000000000000000000000011111110
1010101000100000010101010101001010101011011100000000000110111111110000
0001100000000000001011100000000000000000000000000000000000000000000000
0000000000000000000000000000000000000000000000000000111111111101010100
1010100100001001001001010101111111000000000000111111111110011101110000
0000000001100000010000000000000000000000000000000000000000000000000000
0000000000000000000000000000000000000000001101101100101010100000000001
0001001001001010111011100000000000000100111111110000000110000000000000
1100000000000000000000000000000000000000000000000000000000000000000000
0000000000000000000000000000000111111111110100100010101010001000000100
1010100111111000000000000001100001111101011011011000000000000110001000
0000000000000000000000000000000000000000000000000000000000000000000000
0000000000000000000001111111010101010101000000001000101000100010110111
1100000000000000001100001111110000001011000000000000110100000000000000
0000000000000000000000000000000000000000000000000000000000000000000000
0000000000011111111101101001001010010000000001000100100101101100000000
0000000000110100111100101001011000000000000111000000000000000000000000
0000000000000000000000000000000000000000000000000000000000000000000000
1110111111101010100100001001101000000100100110111100000000000000000000
0101101001100000010011000000000101110000000000000000000000000000000000
0000000000000000000000000000000000000000000000000000000000001111111111
1011010100010000111000101001000100101110000000000000000000000110000101
1110000001001100000000101000000000000000000000000000000000000000000000
0000000000000000000000000000000000000000000000000011110111111101010101
0010010001000000001010110111100000000000000000000000011010100111111010
0001100000001110000000000000000000000000000000000000000000000000000000
0000000000000000000000000000000000000000111111111111110101010010001000
0100101000100101111100000000000000000000000011000010111110000100100000
0111000000000000000000000000000000000000000000000000000000000000000000
0000000000000000000000000000001111101111111011010101001000100001100101
0110111110000000000000000000000000011110101111111100100110010011000000
0000000000000000000000000000000000000000000000000000000000000000000000
0000000000000000000010111111111111110101001111101111110100101011111111
0000000000000000000000000001110100111111110000100010100000000000000000
0000000000000000000000000000000000000000000000000000000000000000000000
0000000000011111011111111110101000000100000000101011111101100000000000
0000000000000000001110000011111111111110011000000000000000000000000000
0000000000000000000000000000000000000000000000000000000000000000000000
0001111101110111111111010100110100101010111111111000000000000000000000
0000000000111000111111111111110110000000000000000000000000000000000000
0000000000000000000000000000000000000000000000000000000000000000111111
1111000000011101010000101111111101111000000000000000000000000000000000
0011100111111111111101100000000000000000000000000000000000000000000000
0000000000000000000000000000000000000000000000000000000001100100000000
0000011111111101111111111110000000000000000000000000000000000000110011
1111111111110000000000000000000000000000000000000000000000000000000000
0000000000000000000000000000000000000000000000000000100000000000110101
0111111111111101000000000000000000000000000000000000000011111111111111
1100000000000000000000000000000000000000000000000000000000000000000000
0000000000000000000000000000000000000000001000000000001110101110000001
1111000000000000000000000000000000000000000000000111111111111100000000
0000000000000000000000000000000000000000000000000000000000000000000000
0000000000000000000000000000000000000000000011111111000000000000000000
0000000000000000000000000000000000000000001111111110000000000000000000
0000000000000000000000000000000000000000000000000000000000000000000000
0000000000000000000000010000000000111111111100000000100000000000000000
0000000000000000000000000000000000000100000000000000000000000000000000
0000000000000000000000000000000000000000000000000000000000000000000000
0000000000000000000001111111011111000000000000000000000000000000000000
0000000000000000000000000000000000000000000000000000000000000000000000
0000000000000000000000000000000000000000000000000000000000000000000000
0000000000000000000000000000000000000000000000000000000000000000000000
0000000000000000000000000000000000000000000000000000000000000000000000
0000000000000000000000000000000000000000000000000000000000000000000000
0000000000000000000000000000000000000000000000000000000000000000000000
0000000000000000000000000000000000000000000000000000000000000000000000
0000000000000000000000000000000000000000000000000000000000000000000000
000000000000000000000000000000