P1
# CREATOR: GIMP PNM Filter Version 1.1
200 200
0000000000000000000000000000000000000000000000000000000000000000000000
0000000000000000000000000000000000000000000000000000000000000000000000
0000000000000000000000000000000000000000000000000000000000000000000000
0000000000000000000000000000000000000000000000000000000000000000000000
0000000000000000000000000000000000000000000000000000000000000000000000
0000000000000000000000000000000000000000000000000000000000000000000000
0000000000000000000000000000000000000000000000000000000000000000000000
0000000000000000000000000000000000000000000000000000000000000000000000
0000000000000000000000000000000000000000000000000000000000000000000000
0000000000000000000000000000000000000000000000000000000000000000000000
0000000000000000000000000000000000000000000000000000000000000000000000
0000000000000000000000000000000000000000000000000000000000000000000000
0000000000000000000000000000000000000000000000000000000000000000000000
0000000000000000000000000000000000000000000000000000000000000000000000
0000000000000000000000000000000000000000000000000000000000000000000000
0000000000000000000000000000000000000000000000000000000000000000000000
0000000000000000000000000000000000000000000000000000000000000000000000
0000000000000000000000000000000000000000000000000000000000000000000000
0000000000000000000000000000000000000000000000000000000000000000000000
0000000000000000000000000000000000000000000000000000000000000000000000
0000000000000000000000000000000000000000000000000000000000000000000000
0000000000000000000000000000000000000000000000000000000000000000000000
0000000000000000000000000000000000000000000000000000000000000000000000
0000000000000000000000000000000000000000000000000000000000000000000000
0000000000000000000000000000000000000000000000000000000000000000000000
0000000000000000000000000000000000000000000000000000000000000000000000
0000000000000000000000000000000000000000000000000000000000000000000000
0000000000000000000000000000000000000000000000000000000000000000000000
0000000000000000000000000000000000000000000000000000000000000000000000
0000000000000000000000000000000000000000000000000000000000000000000000
0000000000000000000000000000000000000000000000000000000000000000000000
0000000000000000000000000000000000000000000000000000000000000000000000
0000000000000000000000000000000000000000000000000000000000000000000000
0000000000000000000000000000000000000000000000000000000000000000000000
0000000000000000000000000000000000000000000000000000000000000000000000
0000000000000000000000000000000000000000000000000000000000000000000000
0000000000000000000000000000000000000000000000000000000000000000000000
0000000000000000000000000000000000000000000000000000000000000000000000
0000000000000000000000000000000000000000000000000000000000000000000000
0000000000000000000000000000000000000000000000000000000000000000000000
0000000000000000000000000000000000000000000000000000000000000000000000
0000000000000000000000000000000000000000000000000000000000000000000000
0000000000000000000000000000000000000000000000000000000000000000000000
0000000000000000000000000000000000000000000000000000000000000000000000
0000000000000000000000000000000000000000000000000000000000000000000000
0000000000000000000000000000000000000000000000000000000000000000001111
1111111111111111111111110000000011110000000011111111111111110000000011
1111111111111111111111111100000000000000000000000000000000000000000000
0000000000000000000000000000000000000000000000000000000011111111111111
1111111111111100000000111100000000111111111111111100000000111111111111
1111111111111111000000000000000000000000000000000000000000000000000000
0000000000000000000000000000000000000000000000111111111111111111111111
1111000000001111000000001111111111111111000000001111111111111111111111
1111110000000000000000000000000000000000000000000000000000000000000000
0000000000000000000000000000000000001111111111111111111111111111000000
0011110000000011111111111111110000000011111111111111111111111111110000
0000000000000000000000000000000000000000000000000000000000000000000000
0000000000000000000000000011110000000000000000000011110000000000001111
1111111111110000111111110000111100000000000000000000111100000000000000
0000000000000000000000000000000000000000000000000000000000000000000000
0000000000000000111100000000000000000000111100000000000011111111111111
1100001111111100001111000000000000000000001111000000000000000000000000
0000000000000000000000000000000000000000000000000000000000000000000000
0000001111000000000000000000001111000000000000111111111111111100001111
1111000011110000000000000000000011110000000000000000000000000000000000
0000000000000000000000000000000000000000000000000000000000000000001111
0000000000000000000011110000000000001111111111111111000011111111000011
1100000000000000000000111100000000000000000000000000000000000000000000
0000000000000000000000000000000000000000000000000000000011110000111111
1111110000111100001111111111110000111100000000111100000000111100001111
1111111100001111000000000000000000000000000000000000000000000000000000
0000000000000000000000000000000000000000000000111100001111111111110000
1111000011111111111100001111000000001111000000001111000011111111111100
0011110000000000000000000000000000000000000000000000000000000000000000
0000000000000000000000000000000000001111000011111111111100001111000011
1111111111000011110000000011110000000011110000111111111111000011110000
0000000000000000000000000000000000000000000000000000000000000000000000
0000000000000000000000000011110000111111111111000011110000111111111111
0000111100000000111100000000111100001111111111110000111100000000000000
0000000000000000000000000000000000000000000000000000000000000000000000
0000000000000000111100001111111111110000111100000000111111111111000000
0011111111000000001111000011111111111100001111000000000000000000000000
0000000000000000000000000000000000000000000000000000000000000000000000
0000001111000011111111111100001111000000001111111111110000000011111111
0000000011110000111111111111000011110000000000000000000000000000000000
0000000000000000000000000000000000000000000000000000000000000000001111
0000111111111111000011110000000011111111111100000000111111110000000011
1100001111111111110000111100000000000000000000000000000000000000000000
0000000000000000000000000000000000000000000000000000000011110000111111
1111110000111100000000111111111111000000001111111100000000111100001111
1111111100001111000000000000000000000000000000000000000000000000000000
0000000000000000000000000000000000000000000000111100001111111111110000
1111000000000000111100000000000000001111000000001111000011111111111100
0011110000000000000000000000000000000000000000000000000000000000000000
0000000000000000000000000000000000001111000011111111111100001111000000
0000001111000000000000000011110000000011110000111111111111000011110000
0000000000000000000000000000000000000000000000000000000000000000000000
0000000000000000000000000011110000111111111111000011110000000000001111
0000000000000000111100000000111100001111111111110000111100000000000000
0000000000000000000000000000000000000000000000000000000000000000000000
0000000000000000111100001111111111110000111100000000000011110000000000
0000001111000000001111000011111111111100001111000000000000000000000000
0000000000000000000000000000000000000000000000000000000000000000000000
0000001111000000000000000000001111000000001111000000000000111111111111
0000000011110000000000000000000011110000000000000000000000000000000000
0000000000000000000000000000000000000000000000000000000000000000001111
0000000000000000000011110000000011110000000000001111111111110000000011
1100000000000000000000111100000000000000000000000000000000000000000000
0000000000000000000000000000000000000000000000000000000011110000000000
0000000000111100000000111100000000000011111111111100000000111100000000
0000000000001111000000000000000000000000000000000000000000000000000000
0000000000000000000000000000000000000000000000111100000000000000000000
1111000000001111000000000000111111111111000000001111000000000000000000
0011110000000000000000000000000000000000000000000000000000000000000000
0000000000000000000000000000000000001111111111111111111111111111000011
1100001111000011110000111100001111000011111111111111111111111111110000
0000000000000000000000000000000000000000000000000000000000000000000000
0000000000000000000000000011111111111111111111111111110000111100001111
0000111100001111000011110000111111111111111111111111111100000000000000
0000000000000000000000000000000000000000000000000000000000000000000000
0000000000000000111111111111111111111111111100001111000011110000111100
0011110000111100001111111111111111111111111111000000000000000000000000
0000000000000000000000000000000000000000000000000000000000000000000000
0000001111111111111111111111111111000011110000111100001111000011110000
1111000011111111111111111111111111110000000000000000000000000000000000
0000000000000000000000000000000000000000000000000000000000000000000000
0000000000000000000000000000111111111111000011111111000000001111000000
0000000000000000000000000000000000000000000000000000000000000000000000
0000000000000000000000000000000000000000000000000000000000000000000000
0000000000000000001111111111110000111111110000000011110000000000000000
0000000000000000000000000000000000000000000000000000000000000000000000
0000000000000000000000000000000000000000000000000000000000000000000000
0000000011111111111100001111111100000000111100000000000000000000000000
0000000000000000000000000000000000000000000000000000000000000000000000
0000000000000000000000000000000000000000000000000000000000000000000011
1111111111000011111111000000001111000000000000000000000000000000000000
0000000000000000000000000000000000000000000000000000000000000000000000
0000000000000000000000000011111111111100001111111111111111111100001111
1111000011110000111111111111111100000000000011110000000000000000000000
0000000000000000000000000000000000000000000000000000000000000000000000
0000000000000000111111111111000011111111111111111111000011111111000011
1100001111111111111111000000000000111100000000000000000000000000000000
0000000000000000000000000000000000000000000000000000000000000000000000
0000001111111111110000111111111111111111110000111111110000111100001111
1111111111110000000000001111000000000000000000000000000000000000000000
0000000000000000000000000000000000000000000000000000000000000000001111
1111111100001111111111111111111100001111111100001111000011111111111111
1100000000000011110000000000000000000000000000000000000000000000000000
0000000000000000000000000000000000000000000000000000000011110000111100
0011110000000011111111000011111111000000000000000000001111111100000000
0000000000001111000000000000000000000000000000000000000000000000000000
0000000000000000000000000000000000000000000000111100001111000011110000
0000111111110000111111110000000000000000000011111111000000000000000000
0011110000000000000000000000000000000000000000000000000000000000000000
0000000000000000000000000000000000001111000011110000111100000000111111
1100001111111100000000000000000000111111110000000000000000000011110000
0000000000000000000000000000000000000000000000000000000000000000000000
0000000000000000000000000011110000111100001111000000001111111100001111
1111000000000000000000001111111100000000000000000000111100000000000000
0000000000000000000000000000000000000000000000000000000000000000000000
0000000000000000000000001111111100001111111111110000111100000000000000
0011110000111100000000000011110000111111111111000000000000000000000000
0000000000000000000000000000000000000000000000000000000000000000000000
0000000000000011111111000011111111111100001111000000000000000011110000
1111000000000000111100001111111111110000000000000000000000000000000000
0000000000000000000000000000000000000000000000000000000000000000000000
0000111111110000111111111111000011110000000000000000111100001111000000
0000001111000011111111111100000000000000000000000000000000000000000000
0000000000000000000000000000000000000000000000000000000000000000111111
1100001111111111110000111100000000000000001111000011110000000000001111
0000111111111111000000000000000000000000000000000000000000000000000000
0000000000000000000000000000000000000000000000000011111111000011110000
0000000011110000000011110000111100001111111111110000000000000000000011
1100000000000000000000000000000000000000000000000000000000000000000000
0000000000000000000000000000000000000000111111110000111100000000000011
1100000000111100001111000011111111111100000000000000000000111100000000
0000000000000000000000000000000000000000000000000000000000000000000000
0000000000000000000000000000001111111100001111000000000000111100000000
1111000011110000111111111111000000000000000000001111000000000000000000
0000000000000000000000000000000000000000000000000000000000000000000000
0000000000000000000011111111000011110000000000001111000000001111000011
1100001111111111110000000000000000000011110000000000000000000000000000
0000000000000000000000000000000000000000000000000000000000000000000000
0000001111000011110000000011111111000011110000000000001111111100000000
1111111111111111000011110000111111110000000000000000000000000000000000
0000000000000000000000000000000000000000000000000000000000000000001111
0000111100000000111111110000111100000000000011111111000000001111111111
1111110000111100001111111100000000000000000000000000000000000000000000
0000000000000000000000000000000000000000000000000000000011110000111100
0000001111111100001111000000000000111111110000000011111111111111110000
1111000011111111000000000000000000000000000000000000000000000000000000
0000000000000000000000000000000000000000000000111100001111000000001111
1111000011110000000000001111111100000000111111111111111100001111000011
1111110000000000000000000000000000000000000000000000000000000000000000
0000000000000000000000000000000000000000111111111111111100000000000011
1100000000111111111111111100001111111111110000000011110000000011110000
0000000000000000000000000000000000000000000000000000000000000000000000
0000000000000000000000000000001111111111111111000000000000111100000000
1111111111111111000011111111111100000000111100000000111100000000000000
0000000000000000000000000000000000000000000000000000000000000000000000
0000000000000000000011111111111111110000000000001111000000001111111111
1111110000111111111111000000001111000000001111000000000000000000000000
0000000000000000000000000000000000000000000000000000000000000000000000
0000000000111111111111111100000000000011110000000011111111111111110000
1111111111110000000011110000000011110000000000000000000000000000000000
0000000000000000000000000000000000000000000000000000000000000000001111
0000000000001111000011110000111100000000111111110000000000000000111111
1111110000000011111111111100000000000000000000000000000000000000000000
0000000000000000000000000000000000000000000000000000000011110000000000
0011110000111100001111000000001111111100000000000000001111111111110000
0000111111111111000000000000000000000000000000000000000000000000000000
0000000000000000000000000000000000000000000000111100000000000011110000
1111000011110000000011111111000000000000000011111111111100000000111111
1111110000000000000000000000000000000000000000000000000000000000000000
0000000000000000000000000000000000001111000000000000111100001111000011
1100000000111111110000000000000000111111111111000000001111111111110000
0000000000000000000000000000000000000000000000000000000000000000000000
0000000000000000000000000000001111000011111111000000001111000011110000
0000111111111111000011110000000000001111000000001111000000000000000000
0000000000000000000000000000000000000000000000000000000000000000000000
0000000000000000000011110000111111110000000011110000111100000000111111
1111110000111100000000000011110000000011110000000000000000000000000000
0000000000000000000000000000000000000000000000000000000000000000000000
0000000000111100001111111100000000111100001111000000001111111111110000
1111000000000000111100000000111100000000000000000000000000000000000000
0000000000000000000000000000000000000000000000000000000000000000000000
1111000011111111000000001111000011110000000011111111111100001111000000
0000001111000000001111000000000000000000000000000000000000000000000000
0000000000000000000000000000000000000000000000000000000011110000111111
1100001111111100000000111111111111111111110000111111111111111111111111
1111000000000000000000000000000000000000000000000000000000000000000000
0000000000000000000000000000000000000000000000111100001111111100001111
1111000000001111111111111111111100001111111111111111111111111111000000
0000000000000000000000000000000000000000000000000000000000000000000000
0000000000000000000000000000000000001111000011111111000011111111000000
0011111111111111111111000011111111111111111111111111110000000000000000
0000000000000000000000000000000000000000000000000000000000000000000000
0000000000000000000000000011110000111111110000111111110000000011111111
1111111111110000111111111111111111111111111100000000000000000000000000
0000000000000000000000000000000000000000000000000000000000000000000000
0000000000000000000000000000000000000000000000001111000000001111000011
1100001111111100000000000011111111000011111111000000000000000000000000
0000000000000000000000000000000000000000000000000000000000000000000000
0000000000000000000000000000000000000011110000000011110000111100001111
1111000000000000111111110000111111110000000000000000000000000000000000
0000000000000000000000000000000000000000000000000000000000000000000000
0000000000000000000000000000111100000000111100001111000011111111000000
0000001111111100001111111100000000000000000000000000000000000000000000
0000000000000000000000000000000000000000000000000000000000000000000000
0000000000000000001111000000001111000011110000111111110000000000001111
1111000011111111000000000000000000000000000000000000000000000000000000
0000000000000000000000000000000000000000000000111111111111111111111111
1111000011110000000000000000111111111111111100001111000011111111000011
1111110000000000000000000000000000000000000000000000000000000000000000
0000000000000000000000000000000000001111111111111111111111111111000011
1100000000000000001111111111111111000011110000111111110000111111110000
0000000000000000000000000000000000000000000000000000000000000000000000
0000000000000000000000000011111111111111111111111111110000111100000000
0000000011111111111111110000111100001111111100001111111100000000000000
0000000000000000000000000000000000000000000000000000000000000000000000
0000000000000000111111111111111111111111111100001111000000000000000011
1111111111111100001111000011111111000011111111000000000000000000000000
0000000000000000000000000000000000000000000000000000000000000000000000
0000001111000000000000000000001111000011110000111100001111111100000000
1111000000000000111111110000000000000000000000000000000000000000000000
0000000000000000000000000000000000000000000000000000000000000000001111
0000000000000000000011110000111100001111000011111111000000001111000000
0000001111111100000000000000000000000000000000000000000000000000000000
0000000000000000000000000000000000000000000000000000000011110000000000
0000000000111100001111000011110000111111110000000011110000000000001111
1111000000000000000000000000000000000000000000000000000000000000000000
0000000000000000000000000000000000000000000000111100000000000000000000
1111000011110000111100001111111100000000111100000000000011111111000000
0000000000000000000000000000000000000000000000000000000000000000000000
0000000000000000000000000000000000001111000011111111111100001111000011
1100001111111111111111111100001111111111111111111111110000000000000000
0000000000000000000000000000000000000000000000000000000000000000000000
0000000000000000000000000011110000111111111111000011110000111100001111
1111111111111111000011111111111111111111111100000000000000000000000000
0000000000000000000000000000000000000000000000000000000000000000000000
0000000000000000111100001111111111110000111100001111000011111111111111
1111110000111111111111111111111111000000000000000000000000000000000000
0000000000000000000000000000000000000000000000000000000000000000000000
0000001111000011111111111100001111000011110000111111111111111111110000
1111111111111111111111110000000000000000000000000000000000000000000000
0000000000000000000000000000000000000000000000000000000000000000001111
0000111111111111000011110000000000001111000011110000000011110000111100
0011111111111111110000000000000000000000000000000000000000000000000000
0000000000000000000000000000000000000000000000000000000011110000111111
1111110000111100000000000011110000111100000000111100001111000011111111
1111111100000000000000000000000000000000000000000000000000000000000000
0000000000000000000000000000000000000000000000111100001111111111110000
1111000000000000111100001111000000001111000011110000111111111111111100
0000000000000000000000000000000000000000000000000000000000000000000000
0000000000000000000000000000000000001111000011111111111100001111000000
0000001111000011110000000011110000111100001111111111111111000000000000
0000000000000000000000000000000000000000000000000000000000000000000000
0000000000000000000000000011110000111111111111000011110000111100001111
0000000011110000111111110000000000001111000000000000111100000000000000
0000000000000000000000000000000000000000000000000000000000000000000000
0000000000000000111100001111111111110000111100001111000011110000000011
1100001111111100000000000011110000000000001111000000000000000000000000
0000000000000000000000000000000000000000000000000000000000000000000000
0000001111000011111111111100001111000011110000111100000000111100001111
1111000000000000111100000000000011110000000000000000000000000000000000
0000000000000000000000000000000000000000000000000000000000000000001111
0000111111111111000011110000111100001111000000001111000011111111000000
0000001111000000000000111100000000000000000000000000000000000000000000
0000000000000000000000000000000000000000000000000000000011110000000000
0000000000111100001111000000001111000011110000111111110000111100001111
1111000011110000000000000000000000000000000000000000000000000000000000
0000000000000000000000000000000000000000000000111100000000000000000000
1111000011110000000011110000111100001111111100001111000011111111000011
1100000000000000000000000000000000000000000000000000000000000000000000
0000000000000000000000000000000000001111000000000000000000001111000011
1100000000111100001111000011111111000011110000111111110000111100000000
0000000000000000000000000000000000000000000000000000000000000000000000
0000000000000000000000000011110000000000000000000011110000111100000000
1111000011110000111111110000111100001111111100001111000000000000000000
0000000000000000000000000000000000000000000000000000000000000000000000
0000000000000000111111111111111111111111111100001111111111111111111111
1100001111111111111111111100000000000011111111000000000000000000000000
0000000000000000000000000000000000000000000000000000000000000000000000
0000001111111111111111111111111111000011111111111111111111111100001111
1111111111111111000000000000111111110000000000000000000000000000000000
0000000000000000000000000000000000000000000000000000000000000000001111
1111111111111111111111110000111111111111111111111111000011111111111111
1111110000000000001111111100000000000000000000000000000000000000000000
0000000000000000000000000000000000000000000000000000000011111111111111
1111111111111100001111111111111111111111110000111111111111111111110000
0000000011111111000000000000000000000000000000000000000000000000000000
0000000000000000000000000000000000000000000000000000000000000000000000
0000000000000000000000000000000000000000000000000000000000000000000000
0000000000000000000000000000000000000000000000000000000000000000000000
0000000000000000000000000000000000000000000000000000000000000000000000
0000000000000000000000000000000000000000000000000000000000000000000000
0000000000000000000000000000000000000000000000000000000000000000000000
0000000000000000000000000000000000000000000000000000000000000000000000
0000000000000000000000000000000000000000000000000000000000000000000000
0000000000000000000000000000000000000000000000000000000000000000000000
0000000000000000000000000000000000000000000000000000000000000000000000
0000000000000000000000000000000000000000000000000000000000000000000000
0000000000000000000000000000000000000000000000000000000000000000000000
0000000000000000000000000000000000000000000000000000000000000000000000
0000000000000000000000000000000000000000000000000000000000000000000000
0000000000000000000000000000000000000000000000000000000000000000000000
0000000000000000000000000000000000000000000000000000000000000000000000
0000000000000000000000000000000000000000000000000000000000000000000000
0000000000000000000000000000000000000000000000000000000000000000000000
0000000000000000000000000000000000000000000000000000000000000000000000
0000000000000000000000000000000000000000000000000000000000000000000000
0000000000000000000000000000000000000000000000000000000000000000000000
0000000000000000000000000000000000000000000000000000000000000000000000
0000000000000000000000000000000000000000000000000000000000000000000000
0000000000000000000000000000000000000000000000000000000000000000000000
0000000000000000000000000000000000000000000000000000000000000000000000
0000000000000000000000000000000000000000000000000000000000000000000000
0000000000000000000000000000000000000000000000000000000000000000000000
0000000000000000000000000000000000000000000000000000000000000000000000
0000000000000000000000000000000000000000000000000000000000000000000000
0000000000000000000000000000000000000000000000000000000000000000000000
0000000000000000000000000000000000000000000000000000000000000000000000
0000000000000000000000000000000000000000000000000000000000000000000000
0000000000000000000000000000000000000000000000000000000000000000000000
0000000000000000000000000000000000000000000000000000000000000000000000
0000000000000000000000000000000000000000000000000000000000000000000000
0000000000000000000000000000000000000000000000000000000000000000000000
0000000000000000000000000000000000000000000000000000000000000000000000
0000000000000000000000000000000000000000000000000000000000000000000000
0000000000000000000000000000000000000000000000000000000000000000000000
0000000000000000000000000000000000000000000000000000000000000000000000
0000000000000000000000000000000000000000000000000000000000000000000000
0000000000000000000000000000000000000000000000000000000000000000000000
0000000000000000000000000000000000000000000000000000000000000000000000
0000000000000000000000000000000000000000000000000000000000000000000000
0000000000000000000000000000000000000000000000000000000000000000000000
0000000000000000000000000000000000000000000000000000000000000000000000
0000000000000000000000000000000000000000000000000000000000000000000000
0000000000000000000000000000000000000000000000000000000000000000000000
0000000000000000000000000000000000000000000000000000000000000000000000
0000000000000000000000000000000000000000000000000000000000010000000000
0000000000000000000000000000000000000000000000000000000000000000000000
0000000000000000000000000000000000000000000000000000000000000000000000
0000000001111110000000000000000000000000000000111110000000000000000000
0000000100000000000000000001001000000000000000000000000000000000000000
0000000000000000000000000000000000000000000000000000000000000000000001
0000111000000000000000000000000000000000110000000000000000000000000000
0000000000000000000000000000000000000000000000000000000000000000000000
0000000000000000000000000000000000000000000000000000000000110000001100
0000000000000000000000000010001000000000000000001000000111000000100000
0001001100100000001000000001000000000000000000000000000000000000000000
0000000000000000000000000000000000000000000000001100000001110000000000
0000000000000000011110000010111000010100000101010000101100001010000100
1100111011000001011000000000000000000000000000000000101111111000000000
0000000000000000000000000000000000000011000000000110000000000000000000
0000010111110000000011001010000010001100100001100101000001001000010001
1000100011000000000000000000000000000000111111111111111000000000000000
0000000000000000000000000000110000000000111000000000000000000000010000
0110011000010001000000100001001111111000100000010011000100011000101111
0000000000000000000000000000111111111111111111100000000000000000000000
0000000000000000001100000000001111100000000000000000000010000100001000
1100100000001000110001011010010000000100100011000010011110110000000000
0000000000000000111111111111111111111100000000000000000000000000000000
0000000001000000000001111100000000000000000000000001100010001000110000
0010010100010000000110000000001100010000100010000000000000000000000000
0000111111111111111111111111110000000000000000000000000000000000000001
1000000000001111100000000000000000001111100000111110000100000001111000
0111110000100000100010001100010000111110000000000000000000000001111111
1111111111111111111110000000000000000000000000000000000000011111111110
0001111110000000000000000010101100000001000001000000010011000001100000
0000001000110001000010000101000000000000000000000001111111111111111111
1111111111110000000000000000000000000000000000000011111111111110111111
0000000000000000000000000000000000000000000000000000000000000000000000
0000000000000000000000000000000000000000111111111111111111111111111111
1110000000000000000000000000000000000000111111111111111101111000000000
0000000000000000000000100000000000000000000000000000100000000000000000
0010000000000000000000000000011111111111111111111111111111111111000000
0000000000000000000000000000000111111111111111110111000000000000001000
0000000000000100000000000000000000000000000100000000000000000001000000
0000000000000000001111111111111111111111111111111111111000000000000000
0000000000000000000001111111000000111110111100000000000010000000000000
0000000000000000000000000000000000000000000000000000010000000000000000
0000000111111111111111111111111111111111111111000000000000000000000000
0000000000001111110000101111110111100000000000101010000000100011010100
0000010000000010000010110000001000000100000101010000000100000000100111
1111111111111111111111111111111111111000000000000000000000000000000000
0001110000000011111100011100000000000111100001001000001111000001011000
0101000000101100001010001010100000111100000101100010101011111111111111
1111111111111111111111111110000000000000000000000000000000000011111001
0011111111100111100000000010001100000011001100011000100011001010000101
0010000000110001000000101001100010001100010000111111111111111111111111
1111111111111111110000000000000000000000000000000000110110000111111110
1100111110000000100011000010110001000010001011110001000001000011000010
1100001110001000011001011111000100011111111111111111111111111111111111
1111111100000000000000000000000000000000011101000011111111000110001111
0000001000010001011000110001100111101100100000001000100001011000010110
0001000010010110110011000111111111111111111111111111111111111111111111
0000000000000000000000000000001111010010011111110000111001111000000000
0100110011000100010000000000001100000010001100010011000000110001000010
0010000000010001111111111111111111111111111111111111111111110000000000
0000000000000000000111010010001111111000000111001111000010001000011111
0010111100001111100001000000011110001011110001011100100001000011111000
1000011111111111111111111111111111111111111111111100000000000000000000
0000000001110010001011111100000000111000111100000001000010010010101000
0000110000000000000100110000100100010100001100001000010100000100111111
1111111111111111111111111111111111111111000000000000000000000000000011
1010001111111110000000000011101111100000000000000000000000000000000000
0000000000000000000000000000000000000000000000000000000111111111111111
1111111111111111111111111111110000000000000000000000000001110100100011
1111000000000000001100111100000000000000000000000000000000000000000000
0000000000000000000000000000000000000000000011111111111111111111111111
1111111111111111111100000000000000000000000000111110010011111111000000
0000000001110011100000000000000000000000000000000000000000000000000000
0000000000000000000000000000000000011111111111111111111111111111111111
1111111111100000000000000000000000011110111001011111100000000000000110
0111011100000000000000000000000000000000000000000000000000000000000000
0000000000000000000000001111111111111111111111111111111111111111111111
1100000000000000000000001111000001001111111000011100001111010011111111
0000000000000000000000000000000000000000000000000000000000000000000000
0000000000000011111111111111111111111111111111111111111111111100000000
0000000000000111111100001110111100000101101011000110001111111000000000
0000000000000000000000000000000000000000000000000000000000000000000000
0000111111111111111111111111111111111111111111111111000000000000000000
0011110100010011111110000001110101100001001100111111000000000000000000
0000000000000000000000000000000000000000000000000000000000000000111111
1111111111111111111111111111111111111111100000000000000000000011101000
0001111111100001111000010001100110000011111000000000000000000000000000
0000000000000000000000000000000000000000000000000000011111111111111111
1111111111111111111111111111111000000000000000000011110101000111101111
0000000000001101110011000000001111000000000000000000000000000000000000
0000000000000000000000000000000000000000000111111111111111111111111111
1111111111111111111111000000000000000000111010000110111111110000000010
0001111011000000010001111100000000000000000000000000000000000000000000
0000000000000000000000000000000001111111111111111111111111111111111111
1111111111111000000000000000011110100110011111111000000000110000000110
0000001100000111100000000000000000000000000000000000000000000000000000
0000000000000000000000001111111111111111111111111111111111111111111111
1100000000000000001111010000011111111100000000011101011100000000001000
0000011100000000000000000000000000000000000000000000000000000000000000
0000000000000001111111111111111111111111111111111111111111111110000000
0000000111101010000111111110000000000110111100000000000100000000001110
0000000000000000000000000000000000000000000000000000000000000000000000
0000111111111111111111111111111111111111111111111111100000000000001110
0001000111111111000000001100011111000000000001111010000001110000000000
0000000000000000000000000000000000000000000000000000000000000000111111
1111111111111111111111111111111111111111111000000000000111100100001111
1111100000000110101000110100000000101011111000001100000000000000000000
0000000000000000000000000000000000000000000000000000011111111111111111
1111111111111111111111111111111110000000000011111111101011111111101110
0000010110000110011000001111000111100011100000000000000000000000000000
0000000000000000000000000000000000000000000111111111111111111111111111
1111111111111111111111110000000000111111111101111111111001111000100111
0011111111000101011111011101110000000000000000000000000000000000000000
0000000000000000000000000000000001111111111111111111111111111111111111
1111111111111100000000001111111111111011111100000011100001101001110001
0010000000111111111000000000000000000000000000000000000000000000000000
0000000000000000000000011111111111111111111111111111111111111111111111
1111000000000011111111110111111110011010001100111100010001100000000000
0000000000000000000000000000000000000000000000000000000000000000000000
0000000000000111111101111111111111111111111111111111111111111111000000
0000111111111111011111110001000000110010001100000001000000000000000000
0000000000000000000000000000000000000000000000000000000000000000000000
0011111111101111111111111111111111111111111101011111110000000000011111
1111100001110010101000000111000011101000000000000000000000000000000000
0000000000000000000000000000000000000000000000000000000000000011111111
1101011111111011011010101010101010111111111100000000000111111111110000
0011010010000000011000011111000000000000000000000000000000000000000000
0000000000000000000000000000000000000000000000000000111111101111010010
0010101010101011011010110101111111000000000000111111111100100011100100
0000000011001010000000000000000000000000000000000000000000000000000000
0000000000000000000000000000000000000000001111111110101101011010010010
1010101010110111111111110000000000000111111111100000000110000000000000
1011100000000000000000000000000000000000000000000000000000000000000000
0000000000000000000000000000000111111111111101101010101010101010010101
0101010111111000000000000000101111111110111111110000000000000110000001
0000000000000000000000000000000000000000000000000000000000000000000000
0000000000000000000001111111111010110101010100100100101001010101111111
1100000000000000000100111111110000000111000000000000110000100000000000
0000000000000000000000000000000000000000000000000000000000000000000000
0000000000111111111111110101010100101001010010101010101011111100000000
0000000001100001111111111111111000000000000110001000000000000000000000
0000000000000000000000000000000000000000000000000000000000000000000000
1111111111101111101010101001101010010010101101111100000000000000000000
1110101111110001001011000000000000110100000000000000000000000000000000
0000000000000000000000000000000000000000000000000000000000001111111111
1010101101010101111010010101010101111110000000000000000000000011010101
1101010101111000000000001111000000000000000000000000000000000000000000
0000000000000000000000000000000000000000000000000011111111111111110110
1010101010010100101011010111110000000000000000000000011111110111010100
1011000000000101110000000000000000000000000000000000000000000000000000
0000000000000000000000000000000000000000111111111111101101010101010101
0101010101011111111000000000000000000000000010000111111000001101110000
0000111000000000000000000000000000000000000000000000000000000000000000
0000000000000000000000000000001111111111111110111010101010100011110101
1010111111000000000000000000000000011010100111111110000110000001011000
0000000000000000000000000000000000000000000000000000000000000000000000
0000000000000000000011111111111111111011101111111111101010101111111111
0000000000000000000000000011000100111110000101110000101100000000000000
0000000000000000000000000000000000000000000000000000000000000000000000
0000000000011111111111111111010101000010001010110111111111100000000000
0000000000000000011111111111111110100110010111000000000000000000000000
0000000000000000000000000000000000000000000000000000000000000000000000
0011111111111111111111011101110101010111111111111000000000000000000000
0000000001101010111111110000110010100000000000000000000000000000000000
0000000000000000000000000000000000000000000000000000000000000000111111
1111100000011101101010111111111111111100000000000000000000000000000000
1110000111111111111110111000000000000000000000000000000000000000000000
0000000000000000000000000000000000000000000000000000000011110110000000
0000011111111111111111111110000000000000000000000000000000000011100001
1111111111110110000000000000000000000000000000000000000000000000000000
0000000000000000000000000000000000000000000000000000000000000000111101
1111111111111111000000000000000000000000000000000000001111011111111111
1101100000000000000000000000000000000000000000000000000000000000000000
0000000000000000000000000000000000000000001000000000001111101110000111
1111000000000000000000000000000000000000000000110011111111111111000000
0000000000000000000000000000000000000000000000000000000000000000000000
0000000000000000000000000000000000000000000011111111100000000001000000
0000000000000000000000000000000000000011111111111111110000000000000000
0000000000000000000000000000000000000000000000000000000000000000000000
0000000000000000000000010000000001111111111100000000000000000000000000
0000000000000000000000000000000111111111111000000000000000000000000000
0000000000000000000000000000000000000000000000000000000000000000000000
0000000000000100000001111111111111000000001000000000000000000000000000
0000000000000000000000001111111110000000000000000000000000000000000000
0000000000000000000000000000000000000000000000000000000000000000000000
0000000000000000000000000000000000000000000000000000000000000000000000
0000000000000000000000000000000000000000000000000000000000000000000000
0000000000000000000000000000000000000000000000000000000000000000000000
0000000000000000000000000000000000000000000000000000000000000000000000
0000000000000000000000000000000000000000000000000000000000000000000000
0000000000000000000000000000000000000000000000000000000000000000000000
000000000000000000000000000000