P1
# CREATOR: GIMP PNM Filter Version 1.1
200 200
0000000000000000000000000000000000000000000000000000000000000000000000
0000000000000000000000000000000000000000000000000000000000000000000000
0000000000000000000000000000000000000000000000000000000000000000000000
0000000000000000000000000000000000000000000000000000000000000000000000
0000000000000000000000000000000000000000000000000000000000000000000000
0000000000000000000000000000000000000000000000000000000000000000000000
0000000000000000000000000000000000000000000000000000000000000000000000
0000000000000000000000000000000000000000000000000000000000000000000000
0000000000000000000000000000000000000000000000000000000000000000000000
0000000000000000000000000000000000000000000000000000000000000000000000
0000000000000000000000000000000000000000000000000000000000000000000000
0000000000000000000000000000000000000000000000000000000000000000000000
0000000000000000000000000000000000000000000000000000000000000000000000
0000000000000000000000000000000000000000000000000000000000000000000000
0000000000000000000000000000000000000000000000000000000000000000000000
0000000000000000000000000000000000000000000000000000000000000000000000
0000000000000000000000000000000000000000000000000000000000000000000000
0000000000000000000000000000000000000000000000000000000000000000000000
0000000000000000000000000000000000000000000000000000000000000000000000
0000000000000000000000000000000000000000000000000000000000000000000000
0000000000000000000000000000000000000000000000000000000000000000000000
0000000000000000000000000000000000000000000000000000000000000000000000
0000000000000000000000000000000000000000000000000000000000000000000000
0000000000000000000000000000000000000000000000000000000000000000000000
0000000000000000000000000000000000000000000000000000000000000000000000
0000000000000000000000000000000000000000000000000000000000000000000000
0000000000000000000000000000000000000000000000000000000000000000000000
0000000000000000000000000000000000000000000000000000000000000000000000
0000000000000000000000000000000000000000000000000000000000000000000000
0000000000000000000000000000000000000000000000000000000000000000000000
0000000000000000000000000000000000000000000000000000000000000000000000
0000000000000000000000000000000000000000000000000000000000000000000000
0000000000000000000000000000000000000000000000000000000000000000000000
0000000000000000000000000000000000000000000000000000000000000000000000
0000000000000000000000000000000000000000000000000000000000000000000000
0000000000000000000000000000000000000000000000000000000000000000000000
0000000000000000000000000000000000000000000000000000000000000000000000
0000000000000000000000000000000000000000000000000000000000000000000000
0000000000000000000000000000000000000000000000000000000000000000000000
0000000000000000000000000000000000000000000000000000000000000000000000
0000000000000000000000000000000000000000000000000000000000000000000000
0000000000000000000000000000000000000000000000000000000000000000000000
0000000000000000000000000000000000000000000000000000000000000000000000
0000000000000000000000000000000000000000000000000000000000000000000000
0000000000000000000000000000000000000000000000000000000000000000000000
0000000000000000000000000000000000000000000000000000000000000000000000
0000000000000000000000000000000000000000000000000000000000000000000000
0000000000000000000000000000000000000000000000000000000000000000000000
0000000000000000000000000000000000000000000000000000000000000000000000
0000000000000000000000000000000000000000000000000000000000000000000000
0000000000000000000000000000000000000000000000000000000000000000000000
0000000000000000000000000000000000000000000000000000000000000000000000
0000000000000000000000000000000000000000000000000000000000000000000000
0000000000000001110000000000000000000000000000000000000001110000000000
0000000000000000000000000000000000000000000000000000000000000000000000
0000000000000000000000000000000000000000000000000000000000000000000000
0000011100000000000000000000000000000000000000011100000000000000000000
0000000000000000000000000000000000000000000000000000000000000000000000
0000000000000000000000000000000000000000000000000000000000000000011100
0000000000000000000000000000000000000111000000000000000000000000000000
0000000000000000011111111111111111111111111100001111111111100001111000
0111111111110000111111111111111111111111111000000000000111111111011111
1111000111111110000001111101111111110011111100000000000000000000000000
0000000111111111111111111111111111000011111111111000011110000111111111
1100001111111111111111111111111110000000000001111111110111111111110111
1111100000011111011111111100011111000000000000000000000000000000000111
1111111111111111111111110000111111111110000111100001111111111100001111
1111111111111111111111100000000000000000011100111000011100011100000000
0001110000000111000001110000000000000000000000000000000001110000000000
0000000000111100001111111111100000000111111110000000000011110000000000
0000000000111000000000000000000111001110000111000111000000000001110000
0001110000011100000000000000000000000000000000011100000000000000000000
1111000011111111111000000001111111100000000000111100000000000000000000
1110000000000000000001110011100001110000111000000000011100000001110011
0111000000000000000000000000000000000111000000000000000000001111000011
1111111110000000011111111000000000001111000000000000000000001110000000
0000000000011100111000011100001110000000000111000000011100100111000000
0000000000000000000000000001110000000000000000000011110000111111111110
0000000111111110000000000011110000000000000000000011100000000000000000
1110001110000111000011100000000001110000001110000011111000000000000000
0000000000000000011100001111111111110000111100001110000111111110000000
0111111110000000111100001111111111110000111000000000000000011100001110
0001110000111000000000000000000111000001111110000000000000000000000000
0000000111000011111111111100001111000011100001111111100000000111111110
0000001111000011111111111100001110000000000000000110000011100001110000
1110000000000000000001100000111111100000000000000000000000000000000111
0000111111111111000011110000111000011111111000000001111111100000001111
0000111111111111000011100000000000000011100000111000011100000111000000
0000000000111000011100111000000000000000000000000000000001110000111111
1111110000111100001110000111111110000000011111111000000011110000111111
1111110000111000000000000000010000001110000111000001110000000000000000
0100000110001110000000000000000000000000000000011100001111111111110000
1111000011111110000111100001111111111111110000111100001111111111110000
1110000000000000000000000000000000000000000000000000000000000000000000
0000000000000000000000000000000000000111000011111111111100001111000011
1111100001111000011111111111111100001111000011111111111100001110000000
0000000000000000000000000000000000000000000000001101100000111110000000
0000000000000000000000000001110000111111111111000011110000111111100001
1110000111111111111111000011110000111111111111000011100000000000000000
0000000000000000000000000000000000000001001000001111100000000000000000
0000000000000000011100001111111111110000111100001111111000011110000111
1111111111110000111100001111111111110000111000000000000000000000000000
0000000000000000000000000000000000000000000000000000000000000000000000
0000000111000011111111111100001111000000000000000000000000000111111111
1100001111000011111111111100001110000000000000000000000000000000000000
0000000000000000000000000000000000000000000000000000000000000000000111
0000111111111111000011110000000000000000000000000001111111111100001111
0000111111111111000011100000000000000000000000000000000000000000000000
0000000000000000000000000000000000000000000000000000000001110000111111
1111110000111100000000000000000000000000011111111111000011110000111111
1111110000111000000000000000001000000000000000000000000000000000000000
0000000000010000000000000000000000000000000000011100001111111111110000
1111000000000000000000000000000111111111110000111100001111111111110000
1110000000000000000110000000000000000000000000000000000000000000000000
0010000000000000000000000000000000000111000000000000000000001111000011
1000000001111111100000000000011100001111000000000000000000001110000000
0000000001100111101101110011111011111100000011110011101111100011000000
0000000000000000000000000001110000000000000000000011110000111000000001
1111111000000000000111000011110000000000000000000011100000000000000001
0001111001111110111110111111100000111110111011111100110000000000000000
0000000000000000011100000000000000000000111100001110000000011111111000
0000000001110000111100000000000000000000111000000000000000110000011001
1001100110000000011000000001100110000011000110000000000000000000000000
0000000111000000000000000000001111000011100000000111111110000000000001
1100001111000000000000000000001110000000000000001100000110011001100110
0000000110000000011001100000110001100000000000000000000000000000000111
1111111111111111111111110000111000011110000111100001111000011100001111
1111111111111111111111100000000000000011000001100110011001100011000110
0000000110011000001100011000000000000000000000000000000001111111111111
1111111111111100001110000111100001111000011110000111000011111111111111
1111111111111000000000000000110000011001000110001100110001100000000110
0110000011000110000000000000000000000000000000011111111111111111111111
1111000011100001111000011110000111100001110000111111111111111111111111
1110000000000000001100000110110111100011001100011000011111110110000011
0011000000000000000000000000000000000111111111111111111111111111000011
1000011110000111100001111000011100001111111111111111111111111110000000
0000000001100001101100111000110011000110000111111101100000110011000000
0000000000000000000000000000000000000000000000000000000000000111100000
0001111000011111111111000000000000000000000000000000000000000000000001
1000011000000000000000000000000000000000000000000000100000000000000000
0000000000000000000000000000000000000000000000000001111000000001111000
0111111111110000000000000000000000000000000000000000000000001000011000
0000000000000000000000000000000000000000011000000000000000000000000000
0000000000000000000000000000000000000000011110000000011110000111111111
1100000000000000000000000000000000000000000000000000000000000000000000
0000000000000000000000000000000000000000000000000000000000000000000000
0000000000000000000000000000000111100000000111100001111111111100000000
0000000000000000000000000000000000000000000000000000000000000000000000
0000000000000000000000000000000000000000000000000000000001111111000000
0011111111111100000000000000011110000000000000000000000000001111000011
1111111111111000000000000000000000000000000000000000000000000000000000
0000000000000000000000000000000000000000000000011111110000000011111111
1111000000000000000111100000000000000000000000000011110000111111111111
1110000000000000000000000000000000000000000000000000000000000000000000
0000000000000000000000000000000000000111111100000000111111111111000000
0000000001111000000000000000000000000000111100001111111111111110000000
0000000000000000000000000000000000000000000000000000000000000000000000
0000000000000000000000000001110000111111111111000000001111000111111110
0001111111100001111111111100000000111111110000111100000000000000000000
0000000000000000000000000000000000000000000000000000000000000000000000
0000000000000000011100001111111111110000000011110001111111100001111111
1000011111111111000000001111111100001111000000000000000000000000000000
0000000000000000000000000000000000000000000000000000000000000000000000
0000000111000011111111111100000000111100011111111000011111111000011111
1111110000000011111111000011110000000000000000000000000000000000000000
0000000000000000000000000000000000000000000000000000000000000000000111
0000111111111111000000001111000111111110000111111110000111111111110000
0000111111110000111100000000000000000000000000000000000000000000000000
0000000000000000000000000000000000000000000000000000000000000000111111
1111111111111111111110000000011111111111100001111111111100001111000011
1111110000000000000000000000000000000000000000000000000000000000000000
0000000000000000000000000000000000000000000000000000001111111111111111
1111111111100000000111111111111000011111111111000011110000111111110000
0000000000000000000000000000000000000000000000000000000000000000000000
0000000000000000000000000000000000000000000011111111111111111111111111
1000000001111111111110000111111111110000111100001111111100000000000000
0000000000000000000000000000000000000000000000000000000000000000000000
0000000000000000000000000000000000111111111111111111111111111000000001
1111111111100001111111111100001111000011111111000000000000000000000000
0000000000000000000000000000000000000000000000000000000000000000000000
0000000000000000011100000000000011111111000000001110000111111110000000
0111100001110000111100001111000011111111000000000000000000000000000000
0000000000000000000000000000000000000000000000000000000000000000000000
0000000111000000000000111111110000000011100001111111100000000111100001
1100001111000011110000111111110000000000000000000000000000000000000000
0000000000000000000000000000000000000000000000000000000000000000000111
0000000000001111111100000000111000011111111000000001111000011100001111
0000111100001111111100000000000000000000000000000000000000000000000000
0000000000000000000000000000000000000000000000000000000001110000000000
0011111111000000001110000111111110000000011110000111000011110000111100
0011111111000000000000000000000000000000000000000000000000000000000000
0000000000000000000000000000000000000000000000000011110000000000000000
1111000000000001111000011110000000000001110000111111110000111111111111
1110000000000000000000000000000000000000000000000000000000000000000000
0000000000000000000000000000000000000000111100000000000000001111000000
0000011110000111100000000000011100001111111100001111111111111110000000
0000000000000000000000000000000000000000000000000000000000000000000000
0000000000000000000000000000001111000000000000000011110000000000011110
0001111000000000000111000011111111000011111111111111100000000000000000
0000000000000000000000000000000000000000000000000000000000000000000000
0000000000000000000011110000000000000000111100000000000111100001111000
0000000001110000111111110000111111111111111000000000000000000000000000
0000000000000000000000000000000000000000000000000000000000000000000000
0000000111111111110000000011110000000011100000000000000001111000011111
1100000000000011110000000011110000000000000000000000000000000000000000
0000000000000000000000000000000000000000000000000000000000000000000111
1111111100000000111100000000111000000000000000011110000111111100000000
0000111100000000111100000000000000000000000000000000000000000000000000
0000000000000000000000000000000000000000000000000000000001111111111100
0000001111000000001110000000000000000111100001111111000000000000111100
0000001111000000000000000000000000000000000000000000000000000000000000
0000000000000000000000000000000000000000000000011111111111000000001111
0000000011100000000000000001111000011111110000000000001111000000001111
0000000000000000000000000000000000000000000000000000000000000000000000
0000000000000000000000000000000000000000000000000000111100001111000000
0111111110000000000001111111100000001111111111111111111100000000000000
0000000000000000000000000000000000000000000000000000000000000000000000
0000000000000000000000000000000000000000001111000011110000000111111110
0000000000011111111000000011111111111111111111000000000000000000000000
0000000000000000000000000000000000000000000000000000000000000000000000
0000000000000000000000000000000011110000111100000001111111100000000000
0111111110000000111111111111111111110000000000000000000000000000000000
0000000000000000000000000000000000000000000000000000000000000000000000
0000000000000000000000111100001111000000011111111000000000000111111110
0000001111111111111111111100000000000000000000000000000000000000000000
0000000000000000000000000000000000000000000000000000000000000000000000
0000111100000000111100001111111000000000000111100000000000000011111111
1111111100001111111100000000000000000000000000000000000000000000000000
0000000000000000000000000000000000000000000000000000000000000000111100
0000001111000011111110000000000001111000000000000000111111111111111100
0011111111000000000000000000000000000000000000000000000000000000000000
0000000000000000000000000000000000000000000000000000001111000000001111
0000111111100000000000011110000000000000001111111111111111000011111111
0000000000000000000000000000000000000000000000000000000000000000000000
0000000000000000000000000000000000000000000011110000000011110000111111
1000000000000111100000000000000011111111111111110000111111110000000000
0000000000000000000000000000000000000000000000000000000000000000000000
0000000000000000000000000001111111000011111111000011111111000111111111
1111111000000001111111111111111111111111111111000000000000000000000000
0000000000000000000000000000000000000000000000000000000000000000000000
0000000000000000011111110000111111110000111111110001111111111111111000
0000011111111111111111111111111111110000000000000000000000000000000000
0000000000000000000000000000000000000000000000000000000000000000000000
0000000111111100001111111100001111111100011111111111111110000000011111
1111111111111111111111111100000000000000000000000000000000000000000000
0000000000000000000000000000000000000000000000000000000000000000000000
0000000000000000000000000000111000011110000111111111111000011100000000
0000111100000000000000000000000000000000000000000000000000000000000000
0000000000000000000000000000000000000000000000000000000000000000000000
0000000000000000001110000111100001111111111110000111000000000000111100
0000000000000000000000000000000000000000000000000000000000000000000000
0000000000000000000000000000000000000000000000000000000000000000000000
0000000011100001111000011111111111100001110000000000001111000000000000
0000000000000000000000000000000000000000000000000000000000000000000000
0000000000000000000000000000000000000000000000000000000000000000000011
1000011110000111111111111000011100000000000011110000000000000000000000
0000000000000000000000000000000000000000000000000000000000000000000000
0000000000000000000000000001111111111111111111111111110000000000011111
1110000000000000000111000011110000111100000000000000000000000000000000
0000000000000000000000000000000000000000000000000000000000000000000000
0000000000000000011111111111111111111111111100000000000111111110000000
0000000001110000111100001111000000000000000000000000000000000000000000
0000000000000000000000000000000000000000000000000000000000000000000000
0000000111111111111111111111111111000000000001111111100000000000000001
1100001111000011110000000000000000000000000000000000000000000000000000
0000000000000000000000000000000000000000000000000000000000000000000111
1111111111111111111111110000000000011111111000000000000000011100001111
0000111100000000000000000000000000000000000000000000000000000000000000
0000000000000000000000000000000000000000000000000000000001110000000000
0000000000111100001110000000000001111000011111111111000000000000111111
1111110000000000000000000000000000000000000000000000000000000000000000
0000000000000000000000000000000000000000000000011100000000000000000000
1111000011100000000000011110000111111111110000000000001111111111110000
0000000000000000000000000000000000000000000000000000000000000000000000
0000000000000000000000000000000000000111000000000000000000001111000011
1000000000000111100001111111111100000000000011111111111100000000000000
0000000000000000000000000000000000000000000000000000000000000000000000
0000000000000000000000000001110000000000000000000011110000111000000000
0001111000011111111111000000000000111111111111000000000000000000000000
0000000000000000000000000000000000000000000000000000000000000000000000
0000000000000000011100001111111111110000111100001111111000011111111000
0000000001111111111111111111111111110000000000000000000000000000000000
0000000000000000000000000000000000000000000000000000000000000000000000
0000000111000011111111111100001111000011111110000111111110000000000001
1111111111111111111111111100000000000000000000000000000000000000000000
0000000000000000000000000000000000000000000000000000000000000000000111
0000111111111111000011110000111111100001111111100000000000011111111111
1111111111111111000000000000000000000000000000000000000000000000000000
0000000000000000000000000000000000000000000000000000000001110000111111
1111110000111100001111111000011111111000000000000111111111111111111111
1111110000000000000000000000000000000000000000000000000000000000000000
0000000000000000000000000000000000000000000000011100001111111111110000
1111000000011111111111100000000111100000001111111111110000000011111111
1110000000000000000000000000000000000000000000000000000000000000000000
0000000000000000000000000000000000000111000011111111111100001111000000
0111111111111000000001111000000011111111111100000000111111111110000000
0000000000000000000000000000000000000000000000000000000000000000000000
0000000000000000000000000001110000111111111111000011110000000111111111
1110000000011110000000111111111111000000001111111111100000000000000000
0000000000000000000000000000000000000000000000000000000000000000000000
0000000000000000011100001111111111110000111100000001111111111110000000
0111100000001111111111110000000011111111111000000000000000000000000000
0000000000000000000000000000000000000000000000000000000000000000000000
0000000111000011111111111100001111000000000000000111111110000111100001
1111111111000000001111000011110000000000000000000000000000000000000000
0000000000000000000000000000000000000000000000000000000000000000000111
0000111111111111000011110000000000000001111111100001111000011111111111
0000000011110000111100000000000000000000000000000000000000000000000000
0000000000000000000000000000000000000000000000000000000001110000111111
1111110000111100000000000000011111111000011110000111111111110000000011
1100001111000000000000000000000000000000000000000000000000000000000000
0000000000000000000000000000000000000000000000011100001111111111110000
1111000000000000000111111110000111100001111111111100000000111100001111
0000000000000000000000000000000000000000000000000000000000000000000000
0000000000000000000000000000000000000111000000000000000000001111000011
1111100001111000000000000111100000000000111111111111111111110000000000
0000000000000000000000000000000000000000000000000000000000000000000000
0000000000000000000000000001110000000000000000000011110000111111100001
1110000000000001111000000000001111111111111111111100000000000000000000
0000000000000000000000000000000000000000000000000000000000000000000000
0000000000000000011100000000000000000000111100001111111000011110000000
0000011110000000000011111111111111111111000000000000000000000000000000
0000000000000000000000000000000000000000000000000000000000000000000000
0000000111000000000000000000001111000011111110000111100000000000011110
0000000000111111111111111111110000000000000000000000000000000000000000
0000000000000000000000000000000000000000000000000000000000000000000111
1111111111111111111111110000111000011111111111100000000111100011110000
0000000000001111111111100000000000000000000000000000000000000000000000
0000000000000000000000000000000000000000000000000000000001111111111111
1111111111111100001110000111111111111000000001111000111100000000000000
0011111111111000000000000000000000000000000000000000000000000000000000
0000000000000000000000000000000000000000000000011111111111111111111111
1111000011100001111111111110000000011110001111000000000000000011111111
1110000000000000000000000000000000000000000000000000000000000000000000
0000000000000000000000000000000000000000000000000000000000000000000000
0000000000000000000000000000000000000000000000000000000000000000000000
0000000000000000000000000000000000000000000000000000000000000000000000
0000000000000000000000000000000000000000000000000000000000000000000000
0000000000000000000000000000000000000000000000000000000000000000000000
0000000000000000000000000000000000000000000000000000000000000000000000
0000000000000000000000000000000000000000000000000000000000000000000000
0000000000000000000000000000000000000000000000000000000000000000000000
0000000000000000000000000000000000000000000000000000000000000000000000
0000000000000000000000000000000000000000000000000000000000000000000000
0000000000000000000000000000000000000000000000000000000000000000000000
0000000000000000000000000000000000000000000000000000000000000000000000
0000000000000000000000000000000000000000000000000000000000000000000000
0000000000000000000000000000000000000000000000000000000000000000000000
0000000000000000000000000000000000000000000000000000000000000000000000
0000000000000000000000000000000000000000000000000000000000000000000000
0000000000000000000000000000000000000000000000000000000000000000000000
0000000000000000000000000000000000000000000000000000000000000000000000
0000000000000000000000000000000000000000000000000000000000000000000000
0000000000000000000000000000000000000000000000000000000000000000000000
0000000000000000000000000000000000000000000000000000000000000000000000
0000000000000000000000000000000000000000000000000000000000000000000000
0000000000000000000000000000101000000101100000000000000000000000000000
0000000000000000000000000000000000000000000000000000000000000000000000
0000000000000000000000000000000000000000000000000000000000000000000000
0000000000000010000000001100000000010000000000000000000000000000000000
0000000000000000000000000000000000000000000000000000000000000000000000
0000000000000000000000000000000000000000000000000000000000000000000000
0100010000111000001010000000000000000000000000000000000000000000000000
0000000000000000000000000000000000000000000000000000000000000000000000
0000000000000000000000000000000000000000000000000000000000000000000011
0000011000101110011001000000000000000000000000000000000000000000000000
0000000000000000000000000000000000000000000000000000000000000000000000
0000000000000000000000000000000000000000000000010011110110000010000000
0000010001000100000000000000000000000000000000000000000000000000000000
0000000000000000000000000000000000000000000000000000000000000000000000
0000000000000000000000000000000000000100000000000000000000000010000100
0100010000000000000000000000000000000000000000000000000000000000000000
0000000000000000000000000000000000000000000000000000000000000000000000
0000000000000000000000000000011010000001011111111110000000010010000000
0000000000000000000000000000000000000000000000000000000000000000000000
0000000000000000000000000000000000000000000000000000000000000000000000
0000000000000000100000000001111110111101111111000010000100000000000000
0000000000000000000000000000000000000000000000000000000000000000000000
0000000000000000000000000000000000000000000000000000000000000000000000
0001000011000001111010111011111101101000010000110100000000000000000000
0000000000000000000000000000000000000000000000000000000000000000000000
0000000000000000000000000000000000000000000000000000000000000000011000
0000111011011111011011001111100101100000000000000000000000000000000000
0000000000000000000000000000000000000000000000000000000000000000000000
0000000000000000000000000000000000000000000000000000000001010011100101
0000011011100100111100000101000000000000000000000000000000000000000000
0000000000000000000000000000000000000000000000000000000000000000000000
0000000000000000000000000000000000000000010010000000101100111011001001
1101100011100000001010000000000000000000000000000000000000000000000000
0000000000000000000000000000000000000000000000000000000000000000000000
0000000000000000000000000000000010000000001101111111101100110110011011
1100001000000000000000000000000000000000000000000000000000000000000000
0000000000000000000000000000000000000000000000000000000000000000000000
0000000000000000000000001000000011011000101110101101111110001110000101
1100000000000000000000000000000000000000000000000000000000000000000000
0000000000000000000000000000000000000000000000000000000000000000000000
0000000000010000000001111000000001011111110101110001110000000000000000
0000000000000000000000000000000000000000000000000000000000000000000000
0000000000000000000000000000000000000000000000000000000000000000001001
0000000000001010000000000000001000001110001100001100100000000000000000
0000000000000000000000000000000000000000000000000000000000000000000000
0000000000000000000000000000000000000000000000000000000001000000000000
0111000000000000000000000111100111000000100000000000000000000000000000
0000000000000000000000000000000000000000000000000000000000000000000000
0000000000000000000000000000000000000000000000001100000000000111000000
0000000000000000001010111000001001000000000000000000000000000000000000
0000000000000000000000000000000000000000000000000000000000000000000000
0000000000000000000000000000000000001000000000000001010000000000000000
0000000101111010000000000000000000000000000000000000000000000000000000
0000000000000000000000000000000000000000000000000000000000000000000000
0000000000000000000000000000100000000000011000000000000000000000000101
0111100000000100000000000000000000000000000000000000000000000000000000
0000000000000000000000000000000000000000000000000000000000000000000000
0000000000000001000000000000000100000000000010001000000000111100100000
0010010000000000000000000000000000000000000000000000000000000000000000
0000000000000000000000000000000000000000000000000000000000000000000000
0000000100000000000001100000000000000000000000000100110000000001000000
0000000000000000000000000000000000000000000000000000000000000000000000
0000000000000000000000000000000000000000000000000000000000000000110000
0000000000010001000000000000000000000000101010000000010000000000000000
0000000000000000000000000000000000000000000000000000000000000000000000
0000000000000000000000000000000000000000000000000000000000000000000000
0100111110000000000000000000001001100000000010100100000000000000000000
0000000000000000000000000000000000000000000000000000000000000000000000
0000000000000000000000000000000000000000000010000000000011110101000001
1000010111111100000101110000000000100000000000000000000000000000000000
0000000000000000000000000000000000000000000000000000000000000000000000
0000000000000000000000000000000000000000000100000001000000000000011100
0001000000100110000000001011000000000000000000000000000000000000000000
0000000000000000000000000000000000000000000000000000000000000000000000
0000000000000000000001000000001000010101010011111100000100001000100000
0100100000000010000000000000000000000000000000000000000000000000000000
0000000000000000000000000000000000000000000000000000000000000000000000
0000000000000011000000110000000000000001100001111110100000000100000000
0000000110000000000000000000000000000000000000000000000000000000000000
0000000000000000000000000000000000000000000000000000000000000000000000
0000000001100001010101000000100001001100000100000001010100000000010000
0000000000000000000000000001100000000000000000000000000000000000000000
0000000000000000000000000000000000000000000000000000000000000000100000
0110000000000000000000000001000000100000000000000000000000100000000000
0000000000000000011000000000000000000000000000000001100000000011000000
0000000000000000000000000000000000000000000000000000000010100000101000
1000010000000000001100000000000110100000000000100000000000000000000000
0000000110000000000000000000000000000000011000000001100000000000000000
0000000000000000000000000000000000000000100000000001000000101000000000
0000000000000000000000000010111000000101000000000000000000000000000000
0000000000000000000000000000000110000000110000000000000000000000000000
0000000000000000000000000000000000000011000110000000000000000010000000
0000000000010100000000000000000000000000000000000000000000000000000000
0000000000000000000001100000001100000000000000000000000000000000000000
0000000000000000000000000000001100001111100000001000000001100000000000
0000101010110000000000000000000000000000000000011000111110000000001111
1110000111111000000110000000000000000000000000000000000000000000000000
0000000000100000010000100000000000000000001100010000000000000100000000
0000001000000000000000000000000000000110011111100000001111111111011111
1110000011100000000000000000000000000000000000000000000000000000000000
0000000001000010011010000001000010001011000000000000011010010110000000
0000000000000000000000000001100110000000000011000011000110000110000011
0000000000000000000000000000000000000000000000000000000000000000000000
0110000000000000100000001000011000000000010000000000001010000000000000
0000000000000000011001111100000000111000110011000001100001100000000000
0000000000000000000000000000000000000000000000000000000000010000101001
0000000001101101010010000000000011001000001010010000000000000000000000
0000000110000111110000001111111100110000011000011000000000000000000000
0000000000000000000000000000000000000000000000000001000000100000000101
0011101110010000000000000001101000000000000000000000000000000000000110
0000001100000001111100001100000110001100000000000000000000000000000000
0000000000000000000000000000000000000000000110000000000000100011110110
1000000000010100000000100100000000000000000000000000000001100000001100
0000011000000011100011100111000000000000000000000000000000000000000000
0000000000000000000000000000000000001011010000110111101111011000000000
0000011011000000000000000000000000000000000000011001111111001100011111
1000011111111001100000000000000000000000000000000000000000000000000000
0000000000000000000000000000000000110111111010111111000000000110000000
0000000000000000000000000000000000000110001111000011000111111100011110
0110110000000000000000000000000000000000000000000000000000000000000000
0010000000000000010000000111000000011011010000000000010101111010000000
0000000000000000000000000000000000000000000000000011100000000000000000
0000000000000000000000000000000000000000000000000000000000000000000000
0000000000001000000000010011111110000000100000000000000000000000000000
0000000000000000000000000000000000000000110000000000000000000000000000
0000000000000000000000000000000000000000000000000000000000000000000000
0000000000011111000001000000000011010010000000000000000000000000000000
0000000000000000000000001111111100000000000000000000000000000000000000
0000000000000000000000000000000000000000000000000000000000000000000000
0000010100000000000010000000000000000000000000000000000000000000000000
0000000000000001111100000000000000000000000000000000000000000000000000
0000000000000000000000000000000000000000000000000000000000000000000000
0000000000010100000010000000000000000000000000000000000000000000000000
0000000000000000000000000000011000000000000000000000000000000000000000
0110000000000000000000000000000000000000000000000000000000000000000000
0000000000000000000000000000000000000000000000000000000000000000000000
0000000000000001100110000000000000000000000000000000000001100110000000
0000000000000000100000000000000010000000000010000000000000000000000000
0000000000000000000000000000000000000000000000000000000000000000000000
0000011001100000000000000000000000000000000000011001100000000000000000
0000000000000000000000110100000001000000000000000000000000000000000000
0000000000000000000000000000000000000000000000000000000000000000011000
0000000000000000000000110000000000000110000000000000000000000000000000
0000000000011110010101111010000000000010000000000000000000000000000000
0000000000000000000000000000000000000000000000000000000110000000000000
0000000000001100000000000001100000000000000000000000000000000000000000
1110110100000111110000000000100000001000000000000000000000000000000000
0000000000000000000000011011000111110000011111100110000111110000111110
0111111000111110011001100110011110000000000000000010000000011011101000
0000011000000000001100000000000000000000000000000000000000000000000000
0000000000000111110011111110011111111001100011111110011111100111111001
1111110110011001111111110000000000000000000000011111111111001000011000
0000000111000000000000000000000000000000000000000000000000000000000000
0001100000000001100110000110011001110001110110000000110000000000110110
0110011100001100000000000000000000110010110110110000101110000000001011
1001000000000000000000000000000000000000000000000000000000000001100000
0111111011000001100110011000001101111100001100000011111101100110011100
0011000000000000000000000000111101111111000001101000000100100000000000
0000000000000000000000000000000000000000000000000000011000011111111011
0000011001100110000011000111110011000011111111011001100110000011000000
0000000000000000101011110110110000011000000011010010000000000000000000
0000000000000000000000000000000000000000000110000111000110110000011001
1001100000110000001100110000111000110110011001100000110000000000000000
0000000000001110111111001011000000000100000000000000000000000000000000
0000000000000000000000000000000001100001100011101110001110011001110001
1100000011001100001100011101100110011000001100000000000000000000000001
0100000111111010110000001000000000000000000000000000000000000000000000
0000000000000000000000011000011111111001111111100110001111111001111111
0011111011111111011001100110000011000000000000000000000000000010100000
0011000100010000000000000000000000000000000000000000000000000000000000
0000000000000110000011110100011110011001100001111100001111000001111001
1110100110011001100000110000000000000000000000000000000000101000101000
0000000000000000000000000000000000000000000000000000000000000000000000
0000000000000000000000000000000000000000000000000000000000000000000000
0000000000000000000000000000000000000000000000000000000000000000000000
0000000000000000000000000000000000000000000000000000000000000000000000
0000000000000000000000000000000000000000000000000000000000000000000000
0000000000000000000000000000000000000000000000000000000000000000000000
0000000000000000000000000000000000000000000000000000000000000000000000
0000000000000000000000000000000000000000000000000000000000000000000000
0000000000000000000000000000000000000000000000000000000000000000000000
0000000000000000000000000000000000000000000000000000000000000000000000
0000000000000000000000000000000000000000000000000000000000000000000000
0000000000000000000000000000000000000000000000000000000000000000000000
0000000000000000000000000000000000000000000000000000000000000000000000
0000000000000000000000000000000000000000000000000000000000000000000000
0000000000000000000000000000000000000000000000000000000000000000000000
0000000000000000000000000000000000000000000000000000000000000000000000
0000000000000000000000000000000000000000000000000000000000000000000000
0000000000000000000000000000000000000000000000000000000000000000000000
0000000000000000000000000000000000000000000000000000000000000000000000
0000000000000000000000000000000000000000000000000000000000000000000000
0000000000000000000000000000000000000000000000000000000000000000000000
0000000000000000000000000000000000000000000000000000000000000000000000
0000000000000000000000000000000000000000000000000000000000000000000000
0000000000000000000000000000000000000000000000000000000000000000000000
0000000000000000000000000000000000000000000000000000000000000000000000
0000000000000000000000000000000000000000000000000000000000000000000000
0000000000000000000000000000000000000000000000000000000000000000000000
0000000000000000000000000000000000000000000000000000000000000000000000
0000000000000000000000000000000000000000000000000000000000000000000000
0000000000000000000000000000000000000000000000000000000000000000000000
0000000000000000000000000000000000000000000000000000000000000000000000
0000000000000000000000000000000000000000000000000000000000000000000000
0000000000000000000000000000000000000000000000000000000000000000000000
0000000000000000000000000000000000000000000000000000000000000000000000
0000000000000000000000000000000000000000000000000000000000000000000000
0000000000000000000000000000000000000000000000000000000000000000000000
0000000000000000000000000000000000000000000000000000000000000000000000
0000000000000000000000000000000000000000000000000000000000000000000000
0000000000000000000000000000000000000000000000000000000000000000000000
0000000000000000000000000000000000000000000000000000000000000000000000
0000000000000000000000000000000000000000000000000000000000000000000000
0000000000000000000000000000000000000000000000000000000000000000000000
0000000000000000000000000000000000000000000000000000000000000000000000
000000000000000000000000000000