P1
# CREATOR: GIMP PNM Filter Version 1.1
200 200
0000000000000000000000000000000000000000000000000000000000000000000000
0000000000000000000000000000000000000000000000000000000000000000000000
0000000000000000000000000000000000000000000000000000000000000000000000
0000000000000000000000000000000000000000000000000000000000000000000000
0000000000000000000000000000000000000000000000000000000000000000000000
0000000000000000000000000000000000000000000000000000000000000000000000
0000000000000000000000000000000000000000000000000000000000000000000000
0000000000000000000000000000000000000000000000000000000000000000000000
0000000000000000000000000000000000000000000000000000000000000000000000
0000000000000000000000000000000000000000000000000000000000000000000000
0000000000000000000000000000000000000000000000000000000000000000000000
0000000000000000000000000000000000000000000000000000000000000000000000
0000000000000000000000000000000000000000000000000000000000000000000000
0000000000000000000000000000000000000000000000000000000000000000000000
0000000000000000000000000000000000000000000000000000000000000000000000
0000000000000000000000000000000000000000000000000000000000000000000000
0000000000000000000000000000000000000000000000000000000000000000000000
0000000000000000000000000000000000000000000000000000000000000000000000
0000000000000000000000000000000000000000000000000000000000000000000000
0000000000000000000000000000000000000000000000000000000000000000000000
0000000000000000000000000000000000000000000000000000000000000000000000
0000000000000000000000000000000000000000000000000000000000000000000000
0000000000000000000000000000000000000000000000000000000000000000000000
0000000000000000000000000000000000000000000000000000000000000000000000
0000000000000000000000000000000000000000000000000000000000000000000000
0000000000000000000000000000000000000000000000000000000000000000000000
0000000000000000000000000000000000000000000000000000000000000000000000
0000000000000000000000000000000000000000000000000000000000000000000000
0000000000000000000000000000000000000000000000000000000000000000000000
0000000000000000000000000000000000000000000000000000000000000000000000
0000000000000000000000000000000000000000000000000000000000000000000000
0000000000000000000000000000000000000000000000000000000000000000000000
0000000000000000000000000000000000000000000000000000000000000000000000
0000000000000000000000000000000000000000000000000000000000000000000000
0000000000000000000000000000000000000000000000000000000000000000000000
0000000000000000000000000000000000000000000000000000000000111000000000
0000000000000000000000000000000000000000000000000000000000000000000000
0000000000000000000000000000000000000000000000000000000000000000000000
0000000000000000000000000000000000000000000000001110000000000000000000
0000000000000000000000000000000000000000000000000000000000000000000000
0000000000000000000000000000000000000000000000000000000000000000000000
0000000000000000000000000000000000000011100000000000000000000000000000
0000000000000000000000000000000000000000000000000000000000000000000000
0000000000000000000000000000000000000000000000000000000000000000000000
0000000000000000000000000000111000000000000000000000000000000000000000
0000000000000000000000000000000000000000000000000000000000000000000000
0000000000000000000000000000000000000000000000000000000000000000000000
0000000000000000001110000111111000011111111110111111111100000011111001
1111101110001111000111111111100011111100000000000000000000000000000000
0000000000000000000000000000000000000000000000000000000000000000000000
0000000011100011111111000111111111101111111111000000111110011111101110
1111111001111111111100111111000000000000000000000000000000000000000000
0000000000000000000000000000000000000000000000000000000000000000000011
1000010001111000000011110000000111100000000011100000111001111000111100
0111000111100001110000000000000000000000000000000000000000000000000000
0000000000000000000000000000000000000000000000000000000000111000000000
1110000000111000000001110000000000111000001110011100000111001110000011
1000011100000000000000000000000000000000000000000000000000000000000000
0000000000000000000000000000000000000000000000001110000011111110000001
1110000000111100000000001110000011100111000001110011100000111000011100
0000000000000000000000000000000000000000000000000000000000000000000000
0000000000000000000000000000000000000011100011111111100000111100000001
1110000000000011100000111001110000011100111000001110000111000000000000
0000000000000000000000000000000000000000000000000000000000000000000000
0000000000000000000000000000111001111000111000001110000000011100000000
0000111000001110011100000111001110000011100001110000000000000000000000
0000000000000000000000000000000000000000000000000000000000000000000000
0000000000000000001110011100001110000111000000001110000000000000111000
0011101111000001110011100000111000011100000000000000000000000000000000
0000000000000000000000000000000000000000000000000000000000000000000000
0000000011100111000011100011110000000111100000000000001110000000001110
0000011100111000001110000000000000000000000000000000000000000000000000
0000000000000000000000000000000000000000000000000000000000000000000011
1001110001111000111000000001110000000000000011100000000011100000011100
0111000111000000000000000000000000000000000000000000000000000000000000
0000000000000000000000000000000000000000000000000000000000111000111111
1110011111111110111111111100000000111000000000111000111111000011111110
0000000000000000000000000000000000000000000000000000000000000000000000
0000000000000000000000000000000000000000000000011100000111101110011111
1111101111111111000000001110000000001110001111110000011111000000000000
0000000000000000000000000000000000000000000000000000000000000000000000
0000000000000000000000000000000000001111000000000000000000000000000000
0000000000000011100000000000000000000000000000000000000000000000000000
0000000000000000000000000000000000000000000000000000000000000000000000
0000000000000000000000000111100000000000000000000000000000000000000000
0000111000000000000000000000000000000000000000000000000000000000000000
0000000000000000000000000000000000000000000000000000000000000000000000
0000000000000000100000000000000000000000000000000000000000000000111000
0000000000000000000000000000000000000000000000000000000000000000000000
0000000000000000000000000000000000000000000000000000000000000000000000
0000000000000000000000000000000000000000000000000000001110000000000000
0000000000000000000000000000000000000000000000000000000000000000000000
0000000000000000000000000000000000000000000000000000000000000000000000
0000000000000000000000000000000000000000000000000000000000000000000000
0000000000000000000000000000000000000000000000000000000000000000000000
0000000000000000000000000000000000000000000000000000000000000000000000
0000000000000000000000000000000000000000000000000000000000000000000000
0000000000000000000000000000000000000000000000000000000000000000000000
0000000000000000000000000000000000000000000000000000000000000000000000
0000000000000000000000000000000000000000000000000000000000000000000000
0000000000000000000000000000000000000000000000000000000000000000000000
0000000000000000000000000000000000000000000000000000000000000000000000
0000000000000000000000000000000000000000000000000000000000000000000000
0000000000000000000000000000000000000000000000000000000000000000000000
0000000000000000000000000000000000000000000000000000000000000000000000
0000000000000000000000000000000000000000000000000000000000000000000000
0000000000000000000000000000000000000000000000000000000000000000000000
0000000000000000000000000000000000000001100000000000000000110000000000
0000000001100000000000000000000000000000000000000000000000000000000000
0000000000000000000000000000000000000000000000000000000000000000000000
0000000000000000000000000000011000000000000000001100000000000000000001
1000000000000000000000000000000000000000000000000000000000000000000000
0000000000000000000000000000000000000000000000000000000000000000000000
0000000000000000000110000000000000000011000000000000000000011000000000
0000000000000000000000000000000000000000000000000000000000000000000000
0000000000000000000000000000000000000000000000000000000010001111001111
0111111001111111111111111100111111110000000011110111111110010001111000
1111111100000000000000000000000000000000000000000000000000000000000000
0000000000000000000000000000000000000000000001110011111011110111111101
1111111111111111101111111100000000111101111111101110011111001111111100
0000000000000000000000000000000000000000000000000000000000000000000000
0000000000000000000000000000000000001100100110001100000011000000011001
0000011000000011000000000011000000011001100100110000000011000000000000
0000000000000000000000000000000000000000000000000000000000000000000000
0000000000000000000000000011000001100011000000110000000110110000011000
0000110111110000110000000110011000001100000000110000000000000000000000
0000000000000000000000000000000000000000000000000000000000000000000000
0000000000000000110000011000110000001100000001101100000110000000110111
1100001100000001100110000011011000001100000000000000000000000000000000
0000000000000000000000000000000000000000000000000000000000000000000000
0000001100001100001100000011000000110011000001100000011000000000001100
0000110001100001100110000110000000000000000000000000000000000000000000
0000000000000000000000000000000000000000000000000000000000000000001100
0111000011000000110000011000111000111000001100000000000011000001100001
1000111001100011100000000000000000000000000000000000000000000000000000
0000000000000000000000000000000000000000000000000000000011111110000011
0000001100001100000111111100000110000000000000110000110000011111110001
1001110000000000000000000000000000000000000000000000000000000000000000
0000000000000000000000000000000000000000000000111110000000110000001100
0011000000111110000001100000000000001100001100000111110000011000100000
0000000000000000000000000000000000000000000000000000000000000000000000
0000000000000000000000000000000000000000000000000000000000000000000000
0000000000000000000000000011000000000000000000000110000000000000000000
0000000000000000000000000000000000000000000000000000000000000000000000
0000000000000000000000000000000000000000000000000000000000000000000000
0000000000000000110000000000000000000001100000000000000000000000000000
0000000000000000000000000000000000000000000000000000000000000000000000
0000000000000000000000000000000000000000000000000000000000000000000000
0000001100000000000000000000011000000000000000000000000000000000000000
0000000000000000000000000000000000000000000000000000000000000000000000
0000000000000000000000000000000000000000000000000000000000000000000000
0000000000000000000000000000000000000000000000000000000000000000000000
0000000000000000000000000000000000000000000000000000000000000000000000
0000000000000000000000000000000000000000000000000000000000000000000000
0000000000000000000000000000000000000000000000000000000000000000000000
0000000000000000000000000000000000000000000000000000000000000000000000
0000000000000000000000000000000000000000000000000000000000000000000000
0000000000000000000000000000000000000000000000000000000000000000000000
0000000000000000000000000000000000000000000000000000000000000000000000
0000000000000000000000000000000000000000000000000000000000000000000000
0000000000000000000000000000000000000000000000000000000000000000000000
0000000000000000000000000000000000000000000000000000000000000000000000
0000000000000000000000000000000000000000000000000000000000000000000000
0000000000000000000000000000000000000000000000000000000000000000000000
0000000000000000000000000000000000000000000000000000000000000000000000
0000000000000000000000000000000000000000000000000000000000000000000000
0000000000000000000000000000000000000000000000000000000000000000000000
0000000000000000000000000000000000000000000000000000000000000000000000
0000000000000000000000000000000000000000000000000000000000000000000000
0000000000000000000000000000000000000000000000000000000000000000000000
0000000000000000000000000000000000000000000000000000000000000000000000
0000000000000000000000000000000000000000000000000000000000000000000000
0000000000000000000000000000000000000000000000000000000000000000000000
0000000000000000000000000000000000000000000000000000000000000000000000
0000000000000000000000000000000000000000000000000000000000000000000000
0000000000000000000000000000000000000000000000000000000000000000000000
0000000000000000000000000000000000000000000000000000000000000000000000
0000000000000000000000000000000000000000000000000000000000000000000000
0000000000000000000000000000000000000000000000000000000000000000000000
0000000000000000000000000000000000000000000000000000000000000000000000
0000000000000000000000000000000000000000000000000000000000000000000000
0000000000000000000000000000000000000000000000000000000000000000000000
0000000000000000000000000000000000000000000000000000000000000000000000
0000000000000000000000000000000000000000000000000000000000000000000000
0000000000000000000000000000000000000000000000000000000000000000000000
0000000000000000000000000000000000000000000000000000000000000000000000
0000000000000000000000000000000000000000000000000000000000000000000000
0000000000000000000000000000000000000000000000000000000000000000000000
0000000000000000000000000000000000000000000000000000000000000000000000
0000000000000000000000000000000000000000000000000000000000000000000000
0000000000000000000000000000000000000000000000000000000000000000000000
0000000000000000000000000000000000000000000000000000000000000000000000
0000000000000000000000000000000000000000000000000000000000000000000000
0000000000000000000000000000000000000000000000000000000000000000000000
0000000000000000000000000000000000000000000000000000000000000000000000
0000000000000000000000000000000000000000000000000000000000000000000000
0000000000000000000000000000000000000000000000000000000000000000000000
0000000000000000000000000000000000000000000000000000000000000000000000
0000000000000000000000000000000000000000000000000000000000000000000000
0000000000000000000000000000000000000000000000000000000000000000000000
0000000000000000000000000000000000000000000000000000000000000000000000
0000000000000000000000000000000000000000000000000000000000000000000000
0000000000000000000000000000000000000000000000000000000000000000000000
0000000000000000000000000000000000000000000000000000000000000000000000
0000000000000000000000000000000000000000000000000000000000000000000000
0000000000000000000000000000000000000000000000000000000000000000000000
0000000000000000000000000000000000000000000000000000000000000000000000
0000000000000000000000000000000000000000000000000000000000000000000000
0000000000000000000000000000000000000000000000000000000000000000000000
0000000000000000000000000000000000000000000000000000000000000000000000
0000000000000000000000000000000000000000000000000000000000000000000000
0000000000000000000000000000000000000000000000000000000000000000000000
0000000000000000000000000000000000000000000000000000000000000000000000
0000000000000000000000000000000000000000000000000000000000000000000000
0000000000000000000000000000000000000000000000000000000000000000000000
0000000000000000000000000000000000000000000000000000000000000000000000
0000000000000000000000000000000000000000000000000000000000000000000000
0000000000000000000000000000000000000000000000000000000000000000000000
0000000000000000000000000000000000000000000000000000000000000000000000
0000000000000000000000000000000000000000000000000000000000000000000000
0000000000000000000000000000000000000000000000000000000000000000000000
0000000000000000000000000000000000000000000000000000000000000000000000
0000000000000000000000000000000000000000000000000000000000000000000000
0000000000000000000000000000000000000000000000000000000000000000000000
0000000000000000000000000000000000000000000000000000000000000000000000
0000000000000000000000000000000000000000000000000000000000000000000000
0000000000000000000000000000000000000000000000000000000000000000000000
0000000000000000000000000000000000000000000000000000000000000000000000
0000000000000000000000000000000000000000000000000000000000000000000000
0000000000000000000000000000000000000000000000000000000000000000000000
0000000000000000000000000000000000000000000000000000000000000000000000
0000000000000000000000000000000000000000000000000000000000000000000000
0000000000000000000000000000000000000000000000000000000000000000000000
0000000000000000000000000000000000000000000000000000000000000000000000
0000000000000000000000000000000000000000000000000000000000000000000000
0000000000000000000000000000000000000000000000000000000000000000000000
0000000000000000000000000000000000000000000000000000000000000000000000
0000000000000000000000000000000000000000000000000000000000000000000000
0000000000000000000000000000000000000000000000000000000000000000000000
0000000000000000000000000000000000000000000000000000000000000000000000
0000000000000000000000000000000000000000000000000000000000000000000000
0000000000000000000000000000000000000000000000000000000000000000000000
0000000000000000000000000000000000000000000000000000000000000000000000
0000000000000000000000000000000000000000000000000000000000000000000000
0000000000000000000000000000000000000000000000000000000000000000000000
0000000000000000000000000000000000000000000000000000000000000000000000
0000000000000000000000000000000000000000000000000000000000000000000000
0000000000000000000000000000000000000000000000000000000000000000000000
0000000000000000000000000000000000000000000000000000000000000000000000
0000000000000000000000000000000000000000000000000000000000000000000000
0000000000000000000000000000000000000000000000000000000000000000000000
0000000000000000000000000000000000000000000000000000000000000000000000
0000000000000000000000000000000000000000000000000000000000000000000000
0000000000000000000000000000000000000000000000000000000000000000000000
0000000000000000000000000000000000000000000000000000000000000000000000
0000000000000000000000000000000000000000000000000000000000000000000000
0000000100000000000000000000000000000000000000000000000000000000000000
0000000000000000000000000000000000000000000000000000000000000000000000
0000000000000000000000000000000000000000000000000000000000000001000001
0001001000001001000000000000000000000000000000000000000000000000000000
0000000000000000000000000000000000000000000000000000000000000000000000
0000000000000000000000000000000000000000000000000000000000000000000010
0000100101000000000000000000000000000000000000000000000000000000000000
0000000000000000000000000000000000000000000000000000000000000000000000
0000000000000000000000000000000000001001000000000000010000010000000000
0100000000000000000000000000000000000000000000000000000000000000000000
0000000000000000000000000000000000000000000000000000000000000000000000
0000000000000000000000010000000010100100100000000000000001000010000000
0000000000000000000000000000000000000000000000000000000000000000000000
0000000000000000000000000000000000000000000000000000000000000000000000
0000000000000000000000000000000000010100101000001010000000000000000000
0000000000000000000000000000000000000000000000000000000000000000000000
0000000000000000000000000000000000000000000000000000000000000000000101
0000010001000010101010100000000000100000010110100000000000000000000000
0000000000000000000000000000000000000000000000000000000000000000000000
0000000000000000000000000000000000000000000000000000001010001000000000
0010001010101010101010100100100000000100000000000000000000000000000000
0000000000000000000000000000000000000000000000000000000000000000000000
0000000000000000000000000000000000000000000000000000010000010010100100
0101010010000010010010001010100000000000000000000000000000000000000000
0000000000000000000000000000000000000000000000000000000000000000000000
0000000000000000000000000000000001001010100000100010001000100000101001
0100100010001000010100000000000000000000000000000000000000000000000000
0000000000000000000000000000000000000000000000000000000000000000000000
0000000000000000000000000000000000100010011000100010101010101001001000
1001000010100000000000000000000000000000000000000000000000000000000000
0000000000000000000000000000000000000000000000000000000000000000000000
0000000000000000001001000010010001010010001000100101000001001001010001
0100000000000000000000000000000000000000000000000000000000000000000000
0000000000000000000000000000000000000000000000000000000000000000000000
0100100001000101001010100101011000100010010101000101010010100010000000
0000000000000000000000000000000000000000000000000000000000000000000000
0000000000000000000000000000000000000000000000000000000000010000001000
0000101000010000100101100010101010101000000010010010100000000000000000
0000000000000000000000000000000000000000000000000000000000000000000000
0000000000000000000000000000000000000000000000000000100100001010010010
0010101010100110001001010010101010010010101010000000000000000000000000
0000000000000000000000000000000000000000000000000000000000000000000000
0000000000000000000000000000000000000010100100010000100101010101010010
0101011001010010010000100010100010010000000000000000000000000000000000
0000000000000000000000000000000000000000000000000000000000000000000000
0000000000000000000000000001000000100001000010001001001000101001001010
0101010101010010000101010000000000000000000000000000000000000000000000
0000000000000000000000000000000000000000000000000000000000000000000000
0000000000000000001010100010001010010010001001000001001001010001010010
0100101001000101000000000000000000000000000000000000000000000000000000
0000000000000000000000000000000000000000000000000000000000000000000000
0000010001000101001000101000100100000001000001010101000101010010000100
1010101000000000000000000000000000000000000000000000000000000000000000
0000000000000000000000000000000000000000000000000000000000000000001000
0100000001000001100100000000000000000000101001010010010001010100100100
0000000000000000000000000000000000000000000000000000000000000000000000
0000000000000000000000000000000000000000000000000000000100101001010000
0101000000001001000001000000000101010101010010000010100010010000000000
0000000000000000000000000000000000000000000000000000000000000000000000
0000000000000000000000000000000000000000001000100000000101000101010100
0000000100000100010000100010100100101010000010100000000000000000000000
0000000000000000000000000000000000000000000000000000000000000000000000
0000000000000000000000000000000000100101010000000100100000010000000000
0000000001000101010101010010010110000010000000000000000000000000000000
0000000000000000000000000000000000000000000000000000000000000000000000
0000000000000000000000000000000010010000100101000000010000010000100000
0000010010100100010000010100000000000000000000000000000000000000000000
0000000000000000000000000000000000000000000000000000000000000000000000
0000000000001010001000000000100100000001000000000000000001001010101010
0100100001010101000100000000000000000000000000000000000000000000000000
0000000000000000000000000000000000000000000000000000000000000000000000
0000000000010001000010010010001000000000001000000000010100101010100100
1010001000000000000000000000000000000000000000000000000000000000000000
0000000000000000000000000000000000000000000000000000000000000001001010
0000000010010000000000010010000000010010010010100100100100000001101000
1000000000000000000000000000000000000000000000000000000000000000000000
0000000000000000000000000000000000000000000000000010000100000010000010
1001000000000000000100000000000000100101010101001001000010000000000000
0000000000000000000000000000000000000000000000000000000000000000000000
0000000000000000000000000000000000000000010100010100001000010000010010
0000000000001000101010100100100100100000001010100010010000000000000000
0000000000000000000000000000000000000000000000000000000000000000000000
0000000000000000000000000000000100100101010000100010100000010010000000
0000000000001000100001010101010001001010000000000000000000000000000000
0000000000000000000000000000000000000000000000000000000000000000000000
0000000000000000000010010100000000100010010001000000000100000001000000
1000100101001010000000001001000010000000000000000000000000000000000000
0000000000000000000000000000000000000000000000000000000000000000000000
0000000000010000101010100001010010000000000000000100001001000000101001
0010011010101001010100000000000000000000000000000000000000000000000000
0000000000000000000000000000000000000000000000000000000000000000000001
0010100000010010001001000100100100001000000000000101000100100101000100
0000100100001000000000000000000000000000000000000000000000000000000000
0000000000000000000000000000000000000000000000000000000000010010001000
0000010101011000000000000000000000010000000000101010010100100100010010
1001000000000000000000000000000000000000000000000000000000000000000000
0000000000000000000000000000000000000000000000000001001000000001001001
0001001000000000001001000000000001000100101010000100010010100010000000
0000000000000000000000000000000000000000000000000000000000000000000000
0000000000000000000000000000000000000001001000000100000001001010000000
1000100000000010101011001001001010010100000101010000010000000000000000
0000000000000000000000000000000000000000000000000000000000000000000000
0000000000000000000000000000010101001000000101010101000001010110101000
0100010101001010101001010010010000000100010010000000000000000000000000
0000000000000000000000000000000000000000000000000000000000000000000000
0000000000000000010000010000010000010001001010000000001010100000010101
0000100101001010101010110101100000000000000000000000000000000000000000
0000000000000000000000000000000000000000000000000000000000000000000000
0000000010101001001001001001101100000000001000100000101001000010010101
0101000010000010001001000000000000000000000000000000000000000000000000
0000000000000000000000000000000000000000000000000000000000000000000000
0000010100000001001000100010010000100100000001000101001010010100111001
0100101000000010000000000000000000000000000000000000000000000000000000
0000000000000000000000000000000000000000000000000000000000100101000001
0101010001100010001001010100010001101010010101010010101000100101010100
0100100000000000000000000000000000000000000000000000000000000000000000
0000000000000000000000000000000000000000000000000000010101000000010100
1100010000101000100000001000000100100101001001010101000000100001000000
0000000000000000000000000000000000000000000000000000000000000000000000
0000000000000000000000000000000000000010010000000010101010010000000101
0000100000000010010100101010101010101001001010100010100100000000000000
0000000000000000000000000000000000000000000000000000011111100000000000
0000000000000000000000000000000101010100000010101011000000000100010001
0000100000101010001001010101001001010001001000000000000000000000000000
0000000000000000000000000000000000000000011110000100111011110000000000
0000000000000000000000000000010100100100000100000100010000000000100010
0000010001001001010101010010000000000000000000000000000000000000000000
0000000000000000000000000000011111000001101001100010000000000000000000
0000000010001010100000001010111000010000000000100001000100000000001001
0101010100100101010000101000000000000000000000000000000000000000000000
0000000000000000000111111100001000111000010000000000000000000000000000
0000000010010010010001000000000000000010000010010010100000101010010101
0100100001010001000000000000000000000000000000000000000000000000000000
0000000100000111100010011110000111111110000000000000000000010000000010
0000101010010100001000100000000000010000000001000010010010101010011000
0001000000000000000000000000000000000000000000000000000000000000001110
0101110000100111000001000000011000000000000000000000100100000101010100
0000010000000000001000100100100010000110101010100101010001010100000000
0000000000000000000000000000000000000000000000001101111100100011111000
1001110000010111100010000000000000000000000000000100001001000100000001
0001000000000010000100000100100101010101001011010010010000000000000000
0000000000000000000000000000000000000100001110000110111110000101110000
0101110000010000000000000000001000010010010101010000010001000000001000
0000101000001000010101001010101010000010001000000000000000000000000000
0000000000000000000000000000000011100000110111100010011110000101100110
0100000000000000000000100000000010010010000010000000000000110010100100
0001010001010100100101010110010000000000000000000000000000000000000000
0000000000000000010011110000001110111100101111000010111000100010000000
0000000000000001001001001010100000000010010000000101001010001000001101
0101010100101010010001001000000000000000000000000000000000000000000000
0000000111111000101011101111001011111000101100001101111000000000000001
0000000000010101001010001000000001000000010101010001001000010100101010
0101010010010000000000000000000000000000000000000000000000000000000111
1111101111111011111110111110001011000000001101110000000000000010001000
0100101000000000100000000000000010010100000001101010101001010010101001
0010000000000000000000000000000000000000000000000001110001111000110111
1100111111011111000011110100000101000010000000000000000000100001001010
1010000001000001000000001001000001000100101010101010000101000100000000
0000000000000000000000000000000000000000111010101110000101011110111111
0011110000101110000001011000010000000000001001000001001001001001001000
0100000000000000000010100110101010100101010100101000100000000000000000
0000000000000000000000000000011111000111110000011111001111110111110000
1111100000010100000100000000000000000010010101010101010000000010000100
0000100010000010001001010101001010101001001000000000000000000000000000
0000000000000000000111111110110100000001111011111101111110000111110000
1010000001000000000000010010000010100100100100100000000100010100010000
1010101010101010101001010010100000000000000000000000000000000000000000
0000000001111111111110100000010110010010011111110101111000001011000001
0000111100000000000100010101010101000100100000010101101011101000101010
1001010010100101001010000000000000000000000000000000000000000000000001
1111111111001100000011111000100111111111011110000101110000010011000100
0001000100101010010101001000000001010000000101000100101001010101001010
0101001010000000000000000000000000000000000000000000000000011111111110
0011000000111110001001111111101111100001010100000001000000100000100000
0000100100100000010010000000000000000000000101001010101010010001010010
1000000000000000000000000000000000000000000000000011111111111001100000
0111111110111111110111111000011100000111100000001000000000101101001010
0010010000000100101001000110101010101010101010101010010010010000000000
0000000000000000000000000000000000000000011111111110001000001011111100
1101011011111111111111000011110000000010000001000001001010110011010000
1000000001000100010100100101001010101000010010100100000000000000000000
0000000000000000000000000000000001111110000011000000111111100000011011
1111111011111100011100000000100000000010010001001010001010000000100000
1101011000101010010101001001010101001010000000000000000000000000000000
0000000000000000011111111111100000010000011011111000000101111111110111
1110111110000001010000000100001001001001010100010001000001000001001010
1001010101010101010010001001000000000000000000000000000000000000000000
0000001101001111111000100100000001111111000011111011111011111110111100
0000000100000000010001000101001010101001000010000000000000000101010100
1010101001011001010000000000000000000000000000000000000000000000011111
1101111111011001000000001001111101111000001101111111111111000001001000
0000000010010101001010010101010000000100000000101010100101010101010101
0001001000000000000000000000000000000000000000000000000111111110111111
0110110000000001001111111111000011111111111111100000010010000000000000
1010010100101001000010100100000010000001001010101010100100001101010000
0000000000000000000000000000000000000000000001111111111111111101000000
0000011011110111111111111000111111111100001001100000000010000010010101
0010101100000000000100001001001001010100101010101001010100000000000000
0000000000000000000000000000000000011111111111111110100000000000000011
1111101011111110000011110101110010010000000000001001001001001010010001
0010000100000000101010101010101010101001001001000000000000000000000000
0000000000000000000000111111111111111111110000000000000011101000000000
0001110101101000001111110100000000000000000001010100010010010010100000
0101001001010100101010101001010101000000000000000000000000000000000000
0000000000111111111111111111001110000000000001101101000000000000001100
0011001010111001000000000000000010010000110101010010001001010010100101
0101010100100101001001010000000000000000000000000000000000000000000000
1111111111111111100001100000000000011000000000000000000001000001100111
1011100000000000000000000101100101010000100010100010010101010010101010
1010101010100000000000000000000000000000000000000000000000011111111111
1111111100001110000000001100100000000000000000100000001000111111100000
0000000000000101000101000010001000001010101001010101010101010101010100
1000000000000000000000000000000000000000000000000111100011111111111100
0000100000000010000000000000000000001000000000111111110000000000000000
0000000000100010010100100001010010100100101001010101001001010000000000
0000000000000000000000000000000000000001111100011111111111100000110000
0001000000000000000000000010000001111111111000000000000000000000000110
0100010000100010010010101010101010101001010101000100000000000000000000
0000000000000000000000000000011111000011111111111000000100000000000000
0000000000000000100011111111111000000000000000000000000000010000010010
1000000101001001010100101010101010101100000000000000000000000000000000
0000000000000000000111100000011111111111100000100001011000000000000000
0000000001111111111000000000000000000000000000010010000100100001000010
1001010010101001010101010100000000000000000000000000000000000000000000
0000000000111000000011111111111100001100110100000000000000000000001000
1111111100000000000000000000000000000100010001001010001000001010101010
1010101010010010000000000000000000000000000000000000000000000000000000
0111000110111111111110000001001111100000000100000000000011001111111000
0000000000000000000000000000010100010001000000100101001010010101010010
1010000000000000000000000000000000000000000000000000000000000111000100
1111111111000000011010101100000001000000000001110011111000000000000000
0000000000000000000001000010000001000000010100101001010101010010000000
0000000000000000000000000000000000000000000000000000111111000111111111
0000100101111011110111010000000000101111111100000000000000000000000000
0000000000000001010010000101000100101010101010101010000000000000000000
0000000000000000000000000000000000000000000111110011001101000000001111
0111011110101100000000011111111100000000000000000000000000000000000000
0000000010001000000100101010010100101000000000000000000000000000000000
0000000000000000000000000000000000111111111101111101010101111011101111
1111110000001111111000000000000000000000000000000000000000000000000001
0000100100101001010100101000000000000000000000000000000000000000000000
0000000000000000011111111111111110001011111111011111111111101111010101
1111110000000000000000000000000000000000000000000000000000000000000010
0010100101010000000000000000000000000000000000000000000000000000000000
0000001000111101111111100011000100010101011011111011111111011110100000
0000000000000000000000000000000000000000000000000000000000010101010000
0000000000000000000000000000000000000000000000000000000000000000010111
1111011111110000110000010101011111101111110110111110001100000000000000
0000000000000000000000000000000000000000000000000000000000000000000000
0000000000000000000000000000000000000000000000000000000100111110100111
1000000100000010110111101101111111101111000001100000000000000000000000
0000000000000000000000000000000000000000000000000000000000000000000000
0000000000000000000000000000000000000000000001001110110110111000001100
0000100111111111111111111110000000001100000000000000000000000000000000
0000000000000000000000000000000000000000000000000000000000000000000000
0000000000000000000000000000000000001011101010010111011011000000110001
1111111111111111001000000001100000000000000000000000000000000000000000
0000000000000000000000000000000000000000000000000000000000000000000000
0000000000000000000000000011111101001011111111100000010101111111111011
1110000100100000001100000000000000000000000000000000000000000000000000
0000000000000000000000000000000000000000000000000000000000000000000000
0000000000000000111011100000001001101000000101001111011111111110001000
1100000001100000000000000000000000000000000000000000000000000000000000
0000000000000000000000000000000000000000000000000000000000000000000000
0000000101110010000010000000000100101011111111111111100100011010000000
1100000000000000000000000000000000000000000000000000000000000000000000
0000000000000000000000000000000000000000000000000000000000000000001110
1100000000000010000001110100110000110010111010000010110000000010000000
0000000000000000000000000000000000000000000000000000000000000000000000
0000000000000000000000000000000000000000000000000000000101010100000000
0010000000000101001010000001001101000000000100000000010000000000000000
0000000000000000000000000000000000000000000000000000000000000000000000
0000000000000000000000000000000000000000000011110101000000000000000000
0110110001100000010010000100000001000000000010000000000000000000000000
0000000000000000000000000000000000000000000000000000000000000000000000
0000000000000000000000000000000001010101100000000000000000000100100011
1000000100101100100000000000000000110000000000000000000000000000000000
0000000000000000000000000000000000000000000000000000000000000000000000
0000000000000000000000110101010100000000000000000000101001111000000100
1011100100000000000000000010000000000000000000000000000000000000000000
0000000000000000000000000000000000000000000000000000000000000000000000
0000000000011011010000000000000000000000101000110110000000011111110100
0000000000000000110000000000000000000000000000000000000000000000000000
0000000000000000000000000000000000000000000000000000000000000000000000
1101010100000000000000000000000110001010110000000111111110100000000000
0000000010000000000000000000000000000000000000000000000000000000000000
0000000000000000000000000000000000000000000000000000000000001110100000
0000000000000000000000101111111110000011111111110100000000000000000010
0000000000000000000000000000000000000000000000000000000000000000000000
0000000000000000000000000000000000000000000000000001101000000000000000
0000000000001011111111111111111111111111000000000000000000010000000000
0000000000000000000000000000000000000000000000000000000000000000000000
0000000000000000000000000000000000000000011000000000000000000000000000
0100111111111111111111111111111100000000000000000011000000000000000000
0000000000000000000000000000000000000000000000000000000000000000000000
0000000000000000000000000000000100000000000000000000000000000101111111
1111011111111111111111110000000000000000011000000000000000000000000000
0000000000000000000000000000000000000000000000000000000000000000000000
0000000000000000000001000000000000000000000000000000100000000000011111
1111111111111010000000000000000011000000000000000000000000000000000000
0000000000000000000000000000000000000000000000000000000000000000000000
0000000000000000000000000000000000000000001000000000000001111111111111
1111011000000000000000011000000000000000000000000000000000000000000000
0000000000000000000000000000000000000000000000000000000000000000000000
0000000000000000000000000000001100000000000000011111111111111111101000
0000000000000010000000000000000000000000000000000000000000000000000000
0000000000000000000000000000000000000000000000000000000000000000000000
0000000000000000000010000000000000000011111111111111111011100000000000
0000110000000000000000000000000000000000000000000000000000000000000000
0000000000000000000000000000000000000000000000000000000000000000000000
0000000001000000000000000000011111111111111111001100000000000000001100
0000000000000000000000000000000000000000000000000000000000000000000000
0000000000000000000000000000000000000000000000000000000000000000000010
0000000000000000000111111111111111111100100000000000000001100000000000
0000000000000000000000000000000000000000000000000000000000000000000000
000000000000000000000000000000