P1
# CREATOR: GIMP PNM Filter Version 1.1
200 200
0000000000000000000000000000000000000000000000000000000000000000000000
0000000000000000000000000000000000000000000000000000000000000000000000
0000000000000000000000000000000000000000000000000000000000000000000000
0000000000000000000000000000000000000000000000000000000000000000000000
0000000000000000000000000000000000000000000000000000000000000000000000
0000000000000000000000000000000000000000000000000000000000000000000000
0000000000000000000000000000000000000000000000000000000000000000000000
0000000000000000000000000000000000000000000000000000000000000000000000
0000000000000000000000000000000000000000000000000000000000000000000000
0000000000000000000000000000000000000000000000000000000000000000000000
0000000000000000000000000000000000000000000000000000000000000000000000
0000000000000000000000000000000000000000000000000000000000000000000000
0000000000000000000000000000000000000000000000000000000000000000000000
0000000000000000000000000000000000000000000000000000000000000000000000
0000000000000000000000000000000000000000000000000000000000000000000000
0000000000000000000000000000000000000000000000000000000000000000000000
0000000000000000000000000000000000000000000000000000000000000000000000
0000000000000000000000000000000000000000000000000000000000000000000000
0000000000000000000000000000000000000000000000000000000000000000000000
0000000000000000000000000000000000000000000000000000000000000000000000
0000000000000000000000000000000000000000000000000000000000000000000000
0000000000000000000000000000000000000000000000000000000000000000000000
0000000000000000000000000000000000000000000000000000000000000000000000
0000000000000000000000000000000000000000000000000000000000000000000000
0000000000000000000000000000000000000000000000000000000000000000000000
0000000000000000000000000000000000000000000000000000000000000000000000
0000000000000000000000000000000000000000000000000000000000000000000000
0000000000000000000000000000000000000000000000000000000000000000000000
0000000000000000000000000000000000000000000000000000000000000000000000
0000000000000000000000000000000000000000000000000000000000000000000000
0000000000000000000000000000000000000000000000000000000000000000000000
0000000000000000000000000000000000000000000000000000000000000000000000
0000000000000000000000000000000000000000000000000000000000000000000000
0000000000000000000000000000000000000000000000000000000000000000000000
0000000000000000000000000000000000000000000000000000000000000000000000
0000000000000000000000000000000000000000000000000000000000000000000000
0000000000000000000000000000000000000000000000000000000000000000000000
0000000000000000000000000000000000000000000000000000000000000000000000
0000000000000000000000000000000000000000000000000000000000000000000000
0000000000000000000000000000000000000000000000000000000000000000000000
0000000000000000000000000000000000000000000000000000000000000000000000
0000000000000000000000000000000000000000000000000000000000000000000000
0000000000000000000000000000000000000000000000000000000000000000000000
0000000000000000000000000000000000000000000000000000000000000000000000
0000000000000000000000000000000000000000000000000000000000000000000000
0000000000000000000000000000000000000000000000000000000000000000001111
1111111111111111100011111111111100011100000000000011111111111111111111
1000000000000000000000000000000000000000000000000000000000000000000000
0000000000000000000000000000000000000000000000000000000011111111111111
1111111000111111111111000111000000000000111111111111111111111000000000
0000000000000000000000000000000000000000000000000000000000000000000000
0000000000000000000000000000000000000000000000111111111111111111111000
1111111111110001110000000000001111111111111111111110000000000000000000
0000000000000000000000000000000000000000000000000000000000000000000000
0000000000000000000000000000000000001110000000000000001110001110000001
1100011100000000000011100000000000000011100000000000000000000000000000
0000000000000000000000000000000000000000000000000000000000000000000000
0000000000000000000000000011100000000000000011100011100000011100011100
0000000000111000000000000000111000000000000000000000000000000000000000
0000000000000000000000000000000000000000000000000000000000000000000000
0000000000000000111000000000000000111000111000000111000111000000000000
1110000000000000001110000000000000000000000000000000000000000000000000
0000000000000000000000000000000000000000000000000000000000000000000000
0000001110001111111110001110000001110000000001110000001110001110001111
1111100011100000000000000000000000000000000000000000000000000000000000
0000000000000000000000000000000000000000000000000000000000000000001110
0011111111100011100000011100000000011100000011100011100011111111100011
1000000000000000000000000000000000000000000000000000000000000000000000
0000000000000000000000000000000000000000000000000000000011100011111111
1000111000000111000000000111000000111000111000111111111000111000000000
0000000000000000000000000000000000000000000000000000000000000000000000
0000000000000000000000000000000000000000000000111000111111111000111000
0000000001110001110000001110001110001111111110001110000000000000000000
0000000000000000000000000000000000000000000000000000000000000000000000
0000000000000000000000000000000000001110001111111110001110000000000001
1100011100000011100011100011111111100011100000000000000000000000000000
0000000000000000000000000000000000000000000000000000000000000000000000
0000000000000000000000000011100011111111100011100000000000011100011100
0000111000111000111111111000111000000000000000000000000000000000000000
0000000000000000000000000000000000000000000000000000000000000000000000
0000000000000000111000111111111000111000111000000111111000111000000000
1110001111111110001110000000000000000000000000000000000000000000000000
0000000000000000000000000000000000000000000000000000000000000000000000
0000001110001111111110001110001110000001111110001110000000001110001111
1111100011100000000000000000000000000000000000000000000000000000000000
0000000000000000000000000000000000000000000000000000000000000000001110
0011111111100011100011100000011111100011100000000011100011111111100011
1000000000000000000000000000000000000000000000000000000000000000000000
0000000000000000000000000000000000000000000000000000000011100000000000
0000111000111111111000000111111000111000111000000000000000111000000000
0000000000000000000000000000000000000000000000000000000000000000000000
0000000000000000000000000000000000000000000000111000000000000000111000
1111111110000001111110001110001110000000000000001110000000000000000000
0000000000000000000000000000000000000000000000000000000000000000000000
0000000000000000000000000000000000001110000000000000001110001111111110
0000011111100011100011100000000000000011100000000000000000000000000000
0000000000000000000000000000000000000000000000000000000000000000000000
0000000000000000000000000011111111111111111111100011100011100011100011
1000111000111111111111111111111000000000000000000000000000000000000000
0000000000000000000000000000000000000000000000000000000000000000000000
0000000000000000111111111111111111111000111000111000111000111000111000
1111111111111111111110000000000000000000000000000000000000000000000000
0000000000000000000000000000000000000000000000000000000000000000000000
0000001111111111111111111110001110001110001110001110001110001111111111
1111111111100000000000000000000000000000000000000000000000000000000000
0000000000000000000000000000000000000000000000000000000000000000000000
0000000000000000000011111100011100000000000011100000000000000000000000
0000000000000000000000000000000000000000000000000000000000000000000000
0000000000000000000000000000000000000000000000000000000000000000000000
0000000000111111000111000000000000111000000000000000000000000000000000
0000000000000000000000000000000000000000000000000000000000000000000000
0000000000000000000000000000000000000000000000000000000000000000000000
1111110001110000000000001110000000000000000000000000000000000000000000
0000000000000000000000000000000000000000000000000000000000000000000000
0000000000000000000000000000000000001111111110000001111110001111110000
0000000000011111111111111111100000011111100000000000000000000000000000
0000000000000000000000000000000000000000000000000000000000000000000000
0000000000000000000000000011111111100000011111100011111100000000000000
0111111111111111111000000111111000000000000000000000000000000000000000
0000000000000000000000000000000000000000000000000000000000000000000000
0000000000000000111111111000000111111000111111000000000000000111111111
1111111110000001111110000000000000000000000000000000000000000000000000
0000000000000000000000000000000000000000000000000000000000000000000000
0000000001110000001111110000000000000001111111110001111110001111110001
1100011111100000000000000000000000000000000000000000000000000000000000
0000000000000000000000000000000000000000000000000000000000000000000001
1100000011111100000000000000011111111100011111100011111100011100011111
1000000000000000000000000000000000000000000000000000000000000000000000
0000000000000000000000000000000000000000000000000000000000011100000011
1111000000000000000111111111000111111000111111000111000111111000000000
0000000000000000000000000000000000000000000000000000000000000000000000
0000000000000000000000000000000000000000000000111111000111111000111111
0001111111111110000001111110001110000001111110001110000000000000000000
0000000000000000000000000000000000000000000000000000000000000000000000
0000000000000000000000000000000000001111110001111110001111110001111111
1111100000011111100011100000011111100011100000000000000000000000000000
0000000000000000000000000000000000000000000000000000000000000000000000
0000000000000000000000000011111100011111100011111100011111111111100000
0111111000111000000111111000111000000000000000000000000000000000000000
0000000000000000000000000000000000000000000000000000000000000000000000
0000000000000000111000111000000000000111000000111111000000111000111111
0001111111110000000000000000000000000000000000000000000000000000000000
0000000000000000000000000000000000000000000000000000000000000000000000
0000001110001110000000000001110000001111110000001110001111110001111111
1100000000000000000000000000000000000000000000000000000000000000000000
0000000000000000000000000000000000000000000000000000000000000000001110
0011100000000000011100000011111100000011100011111100011111111100000000
0000000000000000000000000000000000000000000000000000000000000000000000
0000000000000000000000000000000000000000000000000000000011100011100011
1000111111000111111000000000000111000000111111000000000000111000000000
0000000000000000000000000000000000000000000000000000000000000000000000
0000000000000000000000000000000000000000000000111000111000111000111111
0001111110000000000001110000001111110000000000001110000000000000000000
0000000000000000000000000000000000000000000000000000000000000000000000
0000000000000000000000000000000000001110001110001110001111110001111110
0000000000011100000011111100000000000011100000000000000000000000000000
0000000000000000000000000000000000000000000000000000000000000000000000
0000000000000000000000000000011111111111111100000011111111111111100011
1111111000111111000000000111111000000000000000000000000000000000000000
0000000000000000000000000000000000000000000000000000000000000000000000
0000000000000000000111111111111111000000111111111111111000111111111000
1111110000000001111110000000000000000000000000000000000000000000000000
0000000000000000000000000000000000000000000000000000000000000000000000
0000000001111111111111110000001111111111111110001111111110001111110000
0000011111100000000000000000000000000000000000000000000000000000000000
0000000000000000000000000000000000000000000000000000000000000000001111
1111111111111111111100011100011100000011111100000000000000011111100011
1000000000000000000000000000000000000000000000000000000000000000000000
0000000000000000000000000000000000000000000000000000000011111111111111
1111111111000111000111000000111111000000000000000111111000111000000000
0000000000000000000000000000000000000000000000000000000000000000000000
0000000000000000000000000000000000000000000000111111111111111111111111
0001110001110000001111110000000000000001111110001110000000000000000000
0000000000000000000000000000000000000000000000000000000000000000000000
0000000000000000000000000000000000000000000000000001110000000001110000
0000000000011100000011100000000000000000000000000000000000000000000000
0000000000000000000000000000000000000000000000000000000000000000000000
0000000000000000000000000000000000000000011100000000011100000000000000
0111000000111000000000000000000000000000000000000000000000000000000000
0000000000000000000000000000000000000000000000000000000000000000000000
0000000000000000000000000000000111000000000111000000000000000111000000
1110000000000000000000000000000000000000000000000000000000000000000000
0000000000000000000000000000000000000000000000000000000000000000000000
0000001111110000000001111111111110001111111110000001111111111111111110
0000011100000000000000000000000000000000000000000000000000000000000000
0000000000000000000000000000000000000000000000000000000000000000001111
1100000000011111111111100011111111100000011111111111111111100000011100
0000000000000000000000000000000000000000000000000000000000000000000000
0000000000000000000000000000000000000000000000000000000011111100000000
0111111111111000111111111000000111111111111111111000000111000000000000
0000000000000000000000000000000000000000000000000000000000000000000000
0000000000000000000000000000000000000000000000000000000000000000000000
1111110001111110000001111110000000001110001110001110000000000000000000
0000000000000000000000000000000000000000000000000000000000000000000000
0000000000000000000000000000000000000000000000000000000000001111110001
1111100000011111100000000011100011100011100000000000000000000000000000
0000000000000000000000000000000000000000000000000000000000000000000000
0000000000000000000000000000000000000000000000000011111100011111100000
0111111000000000111000111000111000000000000000000000000000000000000000
0000000000000000000000000000000000000000000000000000000000000000000000
0000000000000000111111111111111111111000000111000111111000000000111000
1110001111110000001110000000000000000000000000000000000000000000000000
0000000000000000000000000000000000000000000000000000000000000000000000
0000001111111111111111111110000001110001111110000000001110001110001111
1100000011100000000000000000000000000000000000000000000000000000000000
0000000000000000000000000000000000000000000000000000000000000000001111
1111111111111111100000011100011111100000000011100011100011111100000011
1000000000000000000000000000000000000000000000000000000000000000000000
0000000000000000000000000000000000000000000000000000000011100000000000
0000111000111000111111000000111111111000000000111000000000000000000000
0000000000000000000000000000000000000000000000000000000000000000000000
0000000000000000000000000000000000000000000000111000000000000000111000
1110001111110000001111111110000000001110000000000000000000000000000000
0000000000000000000000000000000000000000000000000000000000000000000000
0000000000000000000000000000000000001110000000000000001110001110001111
1100000011111111100000000011100000000000000000000000000000000000000000
0000000000000000000000000000000000000000000000000000000000000000000000
0000000000000000000000000011100011111111100011100000011100000011100011
1111111111111111111111000000000000000000000000000000000000000000000000
0000000000000000000000000000000000000000000000000000000000000000000000
0000000000000000111000111111111000111000000111000000111000111111111111
1111111111110000000000000000000000000000000000000000000000000000000000
0000000000000000000000000000000000000000000000000000000000000000000000
0000001110001111111110001110000001110000001110001111111111111111111111
1100000000000000000000000000000000000000000000000000000000000000000000
0000000000000000000000000000000000000000000000000000000000000000001110
0011111111100011100000011100011111111100011100011100000011111111111100
0000000000000000000000000000000000000000000000000000000000000000000000
0000000000000000000000000000000000000000000000000000000011100011111111
1000111000000111000111111111000111000111000000111111111111000000000000
0000000000000000000000000000000000000000000000000000000000000000000000
0000000000000000000000000000000000000000000000111000111111111000111000
0001110001111111110001110001110000001111111111110000000000000000000000
0000000000000000000000000000000000000000000000000000000000000000000000
0000000000000000000000000000000000001110001111111110001110001110001111
1100000000011100000000000011100000011111100000000000000000000000000000
0000000000000000000000000000000000000000000000000000000000000000000000
0000000000000000000000000011100011111111100011100011100011111100000000
0111000000000000111000000111111000000000000000000000000000000000000000
0000000000000000000000000000000000000000000000000000000000000000000000
0000000000000000111000111111111000111000111000111111000000000111000000
0000001110000001111110000000000000000000000000000000000000000000000000
0000000000000000000000000000000000000000000000000000000000000000000000
0000001110000000000000001110001111111111110000001110001110000001111110
0000000000000000000000000000000000000000000000000000000000000000000000
0000000000000000000000000000000000000000000000000000000000000000001110
0000000000000011100011111111111100000011100011100000011111100000000000
0000000000000000000000000000000000000000000000000000000000000000000000
0000000000000000000000000000000000000000000000000000000011100000000000
0000111000111111111111000000111000111000000111111000000000000000000000
0000000000000000000000000000000000100000000000000000000000000000000000
0000000000000000000000000000000000000000000000111111111111111111111000
1110000001111110001110001110000000000001110000001110000000000000000000
0000000000000000100101000000000000000000000000000000000000000000000000
0000000000000000000000000000000000001111111111111111111110001110000001
1111100011100011100000000000011100000011100000000000000000000000000000
0100100010000010101010010000000000000000000000000000000000000000000000
0000000000000000000000000011111111111111111111100011100000011111100011
1000111000000000000111000000111000000000000000000000000001000000010000
0010000000000011010000000000000000000000000000000000000000000000000000
0000000000000000000000000000000000000000000000000000000000000000000000
0000000000000000000000000000000000000000000000000100100001010000010010
1001000101000000000000000000000000000000000000000000000000000000000000
0000000000000000000000000000000000000000000000000000000000000000000000
0000000000000000000000000000000010101000000100000000100100001000000101
1110000000000000000000000000000000000000000000000000000000000000000000
0000000000000000000000000000000000000000000000000000000000000000000000
0000000000000000000000000000100100010010100000010000110010000010000000
0000000000000000000000000000000000000000000000000000000000000000000000
0000000000000000000000000000000000000000000000000000000000000000000000
0000000101010101001000010010000101010101100000010101010000000000000000
0000000000000000000000000000000000000000000000000000000000000000000000
0000000000000000000000000000000000000000000000000000000000000000000110
0000000000100010111110100001000011001001010111100000000000000000000000
0000000000000000000000000000000000000000000000000000000000000000000000
0000000000000000000000000000000000000000000000000000001100101010010100
0010101011101111001101010101001001010010000000000000000000000000000000
0000000000000000000000000000000000000000000000000000000000000000000000
0000000000000000000000000000000000000000000001010000010000010110111010
0110111101001011011000000111110000000000000000000000000000000000000000
0000000000000000000000000000000000000000000000000000000000000000000000
0000000000000000000000000000000001010011010000101101101010101001111101
1010001011111100011110000000000000000000000000000000000000000000000000
0000000000000000000000000000000000000000000000000000000000000000000000
0000000000000000000000000001001001010101011010011001111011111010100001
0101101010110000000000000000000000000000000000000000000000000000000000
0000000000000000000000000000000000000000000000000000000000000000000000
0000000000000100010000001010101101010011010101010111101101010011001011
1010000000000000000000000000000000000000000000000000000000000000000000
0000000000000000000000000000000000000000000000000000000000000000000000
0000100011101010101101011101111110000110111101010011101101010111000000
0000000000000000000000000000000000000000000000000000000000000000000000
0000000000000000000000000000000000000000000000000000000000000001001000
0010101001010011101101111010110101110101000111011010101000000000000000
0000000000000000000000000000000000000000000000000000000000000000000000
0000000000000000000000000000000000000000000000010010001010010101111011
0101101111111111101011110011001101011011111110000000000000000000000000
0000000000000000000000000000000000000000000000000000000000000000000000
0000000000000000000000000000000000000001011101001000010101010111111011
0101101110110111011010100010100110110000000000000000000000000000000000
0000000000000000000000000000000000000000000000000000000000000000000000
0000000000000000000000000011010000100101011010101101010100101111111111
0111011101100110110111011000000000000000000000000000000000000000000000
0000000000000000000000000000000000000000000000000000000000000000000000
0000000000000000110111101010010011101011010101010101011011110101111110
1100101010101111100000000000000000000000000000000000000000000000000000
0000000000000000000000000000000000000000000000000000000000000000000000
0000010001001010101010101010100101000000000001011111001011110110010101
0110110010000000000000000000000000000000000000000000000000000000000000
0000000000000000000000000000000000000000000000000000000000000000010101
0101001001001011010101000000100100000001111011011110110010111110101010
0000000000000000000000000000000000000000000000000000000000000000000000
0000000000000000000000000000000000000000000000000000000101101000101010
0101101000000101000100010010000110111110110111010010111101010000000000
0000000000000000000000000000000000000000000000000000000000000000000000
0000000000000000000000000000000000000000001101001010101010010110101010
1000001000100100000100101101111110010011010010101000000000000000000000
0000000000000000000000000000000000000000000000000000000000000000000000
0000000000000000000000000000000000100101010000010011010100000010100000
0000101010010111111011100110011011100010000000000000000000000000000000
0000000000000000000000000000000000000000000000000000000000000000000000
0000000000000000000000100010001010100100110100101010000001010100000000
0100101111011100010010010110010000000000000000000000000000000000000000
0000000000000000000000000000000000000000000000000000000000000000000000
0000000000001010001000001000101010100000001010000000010101010011111011
1110101101101101001001000000000000000000000000000000000000000000000000
0000000000000000000000000000000000000000000000000000000000000000000000
0010010100010001001010100101010000001000100000000010001110110111100010
1111011100000000000000000000000000000000000000000000000000000000000000
0000000000000000000000000000000000000000000000000000000000000101001011
0001000101101010000001000000100010101010101111101110111100100011110001
0100000000000000000000000000000000000000000000000000000000000000000000
0000000000000000000000000000000000000000000000000010001010000100100001
1010010101000101000000000010001000011010111011100100010111000000000000
0000000000000000000000000000000000000000000000000000000000000000000000
0000000000000000000000000000000000000000011100111110000010110001000000
0100000101001000010100110101101011101001011110100011010000000000000000
0000000000000000000000000000000000000000000000000000000000000000000000
0000000000000000000000000000010101101001011010000110100101010001000001
0000100000101010101011011011000001111011010000000000000000000000000000
0000000000000000000000000000000000000000000000000000000000000000000000
0000000000000000000010010110101000010110110010000001000000000101001010
0010011010101111010110001011000010000000000000000000000000000000000000
0000000000000000000000000000000000000000000000000000000000000000000000
0000000001011010101011101001110110001010000101001000001000101001011101
0110110100101011111101000000000000000000000000000000000000000000000000
0000000000000000000000000000000000000000000000000000000000000000000010
1010101000010100101001101000001000000000100001010010100110110101101010
0010101100001100000000000000000000000000000000000000000000000000000000
0000000000000000000000000000000000000000000000000000000000010110100010
0001001111111000101000100101000010000010000100100111101110110001011011
1011100000000000000000000000000000000000000000000000000000000000000000
0000000000000000000000000000000000000000000000000010010010001001011101
1010100000000000000101001000000100011111010110100101010111100010000000
0000000000000000000000000000000000000000000000000000000000000000000000
0000000000000000000000000000000000000001111100010000000011101111001001
0100101000010010111111111001011110101101000101101001011000000000000000
0000000000000000000000000000000000000000000000000000000000000000000000
0000000000000000000000000000100101010001010101100110100100101111111100
0001011111110111111011111011011001010110010010000000000000000000000000
0000000000000000000000000000000000000000000000000000000000000000000000
0000000000000000010110010010000100101011111001001000011011010100111110
1000011011101110101010111011110100100000000000000000000000000000000000
0000000000000000000000000000000000000000000000000000000000000000000000
0000000011011010101010010111101110001000101001010000011010000011111110
1110111010100101011001000000000000000000000000000000000000000000000000
0000000000000000000000000000000000000000000000000000000000000000000100
1000101110000101011011101001010001011101000011101111010101110111111010
1101011100000110000000000000000000000000000000000000000000000000000000
0000000000000000000000000000000000000000000000000000000000100110010001
1011011011110001001011111001000101111110111111101111011110110101110101
0100110000000000000000000000000000000000000000000000000000000000000000
0000000000000000000000000000000000000000000000001001011011000100110110
1110001001110101101000001000000101111011011101101101101011100101000000
0000000000000000000000000000000000000000000000000000000000000000000000
0000000000000000000000000000000000000001011000101010101110111100100111
0010100000100110101101011111111111111101101010100011110100000000000000
0000000000000000000000000000000000000000000000000000000000000000000000
0000000000000000000000000000000101101000100011111011000100001001010100
0001010010111110001010110111111111011001001001000000000000000000000000
0000000000000000000000000000000000000000000000000000000000000000000000
0000000000000000001000001000101011110111010010000100100000010010100100
0000010011111111101010111011000000100000000000000000000000000000000000
0000000000000000000000000000000000000000000000000000000000000000000000
0000000000101010100010001110110100001000000000100100001100010101001001
0101011111110110110101101000000000000000000000000000000000000000000000
0000000000000000000000000000000000000000000000000000000000000000000101
0000000101001011111011010000101010100010010101010010001001101111111101
0110110000100011000000000000000000000000000000000000000000000000000000
0000000000000000000000000000000000000000000000000000000000001001010001
0010111101010101000000000100000000010100101001001110110111110111011010
1011010000000000000000000000000000000000000000000000000000000000000000
0000000000000000000000000000000000000000000000000001000010100101011100
0100001010100100010100101100000001001101111110111111011110111000100000
0000000000000000000000000000000000000000000000000000000000000000000000
0000000000000000000000000000000000000010010100000101011111000101000000
1000000000000010110101001001011101111111111011010011101000000000000000
0000000000000000000000000000000000000000000000000000000000000000000000
0000000000000000000000000000000000010100101010111000010101000010010101
0001101000001001111111110110101111011011000100000000000000000000000000
0000000000000000000000000000000000000000000000000000000000000000000000
0000000000000000000101010000100110111110000000000100000000110101111100
1001000010111111111111111110101010000000000000000000000000000000000000
0000000000000000000000000000000000000000000000000000000000000000000000
0000000000000001010001101010101101010100010101001111111111000100111111
1111011010101110110010101000000000000000000000000000000000000000000000
0000000000000000000000000000000000000000000000000000000000000000000001
0101000010010111101100001000100000010000001101111000100101011111111111
1101110111010000000000000000000000000000000000000000000000000000000000
0000000000000000000000000000000000000000000000000000000000000010010100
1101111100100010100101000000000111110100100101111111111101101111101000
1101000000000000000000000000000000000000000000000000000000000000000000
0000000000000000000000000000000000000000000000000000001000100100101010
1100001000010010101000001111000100101010111111111110011111100101000000
0000000000000000000000000000000000000000000000000000000000000000000000
0000000000000000000000000000000000000000101001010010111111101111000100
0001000000010000001010101111111111110111111010101100110000000000000000
0000000000000000000000000000000000000000000000000000000000000000000000
0000000000000000000000000000000000000100101011011101110100101000100100
0000100010001010110111111110101111111101101000000000000000000000000000
0000000000000000000000000000000000000000000000000000000000000000000000
0000000000000000000000101000100110111011110100010001000000101011011001
0101110111111111111101111010101000000000000000000000000000000000000000
0000000000000000000000000000000000000000000000000000000000000000000000
0000000000000000100100111011011111100010010010111111111111111010111011
1111111011101011111010000000000000000000000000000000000000000000000000
0000000000000000000000000000000000000000000000000000000000000000000000
0010100000101111011111101010001001111000101011111110111011111111110110
1011101011010000000000000000000000000000000000000000000000000000000000
0000000000000000000000000000000000000000000000000000000000000000101101
1011010101100010001000000000000000000000000111101111111110101011101010
1000000000000000000000000000000000000000000000000000000000000000000000
0000000000000000000000000000000000000000000000000000000000100110111111
0111010100101000111010101111111111011111011111101110010110110000000000
0000000000000000000000000000000000000000000000000000000000000000000000
0000000000000000000000000000000000000000000101001011000101110011110001
0001000001010010111001011101111111111100110101110110000000000000000000
0000000000000000000000000000000000000000000000000000000000000000000000
0000000000000000000000000000000000000100110111111111101010001010010101
1111111010111101111111111110111101110110000000000000000000000000000000
0000000000000000000000000000000000000000000000000000000000000000000000
0000000000000000000000000100101100101011011110110000010000000001011010
1011011111111111110011100111100000000000000000000000000000000000000000
0000000000000000000000000000000000000000000000000000000000000000000000
0000000000000000010011001101101101111101010001010100000001010111111111
1111111101111011011000000000000000000000000000000000000000000000000000
0000000000000000000000000000000000000000000000000000000000000000000000
0000000010111101101011110111010010010000001010010110101111111111111101
0111010100000000000000000000000000000000000000000000000000000000000000
0000000000000000000000000000000000000000000000000000000000000000001000
1111101111010111011101000001010000101010111111111111111101011111110000
0000000000000000000000000000000000000000000000000000000000000000000000
0000000000000000000000000000000000000000000000000000000010100001011011
1111101101010101000010100000111011111111111111101010101110000000000000
0000000000000000000000000000000000000000000000000000000000000000000000
0000000000000000000000000000000000000000000000000110101011010100111001
0010000100000101011011111111111111111011111110000000000000000000000000
0000000000000000000000000000000000000000000000000000000000000000000000
0000000000000000000000000000000000000000000011011101110111011011010010
1001010111111111111111111110101101100000000000000000000000000000000000
0000000000000000000000000000000000000000000000000000000000000000000000
0000000000000000000000000000010110110101110110100010001010101101111101
1101111101111111011011110000000000000000000000000000000000000000000000
0000000000000000000000000000000000000000000000000000000000000000000000
0000000000000000000000000101011111111101101011101011101011111111111111
1111110111110000000000000000000000000000000000000000000000000000000000
0000000000000000000000000000000000000000000000000000000000000000000000
0000000000001111101111000100011000011101010111111011111111111111011101
0100000000000000000000000000000000000000000000000000000000000000000000
0000000000000000000000000000000000000000000000000000000000000000000000
0000100010110001010110100011111110110111111111111111111111011000000000
0000000000000000000000000000000000000000000000000000000000000000000000
0000000000000000000000000000000000000000000000000000000000000000000111
0100110101100100101010111011110111111111111111101100000000000000000000
0000000000000000000000000000000000000000000000000000000000000000000000
0000000000000000000000000000000000000000000000000000001001010100110010
1001000101110111011111111111011101111110000000000000000000000000000000
0000000000000000000000000000000000000000000000000000000000000000000000
0000000000000000000000000000000000000000000000010101000110101000101011
0111011111011111111111111110000000000000000000000000000000000000000000
0000000000000000000000000000000000000000000000000000000000000000000000
0000000000000000000000000000000000000101011001101111001000011011111011
1111111111111111000000000000000000000000000000000000000000000000000000
0000000000000000000000000000000000000000000000000000000000000000000000
0000000000000000000000000000011000111011000100101011010111110111111101
1101000000000000000000000000000000000000000000000000000000000000000000
0000000000000000000000000000000000000000000000000000000000000000000000
0000000000000000000011100010001001001000111111101111011111111010000000
0000000000000000000000000000000000000000000000000000000000000000000000
0000000000000000000000000000000000000000000000000000000000000000000000
0000000000000001010001001001010101011111111111111110000000000000000000
0000000000000000000000000000000000000000000000000000000000000000000000
0000000000000000000000000000000000000000000000000000000000000000000000
0000010110010010010010111011011111111100000000000000000000000000000000
0000000000000000000000000000000000000000000000000000000000000000000000
0000000000000000000000000000000000000000000000000000000000000000000011
0010010010110111101111111100000000000000000000000000000000000000000000
0000000000000000000000000000000000000000000000000000000000000000000000
0000000000000000000000000000000000000000000000000000000000000001001010
1101011101110000000000000000000000000000000000000000000000000000000000
0000000000000000000000000000000000000000000000000000000000000000000000
0000000000000000000000000000000000000000000000000000000000101011110000
0000000000000000000000000000000000000000000000000000000000000000000000
0000000000000000000000000000000000000000000000000000000000000000000000
0000000000000000000000000000000000000000000000000000000000000000000000
0000000000000000000000000000000000000000000000000000000000000000000000
0000000000000000000000000000000000000000000000000000000000000000000000
0000000000000000000000000000000000000000000000000000000000000000000000
0000000000000000000000000000000000000000000000000000000000000000000000
0000000000000000000000000000000000000000000000000000000000000000000000
0000000000000000000000000000000000000000000000000000000000000000000000
0000000000000000000000000000000000000000000000000000000000000000000000
0000000000000000000000000000000000000000000000000000000000000000000000
0000000000000000000000000000000000000000000000000000000000000000000000
0000000000000000000000000000000000000000000000000000000000000000000000
0000000000000000000000000000000000000000000000000000000000000000000000
0000000000000000000000000000000000000000000000000000000000000000000000
0000000000000000000000000000000000000000000000000000000000000000000000
0000000000000000000000000000000000000000000000000000000000000000000000
0000000000000000000000000000000000000000000000000000000000000000000000
0000000000000000000000000000000000000000000000000000000000000000000000
0000000000000000000000000000000000000000000000000000000000000000000000
0000000000000000000000000000000000000000000000000000000000000000000000
0000000000000000000000000000000000000000000000000000000000000000000000
0000000000000000000000000000000000000000000000000000000000000000000000
0000000000000000000000000000000000000000000000000000000000000000000000
0000000000000000000000000000000000000000000000000000000000000000000000
0000000000000000000000000000000000000000000000000000000000000000000000
0000000000000000000000000000000000000000000000000000000000000000000000
0000000000000000000000000000000000000000000000000000000000000000000000
0000000000000000000000000000000000000000000000000000000000000000000000
0000000000000000000000000000000000000000000000000000000000000000000000
0000000000000000000000000000000000000000000000000000000000000000000000
0000000000000000000000000000000000000000000000000000000000000000000000
0000000000000000000000000000000000000000000000000000000000000000000000
0000000000000000000000000000000000000000000000000000000000000000000000
0000000000000000000000000000000000000000000000000000000000000000000000
0000000000000000000000000000000000000000000000000000000000000000000000
0000000000000000000000000000000000000000000000000000000000000000000000
0000000000000000000000000000000000000000000000000000000000000000000000
0000000000000000000000000000000000000000000000000000000000000000000000
0000000000000000000000000000000000000000000000000000000000000000000000
0000000000000000000000000000000000000000000000000000000000000000000000
0000000000000000000000000000000000000000000000000000000000000000000000
0000000000000000000000000000000000000000000000000000000000000000000000
0000000000000000000000000000000000000000000000000000000000000000000000
0000000000000000000000000000000000000000000000000000000000000000000000
0000000000000000000000000000000000000000000000000000000000000000000000
0000000000000000000000000000000000000000000000000000000000000000000000
0000000000000000000000000000000000000000000000000000000000000000000000
0000000000000000000000000000000000000000000000000000000000000000000000
0000000000000000000000000000000000000000000000000000000000000000000000
0000000000000000000000000000000000000000000000000000000000000000000000
0000000000000000000000000000000000000000000000000000000000000000000000
0000000000000000000000000000000000000000000000000000000000000000000000
0000000000000000000000000000000000000000000000000000000000000000000000
0000000000000000000000000000000000000000000000000000000000000000000000
0000000000000000000000000000000000000000000000000000000000000000000000
0000000000000000000000000000000000000000000000000000000000000000000000
0000000000000000000000000000000000000000000000000000000000000000000000
0000000000000000000000000000000000000000000000000000000000000000000000
0000000000000000000000000000000000000000000000000000000000000000000000
0000000000000000000000000000000000000000000000000000000000000000000000
0000000000000000000000000000000000000000000000000000000000000000000000
0000000000000000000000000000000000000000000000000000000000000000000000
0000000000000000000000000000000000000000000000000000000000000000000000
0000000000000000000000000000000000000000000000000000000000000000000000
0000000000000000000000000000000000000000000000000000000000000000000000
0000000000000000000000000000000000000000000000000000000000000000000000
0000000000000000000000000000000000000000000000000000000000000000000000
0000000000000000000000000000000000000000000000000000000000000000000000
000000000000000000000000000000